# Tiled2Unity generated file. Do not modify by hand.
# Wavefront file for '1_mesh_0002.obj'

# Vertices (Count = 168)
v -2.4 -1.8 0
v -2.72 -1.8 0
v -2.72 -1.48 0
v -2.4 -1.48 0
v -2.7 -1.8 0
v -3.02 -1.8 0
v -3.02 -1.48 0
v -2.7 -1.48 0
v -3 -1.8 0
v -3.32 -1.8 0
v -3.32 -1.48 0
v -3 -1.48 0
v -3.3 -1.8 0
v -3.62 -1.8 0
v -3.62 -1.48 0
v -3.3 -1.48 0
v -3.6 -1.8 0
v -3.92 -1.8 0
v -3.92 -1.48 0
v -3.6 -1.48 0
v -3.9 -1.8 0
v -4.22 -1.8 0
v -4.22 -1.48 0
v -3.9 -1.48 0
v -4.2 -1.8 0
v -4.52 -1.8 0
v -4.52 -1.48 0
v -4.2 -1.48 0
v -4.5 -1.8 0
v -4.82 -1.8 0
v -4.82 -1.48 0
v -4.5 -1.48 0
v -4.8 -1.8 0
v -5.12 -1.8 0
v -5.12 -1.48 0
v -4.8 -1.48 0
v -5.1 -1.8 0
v -5.42 -1.8 0
v -5.42 -1.48 0
v -5.1 -1.48 0
v -5.4 -1.8 0
v -5.72 -1.8 0
v -5.72 -1.48 0
v -5.4 -1.48 0
v -5.7 -1.8 0
v -6.02 -1.8 0
v -6.02 -1.48 0
v -5.7 -1.48 0
v -6 -1.8 0
v -6.32 -1.8 0
v -6.32 -1.48 0
v -6 -1.48 0
v -2.4 -2.1 0
v -2.72 -2.1 0
v -2.72 -1.78 0
v -2.4 -1.78 0
v -2.7 -2.1 0
v -3.02 -2.1 0
v -3.02 -1.78 0
v -2.7 -1.78 0
v -3 -2.1 0
v -3.32 -2.1 0
v -3.32 -1.78 0
v -3 -1.78 0
v -3.3 -2.1 0
v -3.62 -2.1 0
v -3.62 -1.78 0
v -3.3 -1.78 0
v -3.6 -2.1 0
v -3.92 -2.1 0
v -3.92 -1.78 0
v -3.6 -1.78 0
v -3.9 -2.1 0
v -4.22 -2.1 0
v -4.22 -1.78 0
v -3.9 -1.78 0
v -4.2 -2.1 0
v -4.52 -2.1 0
v -4.52 -1.78 0
v -4.2 -1.78 0
v -4.5 -2.1 0
v -4.82 -2.1 0
v -4.82 -1.78 0
v -4.5 -1.78 0
v -4.8 -2.1 0
v -5.12 -2.1 0
v -5.12 -1.78 0
v -4.8 -1.78 0
v -5.1 -2.1 0
v -5.42 -2.1 0
v -5.42 -1.78 0
v -5.1 -1.78 0
v -5.4 -2.1 0
v -5.72 -2.1 0
v -5.72 -1.78 0
v -5.4 -1.78 0
v -5.7 -2.1 0
v -6.02 -2.1 0
v -6.02 -1.78 0
v -5.7 -1.78 0
v -6 -2.1 0
v -6.32 -2.1 0
v -6.32 -1.78 0
v -6 -1.78 0
v -5.7 -6.3 0
v -6.02 -6.3 0
v -6.02 -5.98 0
v -5.7 -5.98 0
v -6 -6.3 0
v -6.32 -6.3 0
v -6.32 -5.98 0
v -6 -5.98 0
v -6.3 -6.3 0
v -6.62 -6.3 0
v -6.62 -5.98 0
v -6.3 -5.98 0
v -6.6 -6.3 0
v -6.92 -6.3 0
v -6.92 -5.98 0
v -6.6 -5.98 0
v -8.7 -6.3 0
v -9.02 -6.3 0
v -9.02 -5.98 0
v -8.7 -5.98 0
v -9 -6.3 0
v -9.32 -6.3 0
v -9.32 -5.98 0
v -9 -5.98 0
v -5.7 -6.6 0
v -6.02 -6.6 0
v -6.02 -6.28 0
v -5.7 -6.28 0
v -6.3 -6.6 0
v -6.62 -6.6 0
v -6.62 -6.28 0
v -6.3 -6.28 0
v -6.6 -6.6 0
v -6.92 -6.6 0
v -6.92 -6.28 0
v -6.6 -6.28 0
v -6.9 -6.6 0
v -7.22 -6.6 0
v -7.22 -6.28 0
v -6.9 -6.28 0
v -7.2 -6.6 0
v -7.52 -6.6 0
v -7.52 -6.28 0
v -7.2 -6.28 0
v -7.5 -6.6 0
v -7.82 -6.6 0
v -7.82 -6.28 0
v -7.5 -6.28 0
v -7.8 -6.6 0
v -8.12 -6.6 0
v -8.12 -6.28 0
v -7.8 -6.28 0
v -8.099999 -6.6 0
v -8.42 -6.6 0
v -8.42 -6.28 0
v -8.099999 -6.28 0
v -8.4 -6.6 0
v -8.72 -6.6 0
v -8.72 -6.28 0
v -8.4 -6.28 0
v -8.7 -6.6 0
v -9.02 -6.6 0
v -9.02 -6.28 0
v -8.7 -6.28 0

# Texture cooridinates (Count = 36)
vt 0.03512397 0.9695817
vt 0.05165289 0.9695817
vt 0.05165289 1
vt 0.03512397 1
vt 0.01756198 0.904943
vt 0.03409091 0.904943
vt 0.03409091 0.9353612
vt 0.01756198 0.9353612
vt 0.05268595 0.9372624
vt 0.06921487 0.9372624
vt 0.06921487 0.9676806
vt 0.05268595 0.9676806
vt 0.07024793 0.9372624
vt 0.08677686 0.9372624
vt 0.08677686 0.9676806
vt 0.07024793 0.9676806
vt 0.03512397 0.9372624
vt 0.05165289 0.9372624
vt 0.05165289 0.9676806
vt 0.03512397 0.9676806
vt 0.08780992 0.9695817
vt 0.1043388 0.9695817
vt 0.1043388 1
vt 0.08780992 1
vt 0.03512397 0.904943
vt 0.05165289 0.904943
vt 0.05165289 0.9353612
vt 0.03512397 0.9353612
vt 0.05268595 0.904943
vt 0.06921487 0.904943
vt 0.06921487 0.9353612
vt 0.05268595 0.9353612
vt 0.01756198 0.9372624
vt 0.03409091 0.9372624
vt 0.03409091 0.9676806
vt 0.01756198 0.9676806

# Normal
vn 0 0 -1

# Mesh description
g 1_mesh_0002

# Faces
f 1/1/1 2/2/1 3/3/1 4/4/1
f 5/5/1 6/6/1 7/7/1 8/8/1
f 9/9/1 10/10/1 11/11/1 12/12/1
f 13/9/1 14/10/1 15/11/1 16/12/1
f 17/9/1 18/10/1 19/11/1 20/12/1
f 21/9/1 22/10/1 23/11/1 24/12/1
f 25/9/1 26/10/1 27/11/1 28/12/1
f 29/9/1 30/10/1 31/11/1 32/12/1
f 33/9/1 34/10/1 35/11/1 36/12/1
f 37/9/1 38/10/1 39/11/1 40/12/1
f 41/9/1 42/10/1 43/11/1 44/12/1
f 45/9/1 46/10/1 47/11/1 48/12/1
f 49/13/1 50/14/1 51/15/1 52/16/1
f 53/17/1 54/18/1 55/19/1 56/20/1
f 57/9/1 58/10/1 59/11/1 60/12/1
f 61/9/1 62/10/1 63/11/1 64/12/1
f 65/9/1 66/10/1 67/11/1 68/12/1
f 69/9/1 70/10/1 71/11/1 72/12/1
f 73/9/1 74/10/1 75/11/1 76/12/1
f 77/9/1 78/10/1 79/11/1 80/12/1
f 81/9/1 82/10/1 83/11/1 84/12/1
f 85/9/1 86/10/1 87/11/1 88/12/1
f 89/9/1 90/10/1 91/11/1 92/12/1
f 93/9/1 94/10/1 95/11/1 96/12/1
f 97/9/1 98/10/1 99/11/1 100/12/1
f 101/13/1 102/14/1 103/15/1 104/16/1
f 105/21/1 106/22/1 107/23/1 108/24/1
f 109/25/1 110/26/1 111/27/1 112/28/1
f 113/29/1 114/30/1 115/31/1 116/32/1
f 117/33/1 118/34/1 119/35/1 120/36/1
f 121/13/1 122/14/1 123/15/1 124/16/1
f 125/21/1 126/22/1 127/23/1 128/24/1
f 129/21/1 130/22/1 131/23/1 132/24/1
f 133/25/1 134/26/1 135/27/1 136/28/1
f 137/17/1 138/18/1 139/19/1 140/20/1
f 141/9/1 142/10/1 143/11/1 144/12/1
f 145/9/1 146/10/1 147/11/1 148/12/1
f 149/9/1 150/10/1 151/11/1 152/12/1
f 153/9/1 154/10/1 155/11/1 156/12/1
f 157/9/1 158/10/1 159/11/1 160/12/1
f 161/9/1 162/10/1 163/11/1 164/12/1
f 165/13/1 166/14/1 167/15/1 168/16/1

