# Tiled2Unity generated file. Do not modify by hand.
# Wavefront file for '1_mesh_0003.obj'

# Vertices (Count = 932)
v -1.8 -0.3 0
v -2.12 -0.3 0
v -2.12 0.02 0
v -1.8 0.02 0
v -2.1 -0.3 0
v -2.42 -0.3 0
v -2.42 0.02 0
v -2.1 0.02 0
v -2.4 -0.3 0
v -2.72 -0.3 0
v -2.72 0.02 0
v -2.4 0.02 0
v -2.7 -0.3 0
v -3.02 -0.3 0
v -3.02 0.02 0
v -2.7 0.02 0
v -3 -0.3 0
v -3.32 -0.3 0
v -3.32 0.02 0
v -3 0.02 0
v -3.3 -0.3 0
v -3.62 -0.3 0
v -3.62 0.02 0
v -3.3 0.02 0
v -3.6 -0.3 0
v -3.92 -0.3 0
v -3.92 0.02 0
v -3.6 0.02 0
v -3.9 -0.3 0
v -4.22 -0.3 0
v -4.22 0.02 0
v -3.9 0.02 0
v -4.2 -0.3 0
v -4.52 -0.3 0
v -4.52 0.02 0
v -4.2 0.02 0
v -4.5 -0.3 0
v -4.82 -0.3 0
v -4.82 0.02 0
v -4.5 0.02 0
v -4.8 -0.3 0
v -5.12 -0.3 0
v -5.12 0.02 0
v -4.8 0.02 0
v -5.1 -0.3 0
v -5.42 -0.3 0
v -5.42 0.02 0
v -5.1 0.02 0
v -5.4 -0.3 0
v -5.72 -0.3 0
v -5.72 0.02 0
v -5.4 0.02 0
v -5.7 -0.3 0
v -6.02 -0.3 0
v -6.02 0.02 0
v -5.7 0.02 0
v -6 -0.3 0
v -6.32 -0.3 0
v -6.32 0.02 0
v -6 0.02 0
v -6.3 -0.3 0
v -6.62 -0.3 0
v -6.62 0.02 0
v -6.3 0.02 0
v -6.6 -0.3 0
v -6.92 -0.3 0
v -6.92 0.02 0
v -6.6 0.02 0
v -6.9 -0.3 0
v -7.22 -0.3 0
v -7.22 0.02 0
v -6.9 0.02 0
v -7.2 -0.3 0
v -7.52 -0.3 0
v -7.52 0.02 0
v -7.2 0.02 0
v -7.5 -0.3 0
v -7.82 -0.3 0
v -7.82 0.02 0
v -7.5 0.02 0
v -1.8 -0.6 0
v -2.12 -0.6 0
v -2.12 -0.28 0
v -1.8 -0.28 0
v -2.1 -0.6 0
v -2.42 -0.6 0
v -2.42 -0.28 0
v -2.1 -0.28 0
v -7.5 -0.6 0
v -7.82 -0.6 0
v -7.82 -0.28 0
v -7.5 -0.28 0
v -1.2 -0.9 0
v -1.52 -0.9 0
v -1.52 -0.58 0
v -1.2 -0.58 0
v -1.5 -0.9 0
v -1.82 -0.9 0
v -1.82 -0.58 0
v -1.5 -0.58 0
v -1.8 -0.9 0
v -2.12 -0.9 0
v -2.12 -0.58 0
v -1.8 -0.58 0
v -7.5 -0.9 0
v -7.82 -0.9 0
v -7.82 -0.58 0
v -7.5 -0.58 0
v -0.9 -1.2 0
v -1.22 -1.2 0
v -1.22 -0.88 0
v -0.9 -0.88 0
v -1.2 -1.2 0
v -1.52 -1.2 0
v -1.52 -0.88 0
v -1.2 -0.88 0
v -1.5 -1.2 0
v -1.82 -1.2 0
v -1.82 -0.88 0
v -1.5 -0.88 0
v -1.8 -1.2 0
v -2.12 -1.2 0
v -2.12 -0.88 0
v -1.8 -0.88 0
v -7.5 -1.2 0
v -7.82 -1.2 0
v -7.82 -0.88 0
v -7.5 -0.88 0
v -8.4 -1.2 0
v -8.72 -1.2 0
v -8.72 -0.88 0
v -8.4 -0.88 0
v -0.9 -1.5 0
v -1.22 -1.5 0
v -1.22 -1.18 0
v -0.9 -1.18 0
v -7.5 -1.5 0
v -7.82 -1.5 0
v -7.82 -1.18 0
v -7.5 -1.18 0
v -7.8 -1.5 0
v -8.12 -1.5 0
v -8.12 -1.18 0
v -7.8 -1.18 0
v -8.099999 -1.5 0
v -8.42 -1.5 0
v -8.42 -1.18 0
v -8.099999 -1.18 0
v -8.4 -1.5 0
v -8.72 -1.5 0
v -8.72 -1.18 0
v -8.4 -1.18 0
v -0.6 -1.8 0
v -0.92 -1.8 0
v -0.92 -1.48 0
v -0.6 -1.48 0
v -2.4 -1.8 0
v -2.72 -1.8 0
v -2.72 -1.48 0
v -2.4 -1.48 0
v -2.7 -1.8 0
v -3.02 -1.8 0
v -3.02 -1.48 0
v -2.7 -1.48 0
v -3 -1.8 0
v -3.32 -1.8 0
v -3.32 -1.48 0
v -3 -1.48 0
v -3.3 -1.8 0
v -3.62 -1.8 0
v -3.62 -1.48 0
v -3.3 -1.48 0
v -3.6 -1.8 0
v -3.92 -1.8 0
v -3.92 -1.48 0
v -3.6 -1.48 0
v -3.9 -1.8 0
v -4.22 -1.8 0
v -4.22 -1.48 0
v -3.9 -1.48 0
v -4.2 -1.8 0
v -4.52 -1.8 0
v -4.52 -1.48 0
v -4.2 -1.48 0
v -4.5 -1.8 0
v -4.82 -1.8 0
v -4.82 -1.48 0
v -4.5 -1.48 0
v -4.8 -1.8 0
v -5.12 -1.8 0
v -5.12 -1.48 0
v -4.8 -1.48 0
v -5.1 -1.8 0
v -5.42 -1.8 0
v -5.42 -1.48 0
v -5.1 -1.48 0
v -5.4 -1.8 0
v -5.72 -1.8 0
v -5.72 -1.48 0
v -5.4 -1.48 0
v -5.7 -1.8 0
v -6.02 -1.8 0
v -6.02 -1.48 0
v -5.7 -1.48 0
v -6 -1.8 0
v -6.32 -1.8 0
v -6.32 -1.48 0
v -6 -1.48 0
v -6.3 -1.8 0
v -6.62 -1.8 0
v -6.62 -1.48 0
v -6.3 -1.48 0
v -7.5 -1.8 0
v -7.82 -1.8 0
v -7.82 -1.48 0
v -7.5 -1.48 0
v -7.8 -1.8 0
v -8.12 -1.8 0
v -8.12 -1.48 0
v -7.8 -1.48 0
v -8.099999 -1.8 0
v -8.42 -1.8 0
v -8.42 -1.48 0
v -8.099999 -1.48 0
v -8.4 -1.8 0
v -8.72 -1.8 0
v -8.72 -1.48 0
v -8.4 -1.48 0
v -0.6 -2.1 0
v -0.92 -2.1 0
v -0.92 -1.78 0
v -0.6 -1.78 0
v -2.4 -2.1 0
v -2.72 -2.1 0
v -2.72 -1.78 0
v -2.4 -1.78 0
v -2.7 -2.1 0
v -3.02 -2.1 0
v -3.02 -1.78 0
v -2.7 -1.78 0
v -3 -2.1 0
v -3.32 -2.1 0
v -3.32 -1.78 0
v -3 -1.78 0
v -3.3 -2.1 0
v -3.62 -2.1 0
v -3.62 -1.78 0
v -3.3 -1.78 0
v -3.6 -2.1 0
v -3.92 -2.1 0
v -3.92 -1.78 0
v -3.6 -1.78 0
v -3.9 -2.1 0
v -4.22 -2.1 0
v -4.22 -1.78 0
v -3.9 -1.78 0
v -4.2 -2.1 0
v -4.52 -2.1 0
v -4.52 -1.78 0
v -4.2 -1.78 0
v -4.5 -2.1 0
v -4.82 -2.1 0
v -4.82 -1.78 0
v -4.5 -1.78 0
v -4.8 -2.1 0
v -5.12 -2.1 0
v -5.12 -1.78 0
v -4.8 -1.78 0
v -5.1 -2.1 0
v -5.42 -2.1 0
v -5.42 -1.78 0
v -5.1 -1.78 0
v -5.4 -2.1 0
v -5.72 -2.1 0
v -5.72 -1.78 0
v -5.4 -1.78 0
v -5.7 -2.1 0
v -6.02 -2.1 0
v -6.02 -1.78 0
v -5.7 -1.78 0
v -6 -2.1 0
v -6.32 -2.1 0
v -6.32 -1.78 0
v -6 -1.78 0
v -6.3 -2.1 0
v -6.62 -2.1 0
v -6.62 -1.78 0
v -6.3 -1.78 0
v -8.099999 -2.1 0
v -8.42 -2.1 0
v -8.42 -1.78 0
v -8.099999 -1.78 0
v -8.4 -2.1 0
v -8.72 -2.1 0
v -8.72 -1.78 0
v -8.4 -1.78 0
v -0.6 -2.4 0
v -0.92 -2.4 0
v -0.92 -2.08 0
v -0.6 -2.08 0
v -8.099999 -2.4 0
v -8.42 -2.4 0
v -8.42 -2.08 0
v -8.099999 -2.08 0
v -0.6 -2.7 0
v -0.92 -2.7 0
v -0.92 -2.38 0
v -0.6 -2.38 0
v -3 -2.7 0
v -3.32 -2.7 0
v -3.32 -2.38 0
v -3 -2.38 0
v -8.099999 -2.7 0
v -8.42 -2.7 0
v -8.42 -2.38 0
v -8.099999 -2.38 0
v -8.4 -2.7 0
v -8.72 -2.7 0
v -8.72 -2.38 0
v -8.4 -2.38 0
v -8.7 -2.7 0
v -9.02 -2.7 0
v -9.02 -2.38 0
v -8.7 -2.38 0
v -9 -2.7 0
v -9.32 -2.7 0
v -9.32 -2.38 0
v -9 -2.38 0
v -9.3 -2.7 0
v -9.62 -2.7 0
v -9.62 -2.38 0
v -9.3 -2.38 0
v -9.599999 -2.7 0
v -9.92 -2.7 0
v -9.92 -2.38 0
v -9.599999 -2.38 0
v -9.9 -2.7 0
v -10.22 -2.7 0
v -10.22 -2.38 0
v -9.9 -2.38 0
v -0.6 -3 0
v -0.92 -3 0
v -0.92 -2.68 0
v -0.6 -2.68 0
v -8.099999 -3 0
v -8.42 -3 0
v -8.42 -2.68 0
v -8.099999 -2.68 0
v -8.4 -3 0
v -8.72 -3 0
v -8.72 -2.68 0
v -8.4 -2.68 0
v -8.7 -3 0
v -9.02 -3 0
v -9.02 -2.68 0
v -8.7 -2.68 0
v -9 -3 0
v -9.32 -3 0
v -9.32 -2.68 0
v -9 -2.68 0
v -9.3 -3 0
v -9.62 -3 0
v -9.62 -2.68 0
v -9.3 -2.68 0
v -9.599999 -3 0
v -9.92 -3 0
v -9.92 -2.68 0
v -9.599999 -2.68 0
v -9.9 -3 0
v -10.22 -3 0
v -10.22 -2.68 0
v -9.9 -2.68 0
v -0.6 -3.3 0
v -0.92 -3.3 0
v -0.92 -2.98 0
v -0.6 -2.98 0
v -9.9 -3.3 0
v -10.22 -3.3 0
v -10.22 -2.98 0
v -9.9 -2.98 0
v -0.6 -3.6 0
v -0.92 -3.6 0
v -0.92 -3.28 0
v -0.6 -3.28 0
v -9.9 -3.6 0
v -10.22 -3.6 0
v -10.22 -3.28 0
v -9.9 -3.28 0
v -10.2 -3.6 0
v -10.52 -3.6 0
v -10.52 -3.28 0
v -10.2 -3.28 0
v -0.6 -3.9 0
v -0.92 -3.9 0
v -0.92 -3.58 0
v -0.6 -3.58 0
v -9.9 -3.9 0
v -10.22 -3.9 0
v -10.22 -3.58 0
v -9.9 -3.58 0
v -10.2 -3.9 0
v -10.52 -3.9 0
v -10.52 -3.58 0
v -10.2 -3.58 0
v -0.3 -4.2 0
v -0.62 -4.2 0
v -0.62 -3.88 0
v -0.3 -3.88 0
v -6.3 -4.2 0
v -6.62 -4.2 0
v -6.62 -3.88 0
v -6.3 -3.88 0
v -9.9 -4.2 0
v -10.22 -4.2 0
v -10.22 -3.88 0
v -9.9 -3.88 0
v -10.2 -4.2 0
v -10.52 -4.2 0
v -10.52 -3.88 0
v -10.2 -3.88 0
v -0.3 -4.5 0
v -0.62 -4.5 0
v -0.62 -4.18 0
v -0.3 -4.18 0
v -1.8 -4.5 0
v -2.12 -4.5 0
v -2.12 -4.18 0
v -1.8 -4.18 0
v -9.9 -4.5 0
v -10.22 -4.5 0
v -10.22 -4.18 0
v -9.9 -4.18 0
v -10.2 -4.5 0
v -10.52 -4.5 0
v -10.52 -4.18 0
v -10.2 -4.18 0
v -0.3 -4.8 0
v -0.62 -4.8 0
v -0.62 -4.48 0
v -0.3 -4.48 0
v -9.9 -4.8 0
v -10.22 -4.8 0
v -10.22 -4.48 0
v -9.9 -4.48 0
v -10.2 -4.8 0
v -10.52 -4.8 0
v -10.52 -4.48 0
v -10.2 -4.48 0
v -0.3 -5.1 0
v -0.62 -5.1 0
v -0.62 -4.78 0
v -0.3 -4.78 0
v -0.6 -5.1 0
v -0.92 -5.1 0
v -0.92 -4.78 0
v -0.6 -4.78 0
v -9.9 -5.1 0
v -10.22 -5.1 0
v -10.22 -4.78 0
v -9.9 -4.78 0
v -10.2 -5.1 0
v -10.52 -5.1 0
v -10.52 -4.78 0
v -10.2 -4.78 0
v -0.6 -5.4 0
v -0.92 -5.4 0
v -0.92 -5.08 0
v -0.6 -5.08 0
v -9.9 -5.4 0
v -10.22 -5.4 0
v -10.22 -5.08 0
v -9.9 -5.08 0
v -0.6 -5.7 0
v -0.92 -5.7 0
v -0.92 -5.38 0
v -0.6 -5.38 0
v -6.9 -5.7 0
v -7.22 -5.7 0
v -7.22 -5.38 0
v -6.9 -5.38 0
v -7.2 -5.7 0
v -7.52 -5.7 0
v -7.52 -5.38 0
v -7.2 -5.38 0
v -7.5 -5.7 0
v -7.82 -5.7 0
v -7.82 -5.38 0
v -7.5 -5.38 0
v -9.9 -5.7 0
v -10.22 -5.7 0
v -10.22 -5.38 0
v -9.9 -5.38 0
v -0.6 -6 0
v -0.92 -6 0
v -0.92 -5.68 0
v -0.6 -5.68 0
v -9.9 -6 0
v -10.22 -6 0
v -10.22 -5.68 0
v -9.9 -5.68 0
v -0.6 -6.3 0
v -0.92 -6.3 0
v -0.92 -5.98 0
v -0.6 -5.98 0
v -6 -6.3 0
v -6.32 -6.3 0
v -6.32 -5.98 0
v -6 -5.98 0
v -6.3 -6.3 0
v -6.62 -6.3 0
v -6.62 -5.98 0
v -6.3 -5.98 0
v -6.6 -6.3 0
v -6.92 -6.3 0
v -6.92 -5.98 0
v -6.6 -5.98 0
v -6.9 -6.3 0
v -7.22 -6.3 0
v -7.22 -5.98 0
v -6.9 -5.98 0
v -7.2 -6.3 0
v -7.52 -6.3 0
v -7.52 -5.98 0
v -7.2 -5.98 0
v -7.5 -6.3 0
v -7.82 -6.3 0
v -7.82 -5.98 0
v -7.5 -5.98 0
v -7.8 -6.3 0
v -8.12 -6.3 0
v -8.12 -5.98 0
v -7.8 -5.98 0
v -8.099999 -6.3 0
v -8.42 -6.3 0
v -8.42 -5.98 0
v -8.099999 -5.98 0
v -8.4 -6.3 0
v -8.72 -6.3 0
v -8.72 -5.98 0
v -8.4 -5.98 0
v -8.7 -6.3 0
v -9.02 -6.3 0
v -9.02 -5.98 0
v -8.7 -5.98 0
v -9.9 -6.3 0
v -10.22 -6.3 0
v -10.22 -5.98 0
v -9.9 -5.98 0
v -0.6 -6.6 0
v -0.92 -6.6 0
v -0.92 -6.28 0
v -0.6 -6.28 0
v -6 -6.6 0
v -6.32 -6.6 0
v -6.32 -6.28 0
v -6 -6.28 0
v -6.3 -6.6 0
v -6.62 -6.6 0
v -6.62 -6.28 0
v -6.3 -6.28 0
v -6.6 -6.6 0
v -6.92 -6.6 0
v -6.92 -6.28 0
v -6.6 -6.28 0
v -6.9 -6.6 0
v -7.22 -6.6 0
v -7.22 -6.28 0
v -6.9 -6.28 0
v -7.2 -6.6 0
v -7.52 -6.6 0
v -7.52 -6.28 0
v -7.2 -6.28 0
v -7.5 -6.6 0
v -7.82 -6.6 0
v -7.82 -6.28 0
v -7.5 -6.28 0
v -7.8 -6.6 0
v -8.12 -6.6 0
v -8.12 -6.28 0
v -7.8 -6.28 0
v -8.099999 -6.6 0
v -8.42 -6.6 0
v -8.42 -6.28 0
v -8.099999 -6.28 0
v -8.4 -6.6 0
v -8.72 -6.6 0
v -8.72 -6.28 0
v -8.4 -6.28 0
v -8.7 -6.6 0
v -9.02 -6.6 0
v -9.02 -6.28 0
v -8.7 -6.28 0
v -9.9 -6.6 0
v -10.22 -6.6 0
v -10.22 -6.28 0
v -9.9 -6.28 0
v -10.2 -6.6 0
v -10.52 -6.6 0
v -10.52 -6.28 0
v -10.2 -6.28 0
v -0.9 -6.9 0
v -1.22 -6.9 0
v -1.22 -6.58 0
v -0.9 -6.58 0
v -10.2 -6.9 0
v -10.52 -6.9 0
v -10.52 -6.58 0
v -10.2 -6.58 0
v -10.5 -6.9 0
v -10.82 -6.9 0
v -10.82 -6.58 0
v -10.5 -6.58 0
v -0.9 -7.2 0
v -1.22 -7.2 0
v -1.22 -6.88 0
v -0.9 -6.88 0
v -10.5 -7.2 0
v -10.82 -7.2 0
v -10.82 -6.88 0
v -10.5 -6.88 0
v -0.9 -7.5 0
v -1.22 -7.5 0
v -1.22 -7.18 0
v -0.9 -7.18 0
v -10.5 -7.5 0
v -10.82 -7.5 0
v -10.82 -7.18 0
v -10.5 -7.18 0
v -0.9 -7.8 0
v -1.22 -7.8 0
v -1.22 -7.48 0
v -0.9 -7.48 0
v -10.5 -7.8 0
v -10.82 -7.8 0
v -10.82 -7.48 0
v -10.5 -7.48 0
v -1.2 -8.099999 0
v -1.52 -8.099999 0
v -1.52 -7.78 0
v -1.2 -7.78 0
v -9.599999 -8.099999 0
v -9.92 -8.099999 0
v -9.92 -7.78 0
v -9.599999 -7.78 0
v -9.9 -8.099999 0
v -10.22 -8.099999 0
v -10.22 -7.78 0
v -9.9 -7.78 0
v -10.2 -8.099999 0
v -10.52 -8.099999 0
v -10.52 -7.78 0
v -10.2 -7.78 0
v -10.5 -8.099999 0
v -10.82 -8.099999 0
v -10.82 -7.78 0
v -10.5 -7.78 0
v -1.2 -8.4 0
v -1.52 -8.4 0
v -1.52 -8.08 0
v -1.2 -8.08 0
v -1.5 -8.4 0
v -1.82 -8.4 0
v -1.82 -8.08 0
v -1.5 -8.08 0
v -9.599999 -8.4 0
v -9.92 -8.4 0
v -9.92 -8.08 0
v -9.599999 -8.08 0
v -9.9 -8.4 0
v -10.22 -8.4 0
v -10.22 -8.08 0
v -9.9 -8.08 0
v -10.2 -8.4 0
v -10.52 -8.4 0
v -10.52 -8.08 0
v -10.2 -8.08 0
v -10.5 -8.4 0
v -10.82 -8.4 0
v -10.82 -8.08 0
v -10.5 -8.08 0
v -1.5 -8.7 0
v -1.82 -8.7 0
v -1.82 -8.38 0
v -1.5 -8.38 0
v -1.8 -8.7 0
v -2.12 -8.7 0
v -2.12 -8.38 0
v -1.8 -8.38 0
v -2.1 -8.7 0
v -2.42 -8.7 0
v -2.42 -8.38 0
v -2.1 -8.38 0
v -9.599999 -8.7 0
v -9.92 -8.7 0
v -9.92 -8.38 0
v -9.599999 -8.38 0
v -9.9 -8.7 0
v -10.22 -8.7 0
v -10.22 -8.38 0
v -9.9 -8.38 0
v -1.8 -9 0
v -2.12 -9 0
v -2.12 -8.679999 0
v -1.8 -8.679999 0
v -2.1 -9 0
v -2.42 -9 0
v -2.42 -8.679999 0
v -2.1 -8.679999 0
v -2.4 -9 0
v -2.72 -9 0
v -2.72 -8.679999 0
v -2.4 -8.679999 0
v -9.599999 -9 0
v -9.92 -9 0
v -9.92 -8.679999 0
v -9.599999 -8.679999 0
v -9.9 -9 0
v -10.22 -9 0
v -10.22 -8.679999 0
v -9.9 -8.679999 0
v -2.4 -9.3 0
v -2.72 -9.3 0
v -2.72 -8.98 0
v -2.4 -8.98 0
v -2.7 -9.3 0
v -3.02 -9.3 0
v -3.02 -8.98 0
v -2.7 -8.98 0
v -9.9 -9.3 0
v -10.22 -9.3 0
v -10.22 -8.98 0
v -9.9 -8.98 0
v -2.7 -9.599999 0
v -3.02 -9.599999 0
v -3.02 -9.28 0
v -2.7 -9.28 0
v -9.9 -9.599999 0
v -10.22 -9.599999 0
v -10.22 -9.28 0
v -9.9 -9.28 0
v -3 -9.9 0
v -3.32 -9.9 0
v -3.32 -9.58 0
v -3 -9.58 0
v -3.3 -9.9 0
v -3.62 -9.9 0
v -3.62 -9.58 0
v -3.3 -9.58 0
v -3.6 -9.9 0
v -3.92 -9.9 0
v -3.92 -9.58 0
v -3.6 -9.58 0
v -3.9 -9.9 0
v -4.22 -9.9 0
v -4.22 -9.58 0
v -3.9 -9.58 0
v -4.2 -9.9 0
v -4.52 -9.9 0
v -4.52 -9.58 0
v -4.2 -9.58 0
v -4.5 -9.9 0
v -4.82 -9.9 0
v -4.82 -9.58 0
v -4.5 -9.58 0
v -4.8 -9.9 0
v -5.12 -9.9 0
v -5.12 -9.58 0
v -4.8 -9.58 0
v -5.1 -9.9 0
v -5.42 -9.9 0
v -5.42 -9.58 0
v -5.1 -9.58 0
v -5.4 -9.9 0
v -5.72 -9.9 0
v -5.72 -9.58 0
v -5.4 -9.58 0
v -5.7 -9.9 0
v -6.02 -9.9 0
v -6.02 -9.58 0
v -5.7 -9.58 0
v -6 -9.9 0
v -6.32 -9.9 0
v -6.32 -9.58 0
v -6 -9.58 0
v -6.3 -9.9 0
v -6.62 -9.9 0
v -6.62 -9.58 0
v -6.3 -9.58 0
v -6.6 -9.9 0
v -6.92 -9.9 0
v -6.92 -9.58 0
v -6.6 -9.58 0
v -6.9 -9.9 0
v -7.22 -9.9 0
v -7.22 -9.58 0
v -6.9 -9.58 0
v -7.2 -9.9 0
v -7.52 -9.9 0
v -7.52 -9.58 0
v -7.2 -9.58 0
v -7.5 -9.9 0
v -7.82 -9.9 0
v -7.82 -9.58 0
v -7.5 -9.58 0
v -7.8 -9.9 0
v -8.12 -9.9 0
v -8.12 -9.58 0
v -7.8 -9.58 0
v -8.099999 -9.9 0
v -8.42 -9.9 0
v -8.42 -9.58 0
v -8.099999 -9.58 0
v -8.4 -9.9 0
v -8.72 -9.9 0
v -8.72 -9.58 0
v -8.4 -9.58 0
v -8.7 -9.9 0
v -9.02 -9.9 0
v -9.02 -9.58 0
v -8.7 -9.58 0
v -9 -9.9 0
v -9.32 -9.9 0
v -9.32 -9.58 0
v -9 -9.58 0
v -9.3 -9.9 0
v -9.62 -9.9 0
v -9.62 -9.58 0
v -9.3 -9.58 0
v -9.599999 -9.9 0
v -9.92 -9.9 0
v -9.92 -9.58 0
v -9.599999 -9.58 0
v -9.9 -9.9 0
v -10.22 -9.9 0
v -10.22 -9.58 0
v -9.9 -9.58 0
v -3 -10.2 0
v -3.32 -10.2 0
v -3.32 -9.88 0
v -3 -9.88 0
v -3.3 -10.2 0
v -3.62 -10.2 0
v -3.62 -9.88 0
v -3.3 -9.88 0
v -3.6 -10.2 0
v -3.92 -10.2 0
v -3.92 -9.88 0
v -3.6 -9.88 0
v -3.9 -10.2 0
v -4.22 -10.2 0
v -4.22 -9.88 0
v -3.9 -9.88 0
v -4.2 -10.2 0
v -4.52 -10.2 0
v -4.52 -9.88 0
v -4.2 -9.88 0
v -4.5 -10.2 0
v -4.82 -10.2 0
v -4.82 -9.88 0
v -4.5 -9.88 0
v -4.8 -10.2 0
v -5.12 -10.2 0
v -5.12 -9.88 0
v -4.8 -9.88 0
v -5.1 -10.2 0
v -5.42 -10.2 0
v -5.42 -9.88 0
v -5.1 -9.88 0
v -5.4 -10.2 0
v -5.72 -10.2 0
v -5.72 -9.88 0
v -5.4 -9.88 0
v -5.7 -10.2 0
v -6.02 -10.2 0
v -6.02 -9.88 0
v -5.7 -9.88 0
v -6 -10.2 0
v -6.32 -10.2 0
v -6.32 -9.88 0
v -6 -9.88 0
v -6.3 -10.2 0
v -6.62 -10.2 0
v -6.62 -9.88 0
v -6.3 -9.88 0
v -6.6 -10.2 0
v -6.92 -10.2 0
v -6.92 -9.88 0
v -6.6 -9.88 0
v -6.9 -10.2 0
v -7.22 -10.2 0
v -7.22 -9.88 0
v -6.9 -9.88 0
v -7.2 -10.2 0
v -7.52 -10.2 0
v -7.52 -9.88 0
v -7.2 -9.88 0
v -7.5 -10.2 0
v -7.82 -10.2 0
v -7.82 -9.88 0
v -7.5 -9.88 0
v -7.8 -10.2 0
v -8.12 -10.2 0
v -8.12 -9.88 0
v -7.8 -9.88 0
v -8.099999 -10.2 0
v -8.42 -10.2 0
v -8.42 -9.88 0
v -8.099999 -9.88 0
v -8.4 -10.2 0
v -8.72 -10.2 0
v -8.72 -9.88 0
v -8.4 -9.88 0
v -8.7 -10.2 0
v -9.02 -10.2 0
v -9.02 -9.88 0
v -8.7 -9.88 0
v -9 -10.2 0
v -9.32 -10.2 0
v -9.32 -9.88 0
v -9 -9.88 0
v -9.3 -10.2 0
v -9.62 -10.2 0
v -9.62 -9.88 0
v -9.3 -9.88 0
v -9.599999 -10.2 0
v -9.92 -10.2 0
v -9.92 -9.88 0
v -9.599999 -9.88 0
v -9.9 -10.2 0
v -10.22 -10.2 0
v -10.22 -9.88 0
v -9.9 -9.88 0

# Texture cooridinates (Count = 40)
vt 0.3161157 0.6463878
vt 0.3326446 0.6463878
vt 0.3326446 0.6768061
vt 0.3161157 0.6768061
vt 0.3161157 0.6140684
vt 0.3326446 0.6140684
vt 0.3326446 0.6444867
vt 0.3161157 0.6444867
vt 0.9307851 0.5817491
vt 0.947314 0.5817491
vt 0.947314 0.6121673
vt 0.9307851 0.6121673
vt 0.9307851 0.5494297
vt 0.947314 0.5494297
vt 0.947314 0.5798479
vt 0.9307851 0.5798479
vt 0.9307851 0.5171102
vt 0.947314 0.5171102
vt 0.947314 0.5475285
vt 0.9307851 0.5475285
vt 0.9659091 0.1939163
vt 0.982438 0.1939163
vt 0.982438 0.2243346
vt 0.9659091 0.2243346
vt 0.9132231 0.4524715
vt 0.9297521 0.4524715
vt 0.9297521 0.4828897
vt 0.9132231 0.4828897
vt 0.9307851 0.4201521
vt 0.947314 0.4201521
vt 0.947314 0.4505703
vt 0.9307851 0.4505703
vt 0.9307851 0.3878327
vt 0.947314 0.3878327
vt 0.947314 0.418251
vt 0.9307851 0.418251
vt 0.9307851 0.4847909
vt 0.947314 0.4847909
vt 0.947314 0.5152091
vt 0.9307851 0.5152091

# Normal
vn 0 0 -1

# Mesh description
g 1_mesh_0003

# Faces
f 1/1/1 2/2/1 3/3/1 4/4/1
f 5/1/1 6/2/1 7/3/1 8/4/1
f 9/5/1 10/6/1 11/7/1 12/8/1
f 13/5/1 14/6/1 15/7/1 16/8/1
f 17/5/1 18/6/1 19/7/1 20/8/1
f 21/5/1 22/6/1 23/7/1 24/8/1
f 25/5/1 26/6/1 27/7/1 28/8/1
f 29/5/1 30/6/1 31/7/1 32/8/1
f 33/5/1 34/6/1 35/7/1 36/8/1
f 37/5/1 38/6/1 39/7/1 40/8/1
f 41/5/1 42/6/1 43/7/1 44/8/1
f 45/5/1 46/6/1 47/7/1 48/8/1
f 49/5/1 50/6/1 51/7/1 52/8/1
f 53/5/1 54/6/1 55/7/1 56/8/1
f 57/5/1 58/6/1 59/7/1 60/8/1
f 61/5/1 62/6/1 63/7/1 64/8/1
f 65/5/1 66/6/1 67/7/1 68/8/1
f 69/5/1 70/6/1 71/7/1 72/8/1
f 73/5/1 74/6/1 75/7/1 76/8/1
f 77/1/1 78/2/1 79/3/1 80/4/1
f 81/5/1 82/6/1 83/7/1 84/8/1
f 85/5/1 86/6/1 87/7/1 88/8/1
f 89/5/1 90/6/1 91/7/1 92/8/1
f 93/1/1 94/2/1 95/3/1 96/4/1
f 97/1/1 98/2/1 99/3/1 100/4/1
f 101/1/1 102/2/1 103/3/1 104/4/1
f 105/1/1 106/2/1 107/3/1 108/4/1
f 109/1/1 110/2/1 111/3/1 112/4/1
f 113/5/1 114/6/1 115/7/1 116/8/1
f 117/5/1 118/6/1 119/7/1 120/8/1
f 121/5/1 122/6/1 123/7/1 124/8/1
f 125/5/1 126/6/1 127/7/1 128/8/1
f 129/1/1 130/2/1 131/3/1 132/4/1
f 133/5/1 134/6/1 135/7/1 136/8/1
f 137/1/1 138/2/1 139/3/1 140/4/1
f 141/1/1 142/2/1 143/3/1 144/4/1
f 145/1/1 146/2/1 147/3/1 148/4/1
f 149/5/1 150/6/1 151/7/1 152/8/1
f 153/1/1 154/2/1 155/3/1 156/4/1
f 157/9/1 158/10/1 159/11/1 160/12/1
f 161/13/1 162/14/1 163/15/1 164/16/1
f 165/13/1 166/14/1 167/15/1 168/16/1
f 169/13/1 170/14/1 171/15/1 172/16/1
f 173/13/1 174/14/1 175/15/1 176/16/1
f 177/13/1 178/14/1 179/15/1 180/16/1
f 181/13/1 182/14/1 183/15/1 184/16/1
f 185/13/1 186/14/1 187/15/1 188/16/1
f 189/13/1 190/14/1 191/15/1 192/16/1
f 193/13/1 194/14/1 195/15/1 196/16/1
f 197/13/1 198/14/1 199/15/1 200/16/1
f 201/13/1 202/14/1 203/15/1 204/16/1
f 205/17/1 206/18/1 207/19/1 208/20/1
f 209/17/1 210/18/1 211/19/1 212/20/1
f 213/5/1 214/6/1 215/7/1 216/8/1
f 217/5/1 218/6/1 219/7/1 220/8/1
f 221/5/1 222/6/1 223/7/1 224/8/1
f 225/1/1 226/2/1 227/3/1 228/4/1
f 229/5/1 230/6/1 231/7/1 232/8/1
f 233/9/1 234/10/1 235/11/1 236/12/1
f 237/13/1 238/14/1 239/15/1 240/16/1
f 241/13/1 242/14/1 243/15/1 244/16/1
f 245/13/1 246/14/1 247/15/1 248/16/1
f 249/13/1 250/14/1 251/15/1 252/16/1
f 253/13/1 254/14/1 255/15/1 256/16/1
f 257/13/1 258/14/1 259/15/1 260/16/1
f 261/13/1 262/14/1 263/15/1 264/16/1
f 265/13/1 266/14/1 267/15/1 268/16/1
f 269/13/1 270/14/1 271/15/1 272/16/1
f 273/13/1 274/14/1 275/15/1 276/16/1
f 277/13/1 278/14/1 279/15/1 280/16/1
f 281/17/1 282/18/1 283/19/1 284/20/1
f 285/17/1 286/18/1 287/19/1 288/20/1
f 289/1/1 290/2/1 291/3/1 292/4/1
f 293/5/1 294/6/1 295/7/1 296/8/1
f 297/1/1 298/2/1 299/3/1 300/4/1
f 301/5/1 302/6/1 303/7/1 304/8/1
f 305/5/1 306/6/1 307/7/1 308/8/1
f 309/21/1 310/22/1 311/23/1 312/24/1
f 313/1/1 314/2/1 315/3/1 316/4/1
f 317/1/1 318/2/1 319/3/1 320/4/1
f 321/1/1 322/2/1 323/3/1 324/4/1
f 325/1/1 326/2/1 327/3/1 328/4/1
f 329/1/1 330/2/1 331/3/1 332/4/1
f 333/1/1 334/2/1 335/3/1 336/4/1
f 337/1/1 338/2/1 339/3/1 340/4/1
f 341/1/1 342/2/1 343/3/1 344/4/1
f 345/5/1 346/6/1 347/7/1 348/8/1
f 349/5/1 350/6/1 351/7/1 352/8/1
f 353/5/1 354/6/1 355/7/1 356/8/1
f 357/5/1 358/6/1 359/7/1 360/8/1
f 361/5/1 362/6/1 363/7/1 364/8/1
f 365/5/1 366/6/1 367/7/1 368/8/1
f 369/5/1 370/6/1 371/7/1 372/8/1
f 373/5/1 374/6/1 375/7/1 376/8/1
f 377/1/1 378/2/1 379/3/1 380/4/1
f 381/1/1 382/2/1 383/3/1 384/4/1
f 385/5/1 386/6/1 387/7/1 388/8/1
f 389/1/1 390/2/1 391/3/1 392/4/1
f 393/5/1 394/6/1 395/7/1 396/8/1
f 397/1/1 398/2/1 399/3/1 400/4/1
f 401/5/1 402/6/1 403/7/1 404/8/1
f 405/1/1 406/2/1 407/3/1 408/4/1
f 409/21/1 410/22/1 411/23/1 412/24/1
f 413/5/1 414/6/1 415/7/1 416/8/1
f 417/1/1 418/2/1 419/3/1 420/4/1
f 421/5/1 422/6/1 423/7/1 424/8/1
f 425/25/1 426/26/1 427/27/1 428/28/1
f 429/1/1 430/2/1 431/3/1 432/4/1
f 433/5/1 434/6/1 435/7/1 436/8/1
f 437/1/1 438/2/1 439/3/1 440/4/1
f 441/5/1 442/6/1 443/7/1 444/8/1
f 445/1/1 446/2/1 447/3/1 448/4/1
f 449/5/1 450/6/1 451/7/1 452/8/1
f 453/1/1 454/2/1 455/3/1 456/4/1
f 457/1/1 458/2/1 459/3/1 460/4/1
f 461/5/1 462/6/1 463/7/1 464/8/1
f 465/5/1 466/6/1 467/7/1 468/8/1
f 469/5/1 470/6/1 471/7/1 472/8/1
f 473/1/1 474/2/1 475/3/1 476/4/1
f 477/29/1 478/30/1 479/31/1 480/32/1
f 481/33/1 482/34/1 483/35/1 484/36/1
f 485/37/1 486/38/1 487/39/1 488/40/1
f 489/1/1 490/2/1 491/3/1 492/4/1
f 493/5/1 494/6/1 495/7/1 496/8/1
f 497/5/1 498/6/1 499/7/1 500/8/1
f 501/1/1 502/2/1 503/3/1 504/4/1
f 505/9/1 506/10/1 507/11/1 508/12/1
f 509/13/1 510/14/1 511/15/1 512/16/1
f 513/13/1 514/14/1 515/15/1 516/16/1
f 517/13/1 518/14/1 519/15/1 520/16/1
f 521/13/1 522/14/1 523/15/1 524/16/1
f 525/13/1 526/14/1 527/15/1 528/16/1
f 529/13/1 530/14/1 531/15/1 532/16/1
f 533/13/1 534/14/1 535/15/1 536/16/1
f 537/13/1 538/14/1 539/15/1 540/16/1
f 541/17/1 542/18/1 543/19/1 544/20/1
f 545/1/1 546/2/1 547/3/1 548/4/1
f 549/5/1 550/6/1 551/7/1 552/8/1
f 553/9/1 554/10/1 555/11/1 556/12/1
f 557/13/1 558/14/1 559/15/1 560/16/1
f 561/13/1 562/14/1 563/15/1 564/16/1
f 565/13/1 566/14/1 567/15/1 568/16/1
f 569/13/1 570/14/1 571/15/1 572/16/1
f 573/13/1 574/14/1 575/15/1 576/16/1
f 577/13/1 578/14/1 579/15/1 580/16/1
f 581/13/1 582/14/1 583/15/1 584/16/1
f 585/13/1 586/14/1 587/15/1 588/16/1
f 589/17/1 590/18/1 591/19/1 592/20/1
f 593/5/1 594/6/1 595/7/1 596/8/1
f 597/1/1 598/2/1 599/3/1 600/4/1
f 601/1/1 602/2/1 603/3/1 604/4/1
f 605/5/1 606/6/1 607/7/1 608/8/1
f 609/1/1 610/2/1 611/3/1 612/4/1
f 613/5/1 614/6/1 615/7/1 616/8/1
f 617/5/1 618/6/1 619/7/1 620/8/1
f 621/1/1 622/2/1 623/3/1 624/4/1
f 625/1/1 626/2/1 627/3/1 628/4/1
f 629/5/1 630/6/1 631/7/1 632/8/1
f 633/5/1 634/6/1 635/7/1 636/8/1
f 637/1/1 638/2/1 639/3/1 640/4/1
f 641/1/1 642/2/1 643/3/1 644/4/1
f 645/1/1 646/2/1 647/3/1 648/4/1
f 649/1/1 650/2/1 651/3/1 652/4/1
f 653/1/1 654/2/1 655/3/1 656/4/1
f 657/5/1 658/6/1 659/7/1 660/8/1
f 661/1/1 662/2/1 663/3/1 664/4/1
f 665/5/1 666/6/1 667/7/1 668/8/1
f 669/5/1 670/6/1 671/7/1 672/8/1
f 673/5/1 674/6/1 675/7/1 676/8/1
f 677/5/1 678/6/1 679/7/1 680/8/1
f 681/5/1 682/6/1 683/7/1 684/8/1
f 685/1/1 686/2/1 687/3/1 688/4/1
f 689/1/1 690/2/1 691/3/1 692/4/1
f 693/1/1 694/2/1 695/3/1 696/4/1
f 697/1/1 698/2/1 699/3/1 700/4/1
f 701/5/1 702/6/1 703/7/1 704/8/1
f 705/5/1 706/6/1 707/7/1 708/8/1
f 709/1/1 710/2/1 711/3/1 712/4/1
f 713/5/1 714/6/1 715/7/1 716/8/1
f 717/5/1 718/6/1 719/7/1 720/8/1
f 721/5/1 722/6/1 723/7/1 724/8/1
f 725/1/1 726/2/1 727/3/1 728/4/1
f 729/5/1 730/6/1 731/7/1 732/8/1
f 733/5/1 734/6/1 735/7/1 736/8/1
f 737/5/1 738/6/1 739/7/1 740/8/1
f 741/1/1 742/2/1 743/3/1 744/4/1
f 745/1/1 746/2/1 747/3/1 748/4/1
f 749/1/1 750/2/1 751/3/1 752/4/1
f 753/1/1 754/2/1 755/3/1 756/4/1
f 757/1/1 758/2/1 759/3/1 760/4/1
f 761/1/1 762/2/1 763/3/1 764/4/1
f 765/1/1 766/2/1 767/3/1 768/4/1
f 769/1/1 770/2/1 771/3/1 772/4/1
f 773/1/1 774/2/1 775/3/1 776/4/1
f 777/1/1 778/2/1 779/3/1 780/4/1
f 781/1/1 782/2/1 783/3/1 784/4/1
f 785/1/1 786/2/1 787/3/1 788/4/1
f 789/1/1 790/2/1 791/3/1 792/4/1
f 793/1/1 794/2/1 795/3/1 796/4/1
f 797/1/1 798/2/1 799/3/1 800/4/1
f 801/1/1 802/2/1 803/3/1 804/4/1
f 805/1/1 806/2/1 807/3/1 808/4/1
f 809/1/1 810/2/1 811/3/1 812/4/1
f 813/1/1 814/2/1 815/3/1 816/4/1
f 817/1/1 818/2/1 819/3/1 820/4/1
f 821/1/1 822/2/1 823/3/1 824/4/1
f 825/1/1 826/2/1 827/3/1 828/4/1
f 829/1/1 830/2/1 831/3/1 832/4/1
f 833/1/1 834/2/1 835/3/1 836/4/1
f 837/5/1 838/6/1 839/7/1 840/8/1
f 841/5/1 842/6/1 843/7/1 844/8/1
f 845/5/1 846/6/1 847/7/1 848/8/1
f 849/5/1 850/6/1 851/7/1 852/8/1
f 853/5/1 854/6/1 855/7/1 856/8/1
f 857/5/1 858/6/1 859/7/1 860/8/1
f 861/5/1 862/6/1 863/7/1 864/8/1
f 865/5/1 866/6/1 867/7/1 868/8/1
f 869/5/1 870/6/1 871/7/1 872/8/1
f 873/5/1 874/6/1 875/7/1 876/8/1
f 877/5/1 878/6/1 879/7/1 880/8/1
f 881/5/1 882/6/1 883/7/1 884/8/1
f 885/5/1 886/6/1 887/7/1 888/8/1
f 889/5/1 890/6/1 891/7/1 892/8/1
f 893/5/1 894/6/1 895/7/1 896/8/1
f 897/5/1 898/6/1 899/7/1 900/8/1
f 901/5/1 902/6/1 903/7/1 904/8/1
f 905/5/1 906/6/1 907/7/1 908/8/1
f 909/5/1 910/6/1 911/7/1 912/8/1
f 913/5/1 914/6/1 915/7/1 916/8/1
f 917/5/1 918/6/1 919/7/1 920/8/1
f 921/5/1 922/6/1 923/7/1 924/8/1
f 925/5/1 926/6/1 927/7/1 928/8/1
f 929/5/1 930/6/1 931/7/1 932/8/1

