# Tiled2Unity generated file. Do not modify by hand.
# Wavefront file for 'c1_mesh_0004.obj'

# Vertices (Count = 8)
v -2.7 -3.9 0
v -3.02 -3.9 0
v -3.02 -3.58 0
v -2.7 -3.58 0
v -3.6 -3.9 0
v -3.92 -3.9 0
v -3.92 -3.58 0
v -3.6 -3.58 0

# Texture cooridinates (Count = 8)
vt 0.5182927 0.390164
vt 0.550813 0.390164
vt 0.550813 0.442623
vt 0.5182927 0.442623
vt 0.449187 0.1114754
vt 0.4817073 0.1114754
vt 0.4817073 0.1639344
vt 0.449187 0.1639344

# Normal
vn 0 0 -1

# Mesh description
g c1_mesh_0004

# Faces
f 1/1/1 2/2/1 3/3/1 4/4/1
f 5/5/1 6/6/1 7/7/1 8/8/1

