# Tiled2Unity generated file. Do not modify by hand.
# Wavefront file for 'c7_mesh_0003.obj'

# Vertices (Count = 44)
v -2.7 -3 0
v -3.02 -3 0
v -3.02 -2.68 0
v -2.7 -2.68 0
v -7.5 -3 0
v -7.82 -3 0
v -7.82 -2.68 0
v -7.5 -2.68 0
v -9 -3 0
v -9.32 -3 0
v -9.32 -2.68 0
v -9 -2.68 0
v -7.5 -3.3 0
v -7.82 -3.3 0
v -7.82 -2.98 0
v -7.5 -2.98 0
v -3.9 -3.9 0
v -4.22 -3.9 0
v -4.22 -3.58 0
v -3.9 -3.58 0
v -9 -5.1 0
v -9.32 -5.1 0
v -9.32 -4.78 0
v -9 -4.78 0
v -9 -5.4 0
v -9.32 -5.4 0
v -9.32 -5.08 0
v -9 -5.08 0
v -10.5 -7.2 0
v -10.82 -7.2 0
v -10.82 -6.88 0
v -10.5 -6.88 0
v -8.7 -8.099999 0
v -9.02 -8.099999 0
v -9.02 -7.78 0
v -8.7 -7.78 0
v -10.2 -9.599999 0
v -10.52 -9.599999 0
v -10.52 -9.28 0
v -10.2 -9.28 0
v -11.1 -10.8 0
v -11.42 -10.8 0
v -11.42 -10.48 0
v -11.1 -10.48 0

# Texture cooridinates (Count = 24)
vt 0.595186 0.557377
vt 0.6301969 0.557377
vt 0.6301969 0.6098361
vt 0.595186 0.6098361
vt 0.8183808 0.1672131
vt 0.8533917 0.1672131
vt 0.8533917 0.2196721
vt 0.8183808 0.2196721
vt 0.6323851 0.6688524
vt 0.6673961 0.6688524
vt 0.6673961 0.7213115
vt 0.6323851 0.7213115
vt 0.8183808 0.1114754
vt 0.8533917 0.1114754
vt 0.8533917 0.1639344
vt 0.8183808 0.1639344
vt 0.6323851 0.7803279
vt 0.6673961 0.7803279
vt 0.6673961 0.8327869
vt 0.6323851 0.8327869
vt 0.7811816 0.6688524
vt 0.8161926 0.6688524
vt 0.8161926 0.7213115
vt 0.7811816 0.7213115

# Normal
vn 0 0 -1

# Mesh description
g c7_mesh_0003

# Faces
f 1/1/1 2/2/1 3/3/1 4/4/1
f 5/5/1 6/6/1 7/7/1 8/8/1
f 9/9/1 10/10/1 11/11/1 12/12/1
f 13/13/1 14/14/1 15/15/1 16/16/1
f 17/17/1 18/18/1 19/19/1 20/20/1
f 21/17/1 22/18/1 23/19/1 24/20/1
f 25/21/1 26/22/1 27/23/1 28/24/1
f 29/1/1 30/2/1 31/3/1 32/4/1
f 33/17/1 34/18/1 35/19/1 36/20/1
f 37/1/1 38/2/1 39/3/1 40/4/1
f 41/17/1 42/18/1 43/19/1 44/20/1

