# Tiled2Unity generated file. Do not modify by hand.
# Wavefront file for 'b3_mesh_0004.obj'

# Vertices (Count = 232)
v -4.5 -2.1 0
v -4.82 -2.1 0
v -4.82 -1.78 0
v -4.5 -1.78 0
v -3.3 -3.3 0
v -3.62 -3.3 0
v -3.62 -2.98 0
v -3.3 -2.98 0
v -3.3 -3.6 0
v -3.62 -3.6 0
v -3.62 -3.28 0
v -3.3 -3.28 0
v -4.8 -3.6 0
v -5.12 -3.6 0
v -5.12 -3.28 0
v -4.8 -3.28 0
v -5.1 -3.6 0
v -5.42 -3.6 0
v -5.42 -3.28 0
v -5.1 -3.28 0
v -5.4 -3.6 0
v -5.72 -3.6 0
v -5.72 -3.28 0
v -5.4 -3.28 0
v -5.7 -3.6 0
v -6.02 -3.6 0
v -6.02 -3.28 0
v -5.7 -3.28 0
v -6 -3.6 0
v -6.32 -3.6 0
v -6.32 -3.28 0
v -6 -3.28 0
v -6.3 -3.6 0
v -6.62 -3.6 0
v -6.62 -3.28 0
v -6.3 -3.28 0
v -6.6 -3.6 0
v -6.92 -3.6 0
v -6.92 -3.28 0
v -6.6 -3.28 0
v -6.9 -3.6 0
v -7.22 -3.6 0
v -7.22 -3.28 0
v -6.9 -3.28 0
v -7.2 -3.6 0
v -7.52 -3.6 0
v -7.52 -3.28 0
v -7.2 -3.28 0
v -7.5 -3.6 0
v -7.82 -3.6 0
v -7.82 -3.28 0
v -7.5 -3.28 0
v -9 -3.6 0
v -9.32 -3.6 0
v -9.32 -3.28 0
v -9 -3.28 0
v -4.8 -3.9 0
v -5.12 -3.9 0
v -5.12 -3.58 0
v -4.8 -3.58 0
v -7.5 -3.9 0
v -7.82 -3.9 0
v -7.82 -3.58 0
v -7.5 -3.58 0
v -9 -3.9 0
v -9.32 -3.9 0
v -9.32 -3.58 0
v -9 -3.58 0
v -4.8 -4.2 0
v -5.12 -4.2 0
v -5.12 -3.88 0
v -4.8 -3.88 0
v -5.4 -4.2 0
v -5.72 -4.2 0
v -5.72 -3.88 0
v -5.4 -3.88 0
v -6.9 -4.2 0
v -7.22 -4.2 0
v -7.22 -3.88 0
v -6.9 -3.88 0
v -7.5 -4.2 0
v -7.82 -4.2 0
v -7.82 -3.88 0
v -7.5 -3.88 0
v -4.8 -4.5 0
v -5.12 -4.5 0
v -5.12 -4.18 0
v -4.8 -4.18 0
v -5.7 -4.5 0
v -6.02 -4.5 0
v -6.02 -4.18 0
v -5.7 -4.18 0
v -7.5 -4.5 0
v -7.82 -4.5 0
v -7.82 -4.18 0
v -7.5 -4.18 0
v -4.8 -4.8 0
v -5.12 -4.8 0
v -5.12 -4.48 0
v -4.8 -4.48 0
v -5.4 -4.8 0
v -5.72 -4.8 0
v -5.72 -4.48 0
v -5.4 -4.48 0
v -7.2 -4.8 0
v -7.52 -4.8 0
v -7.52 -4.48 0
v -7.2 -4.48 0
v -7.5 -4.8 0
v -7.82 -4.8 0
v -7.82 -4.48 0
v -7.5 -4.48 0
v -3.3 -5.1 0
v -3.62 -5.1 0
v -3.62 -4.78 0
v -3.3 -4.78 0
v -4.8 -5.1 0
v -5.12 -5.1 0
v -5.12 -4.78 0
v -4.8 -4.78 0
v -5.4 -5.1 0
v -5.72 -5.1 0
v -5.72 -4.78 0
v -5.4 -4.78 0
v -6.6 -5.1 0
v -6.92 -5.1 0
v -6.92 -4.78 0
v -6.6 -4.78 0
v -7.5 -5.1 0
v -7.82 -5.1 0
v -7.82 -4.78 0
v -7.5 -4.78 0
v -3.3 -5.4 0
v -3.62 -5.4 0
v -3.62 -5.08 0
v -3.3 -5.08 0
v -4.8 -5.4 0
v -5.12 -5.4 0
v -5.12 -5.08 0
v -4.8 -5.08 0
v -6 -5.4 0
v -6.32 -5.4 0
v -6.32 -5.08 0
v -6 -5.08 0
v -7.5 -5.4 0
v -7.82 -5.4 0
v -7.82 -5.08 0
v -7.5 -5.08 0
v -9 -5.4 0
v -9.32 -5.4 0
v -9.32 -5.08 0
v -9 -5.08 0
v -4.8 -5.7 0
v -5.12 -5.7 0
v -5.12 -5.38 0
v -4.8 -5.38 0
v -5.1 -5.7 0
v -5.42 -5.7 0
v -5.42 -5.38 0
v -5.1 -5.38 0
v -5.4 -5.7 0
v -5.72 -5.7 0
v -5.72 -5.38 0
v -5.4 -5.38 0
v -5.7 -5.7 0
v -6.02 -5.7 0
v -6.02 -5.38 0
v -5.7 -5.38 0
v -6 -5.7 0
v -6.32 -5.7 0
v -6.32 -5.38 0
v -6 -5.38 0
v -6.9 -5.7 0
v -7.22 -5.7 0
v -7.22 -5.38 0
v -6.9 -5.38 0
v -7.2 -5.7 0
v -7.52 -5.7 0
v -7.52 -5.38 0
v -7.2 -5.38 0
v -7.5 -5.7 0
v -7.82 -5.7 0
v -7.82 -5.38 0
v -7.5 -5.38 0
v -9 -5.7 0
v -9.32 -5.7 0
v -9.32 -5.38 0
v -9 -5.38 0
v -3.3 -6.9 0
v -3.62 -6.9 0
v -3.62 -6.58 0
v -3.3 -6.58 0
v -3.3 -7.2 0
v -3.62 -7.2 0
v -3.62 -6.88 0
v -3.3 -6.88 0
v -9 -7.2 0
v -9.32 -7.2 0
v -9.32 -6.88 0
v -9 -6.88 0
v -9 -7.5 0
v -9.32 -7.5 0
v -9.32 -7.18 0
v -9 -7.18 0
v -2.4 -8.7 0
v -2.72 -8.7 0
v -2.72 -8.38 0
v -2.4 -8.38 0
v -9.599999 -8.7 0
v -9.92 -8.7 0
v -9.92 -8.38 0
v -9.599999 -8.38 0
v -4.5 -9 0
v -4.82 -9 0
v -4.82 -8.679999 0
v -4.5 -8.679999 0
v -6.3 -9 0
v -6.62 -9 0
v -6.62 -8.679999 0
v -6.3 -8.679999 0
v -6.9 -9 0
v -7.22 -9 0
v -7.22 -8.679999 0
v -6.9 -8.679999 0
v -8.4 -9 0
v -8.72 -9 0
v -8.72 -8.679999 0
v -8.4 -8.679999 0
v -9 -9 0
v -9.32 -9 0
v -9.32 -8.679999 0
v -9 -8.679999 0

# Texture cooridinates (Count = 72)
vt 0.3800813 0.2786885
vt 0.4126016 0.2786885
vt 0.4126016 0.3311476
vt 0.3800813 0.3311476
vt 0.06910569 0.6688524
vt 0.101626 0.6688524
vt 0.101626 0.7213115
vt 0.06910569 0.7213115
vt 0.06910569 0.6131147
vt 0.101626 0.6131147
vt 0.101626 0.6655738
vt 0.06910569 0.6655738
vt 0.5873984 0.947541
vt 0.6199187 0.947541
vt 0.6199187 1
vt 0.5873984 1
vt 0.6219512 0.947541
vt 0.6544715 0.947541
vt 0.6544715 1
vt 0.6219512 1
vt 0.5873984 0.7245902
vt 0.6199187 0.7245902
vt 0.6199187 0.7770492
vt 0.5873984 0.7770492
vt 0.6565041 0.947541
vt 0.6890244 0.947541
vt 0.6890244 1
vt 0.6565041 1
vt 0.5873984 0.8918033
vt 0.6199187 0.8918033
vt 0.6199187 0.9442623
vt 0.5873984 0.9442623
vt 0.6565041 0.8918033
vt 0.6890244 0.8918033
vt 0.6890244 0.9442623
vt 0.6565041 0.9442623
vt 0.03455285 0.7803279
vt 0.06707317 0.7803279
vt 0.06707317 0.8327869
vt 0.03455285 0.8327869
vt 0.5528455 0.8360656
vt 0.5853658 0.8360656
vt 0.5853658 0.8885246
vt 0.5528455 0.8885246
vt 0.6219512 0.7245902
vt 0.6544715 0.7245902
vt 0.6544715 0.7770492
vt 0.6219512 0.7770492
vt 0.6565041 0.7245902
vt 0.6890244 0.7245902
vt 0.6890244 0.7770492
vt 0.6565041 0.7770492
vt 0.6910569 0.8918033
vt 0.7235773 0.8918033
vt 0.7235773 0.9442623
vt 0.6910569 0.9442623
vt 0.5528455 0.8918033
vt 0.5853658 0.8918033
vt 0.5853658 0.9442623
vt 0.5528455 0.9442623
vt 0.6565041 0.8360656
vt 0.6890244 0.8360656
vt 0.6890244 0.8885246
vt 0.6565041 0.8885246
vt 0.3800813 0.390164
vt 0.4126016 0.390164
vt 0.4126016 0.442623
vt 0.3800813 0.442623
vt 0.3800813 0.2229508
vt 0.4126016 0.2229508
vt 0.4126016 0.2754098
vt 0.3800813 0.2754098

# Normal
vn 0 0 -1

# Mesh description
g b3_mesh_0004

# Faces
f 1/1/1 2/2/1 3/3/1 4/4/1
f 5/5/1 6/6/1 7/7/1 8/8/1
f 9/9/1 10/10/1 11/11/1 12/12/1
f 13/13/1 14/14/1 15/15/1 16/16/1
f 17/17/1 18/18/1 19/19/1 20/20/1
f 21/21/1 22/22/1 23/23/1 24/24/1
f 25/21/1 26/22/1 27/23/1 28/24/1
f 29/17/1 30/18/1 31/19/1 32/20/1
f 33/21/1 34/22/1 35/23/1 36/24/1
f 37/17/1 38/18/1 39/19/1 40/20/1
f 41/21/1 42/22/1 43/23/1 44/24/1
f 45/17/1 46/18/1 47/19/1 48/20/1
f 49/25/1 50/26/1 51/27/1 52/28/1
f 53/5/1 54/6/1 55/7/1 56/8/1
f 57/29/1 58/30/1 59/31/1 60/32/1
f 61/33/1 62/34/1 63/35/1 64/36/1
f 65/9/1 66/10/1 67/11/1 68/12/1
f 69/29/1 70/30/1 71/31/1 72/32/1
f 73/37/1 74/38/1 75/39/1 76/40/1
f 77/37/1 78/38/1 79/39/1 80/40/1
f 81/33/1 82/34/1 83/35/1 84/36/1
f 85/29/1 86/30/1 87/31/1 88/32/1
f 89/37/1 90/38/1 91/39/1 92/40/1
f 93/33/1 94/34/1 95/35/1 96/36/1
f 97/29/1 98/30/1 99/31/1 100/32/1
f 101/37/1 102/38/1 103/39/1 104/40/1
f 105/37/1 106/38/1 107/39/1 108/40/1
f 109/33/1 110/34/1 111/35/1 112/36/1
f 113/5/1 114/6/1 115/7/1 116/8/1
f 117/29/1 118/30/1 119/31/1 120/32/1
f 121/37/1 122/38/1 123/39/1 124/40/1
f 125/37/1 126/38/1 127/39/1 128/40/1
f 129/33/1 130/34/1 131/35/1 132/36/1
f 133/9/1 134/10/1 135/11/1 136/12/1
f 137/29/1 138/30/1 139/31/1 140/32/1
f 141/37/1 142/38/1 143/39/1 144/40/1
f 145/33/1 146/34/1 147/35/1 148/36/1
f 149/5/1 150/6/1 151/7/1 152/8/1
f 153/41/1 154/42/1 155/43/1 156/44/1
f 157/21/1 158/22/1 159/23/1 160/24/1
f 161/45/1 162/46/1 163/47/1 164/48/1
f 165/49/1 166/50/1 167/51/1 168/52/1
f 169/53/1 170/54/1 171/55/1 172/56/1
f 173/57/1 174/58/1 175/59/1 176/60/1
f 177/17/1 178/18/1 179/19/1 180/20/1
f 181/61/1 182/62/1 183/63/1 184/64/1
f 185/9/1 186/10/1 187/11/1 188/12/1
f 189/5/1 190/6/1 191/7/1 192/8/1
f 193/9/1 194/10/1 195/11/1 196/12/1
f 197/5/1 198/6/1 199/7/1 200/8/1
f 201/9/1 202/10/1 203/11/1 204/12/1
f 205/65/1 206/66/1 207/67/1 208/68/1
f 209/65/1 210/66/1 211/67/1 212/68/1
f 213/65/1 214/66/1 215/67/1 216/68/1
f 217/69/1 218/70/1 219/71/1 220/72/1
f 221/69/1 222/70/1 223/71/1 224/72/1
f 225/65/1 226/66/1 227/67/1 228/68/1
f 229/69/1 230/70/1 231/71/1 232/72/1

