# Tiled2Unity generated file. Do not modify by hand.
# Wavefront file for 'c5_mesh_0003.obj'

# Vertices (Count = 64)
v -7.8 -3.3 0
v -8.12 -3.3 0
v -8.12 -2.98 0
v -7.8 -2.98 0
v -8.4 -3.3 0
v -8.72 -3.3 0
v -8.72 -2.98 0
v -8.4 -2.98 0
v -9 -3.3 0
v -9.32 -3.3 0
v -9.32 -2.98 0
v -9 -2.98 0
v -6 -3.9 0
v -6.32 -3.9 0
v -6.32 -3.58 0
v -6 -3.58 0
v -7.8 -3.9 0
v -8.12 -3.9 0
v -8.12 -3.58 0
v -7.8 -3.58 0
v -8.4 -3.9 0
v -8.72 -3.9 0
v -8.72 -3.58 0
v -8.4 -3.58 0
v -9 -3.9 0
v -9.32 -3.9 0
v -9.32 -3.58 0
v -9 -3.58 0
v -3.3 -4.2 0
v -3.62 -4.2 0
v -3.62 -3.88 0
v -3.3 -3.88 0
v -6.6 -4.2 0
v -6.92 -4.2 0
v -6.92 -3.88 0
v -6.6 -3.88 0
v -5.4 -5.4 0
v -5.72 -5.4 0
v -5.72 -5.08 0
v -5.4 -5.08 0
v -2.1 -6 0
v -2.42 -6 0
v -2.42 -5.68 0
v -2.1 -5.68 0
v -2.4 -6.3 0
v -2.72 -6.3 0
v -2.72 -5.98 0
v -2.4 -5.98 0
v -4.2 -6.3 0
v -4.52 -6.3 0
v -4.52 -5.98 0
v -4.2 -5.98 0
v -6 -6.3 0
v -6.32 -6.3 0
v -6.32 -5.98 0
v -6 -5.98 0
v -8.4 -6.3 0
v -8.72 -6.3 0
v -8.72 -5.98 0
v -8.4 -5.98 0
v -8.4 -6.6 0
v -8.72 -6.6 0
v -8.72 -6.28 0
v -8.4 -6.28 0

# Texture cooridinates (Count = 44)
vt 0.4214876 0.743346
vt 0.4380165 0.743346
vt 0.4380165 0.7737643
vt 0.4214876 0.7737643
vt 0.7727273 0.6140684
vt 0.7892562 0.6140684
vt 0.7892562 0.6444867
vt 0.7727273 0.6444867
vt 0.3336777 0.8079848
vt 0.3502066 0.8079848
vt 0.3502066 0.838403
vt 0.3336777 0.838403
vt 0.3336777 0.8403042
vt 0.3502066 0.8403042
vt 0.3502066 0.8707224
vt 0.3336777 0.8707224
vt 0.3512397 0.8726236
vt 0.3677686 0.8726236
vt 0.3677686 0.9030418
vt 0.3512397 0.9030418
vt 0.3512397 0.9695817
vt 0.3677686 0.9695817
vt 0.3677686 1
vt 0.3512397 1
vt 0.4566116 0.743346
vt 0.4731405 0.743346
vt 0.4731405 0.7737643
vt 0.4566116 0.7737643
vt 0.3863636 0.9695817
vt 0.4028926 0.9695817
vt 0.4028926 1
vt 0.3863636 1
vt 0.7727273 0.6463878
vt 0.7892562 0.6463878
vt 0.7892562 0.6768061
vt 0.7727273 0.6768061
vt 0.4566116 0.904943
vt 0.4731405 0.904943
vt 0.4731405 0.9353612
vt 0.4566116 0.9353612
vt 0.5619835 0.6787072
vt 0.5785124 0.6787072
vt 0.5785124 0.7091255
vt 0.5619835 0.7091255

# Normal
vn 0 0 -1

# Mesh description
g c5_mesh_0003

# Faces
f 1/1/1 2/2/1 3/3/1 4/4/1
f 5/1/1 6/2/1 7/3/1 8/4/1
f 9/1/1 10/2/1 11/3/1 12/4/1
f 13/5/1 14/6/1 15/7/1 16/8/1
f 17/9/1 18/10/1 19/11/1 20/12/1
f 21/13/1 22/14/1 23/15/1 24/16/1
f 25/17/1 26/18/1 27/19/1 28/20/1
f 29/5/1 30/6/1 31/7/1 32/8/1
f 33/5/1 34/6/1 35/7/1 36/8/1
f 37/21/1 38/22/1 39/23/1 40/24/1
f 41/25/1 42/26/1 43/27/1 44/28/1
f 45/29/1 46/30/1 47/31/1 48/32/1
f 49/33/1 50/34/1 51/35/1 52/36/1
f 53/37/1 54/38/1 55/39/1 56/40/1
f 57/41/1 58/42/1 59/43/1 60/44/1
f 61/5/1 62/6/1 63/7/1 64/8/1

