# Tiled2Unity generated file. Do not modify by hand.
# Wavefront file for 'c6_mesh_0005.obj'

# Vertices (Count = 28)
v -1.8 -5.7 0
v -2.12 -5.7 0
v -2.12 -5.38 0
v -1.8 -5.38 0
v -3.6 -5.7 0
v -3.92 -5.7 0
v -3.92 -5.38 0
v -3.6 -5.38 0
v -1.8 -6 0
v -2.12 -6 0
v -2.12 -5.68 0
v -1.8 -5.68 0
v -3.6 -6 0
v -3.92 -6 0
v -3.92 -5.68 0
v -3.6 -5.68 0
v -3.6 -6.3 0
v -3.92 -6.3 0
v -3.92 -5.98 0
v -3.6 -5.98 0
v -8.4 -7.5 0
v -8.72 -7.5 0
v -8.72 -7.18 0
v -8.4 -7.18 0
v -3.6 -10.5 0
v -3.92 -10.5 0
v -3.92 -10.18 0
v -3.6 -10.18 0

# Texture cooridinates (Count = 12)
vt 0.1382114 0.7803279
vt 0.1707317 0.7803279
vt 0.1707317 0.8327869
vt 0.1382114 0.8327869
vt 0.1382114 0.7245902
vt 0.1707317 0.7245902
vt 0.1707317 0.7770492
vt 0.1382114 0.7770492
vt 0.4146341 0.5016394
vt 0.4471545 0.5016394
vt 0.4471545 0.5540984
vt 0.4146341 0.5540984

# Normal
vn 0 0 -1

# Mesh description
g c6_mesh_0005

# Faces
f 1/1/1 2/2/1 3/3/1 4/4/1
f 5/1/1 6/2/1 7/3/1 8/4/1
f 9/5/1 10/6/1 11/7/1 12/8/1
f 13/1/1 14/2/1 15/3/1 16/4/1
f 17/5/1 18/6/1 19/7/1 20/8/1
f 21/9/1 22/10/1 23/11/1 24/12/1
f 25/9/1 26/10/1 27/11/1 28/12/1

