# Tiled2Unity generated file. Do not modify by hand.
# Wavefront file for 'c3_mesh_0004.obj'

# Vertices (Count = 72)
v -3.3 -3 0
v -3.62 -3 0
v -3.62 -2.68 0
v -3.3 -2.68 0
v -7.8 -3 0
v -8.12 -3 0
v -8.12 -2.68 0
v -7.8 -2.68 0
v -2.4 -4.5 0
v -2.72 -4.5 0
v -2.72 -4.18 0
v -2.4 -4.18 0
v -4.8 -4.5 0
v -5.12 -4.5 0
v -5.12 -4.18 0
v -4.8 -4.18 0
v -8.099999 -4.5 0
v -8.42 -4.5 0
v -8.42 -4.18 0
v -8.099999 -4.18 0
v -9 -5.4 0
v -9.32 -5.4 0
v -9.32 -5.08 0
v -9 -5.08 0
v -3 -7.2 0
v -3.32 -7.2 0
v -3.32 -6.88 0
v -3 -6.88 0
v -4.5 -7.2 0
v -4.82 -7.2 0
v -4.82 -6.88 0
v -4.5 -6.88 0
v -7.8 -7.2 0
v -8.12 -7.2 0
v -8.12 -6.88 0
v -7.8 -6.88 0
v -7.8 -7.5 0
v -8.12 -7.5 0
v -8.12 -7.18 0
v -7.8 -7.18 0
v -8.7 -8.4 0
v -9.02 -8.4 0
v -9.02 -8.08 0
v -8.7 -8.08 0
v -6.6 -8.7 0
v -6.92 -8.7 0
v -6.92 -8.38 0
v -6.6 -8.38 0
v -2.7 -9 0
v -3.02 -9 0
v -3.02 -8.679999 0
v -2.7 -8.679999 0
v -5.7 -9.9 0
v -6.02 -9.9 0
v -6.02 -9.58 0
v -5.7 -9.58 0
v -6 -9.9 0
v -6.32 -9.9 0
v -6.32 -9.58 0
v -6 -9.58 0
v -8.099999 -10.2 0
v -8.42 -10.2 0
v -8.42 -9.88 0
v -8.099999 -9.88 0
v -9.3 -10.5 0
v -9.62 -10.5 0
v -9.62 -10.18 0
v -9.3 -10.18 0
v -9.3 -10.8 0
v -9.62 -10.8 0
v -9.62 -10.48 0
v -9.3 -10.48 0

# Texture cooridinates (Count = 44)
vt 0.4837398 0.1672131
vt 0.5162601 0.1672131
vt 0.5162601 0.2196721
vt 0.4837398 0.2196721
vt 0.1727642 0.5016394
vt 0.2052846 0.5016394
vt 0.2052846 0.5540984
vt 0.1727642 0.5540984
vt 0.06910569 0.7803279
vt 0.101626 0.7803279
vt 0.101626 0.8327869
vt 0.06910569 0.8327869
vt 0.1036585 0.8360656
vt 0.1361789 0.8360656
vt 0.1361789 0.8885246
vt 0.1036585 0.8885246
vt 0.03455285 0.7803279
vt 0.06707317 0.7803279
vt 0.06707317 0.8327869
vt 0.03455285 0.8327869
vt 0.06910569 0.8360656
vt 0.101626 0.8360656
vt 0.101626 0.8885246
vt 0.06910569 0.8885246
vt 0.4837398 0.2229508
vt 0.5162601 0.2229508
vt 0.5162601 0.2754098
vt 0.4837398 0.2754098
vt 0.5182927 0.2229508
vt 0.550813 0.2229508
vt 0.550813 0.2754098
vt 0.5182927 0.2754098
vt 0.5182927 0.1114754
vt 0.550813 0.1114754
vt 0.550813 0.1639344
vt 0.5182927 0.1639344
vt 0.2073171 0.7803279
vt 0.2398374 0.7803279
vt 0.2398374 0.8327869
vt 0.2073171 0.8327869
vt 0.2073171 0.7245902
vt 0.2398374 0.7245902
vt 0.2398374 0.7770492
vt 0.2073171 0.7770492

# Normal
vn 0 0 -1

# Mesh description
g c3_mesh_0004

# Faces
f 1/1/1 2/2/1 3/3/1 4/4/1
f 5/5/1 6/6/1 7/7/1 8/8/1
f 9/9/1 10/10/1 11/11/1 12/12/1
f 13/13/1 14/14/1 15/15/1 16/16/1
f 17/9/1 18/10/1 19/11/1 20/12/1
f 21/17/1 22/18/1 23/19/1 24/20/1
f 25/9/1 26/10/1 27/11/1 28/12/1
f 29/13/1 30/14/1 31/15/1 32/16/1
f 33/17/1 34/18/1 35/19/1 36/20/1
f 37/21/1 38/22/1 39/23/1 40/24/1
f 41/9/1 42/10/1 43/11/1 44/12/1
f 45/9/1 46/10/1 47/11/1 48/12/1
f 49/17/1 50/18/1 51/19/1 52/20/1
f 53/25/1 54/26/1 55/27/1 56/28/1
f 57/29/1 58/30/1 59/31/1 60/32/1
f 61/33/1 62/34/1 63/35/1 64/36/1
f 65/37/1 66/38/1 67/39/1 68/40/1
f 69/41/1 70/42/1 71/43/1 72/44/1

