# Tiled2Unity generated file. Do not modify by hand.
# Wavefront file for 'b4_mesh_0004.obj'

# Vertices (Count = 164)
v -2.4 -2.1 0
v -2.72 -2.1 0
v -2.72 -1.78 0
v -2.4 -1.78 0
v -4.5 -2.1 0
v -4.82 -2.1 0
v -4.82 -1.78 0
v -4.5 -1.78 0
v -4.8 -2.1 0
v -5.12 -2.1 0
v -5.12 -1.78 0
v -4.8 -1.78 0
v -6.6 -2.1 0
v -6.92 -2.1 0
v -6.92 -1.78 0
v -6.6 -1.78 0
v -8.4 -2.1 0
v -8.72 -2.1 0
v -8.72 -1.78 0
v -8.4 -1.78 0
v -6.6 -2.4 0
v -6.92 -2.4 0
v -6.92 -2.08 0
v -6.6 -2.08 0
v -9 -2.4 0
v -9.32 -2.4 0
v -9.32 -2.08 0
v -9 -2.08 0
v -7.5 -3 0
v -7.82 -3 0
v -7.82 -2.68 0
v -7.5 -2.68 0
v -8.099999 -3 0
v -8.42 -3 0
v -8.42 -2.68 0
v -8.099999 -2.68 0
v -8.7 -3 0
v -9.02 -3 0
v -9.02 -2.68 0
v -8.7 -2.68 0
v -7.5 -3.3 0
v -7.82 -3.3 0
v -7.82 -2.98 0
v -7.5 -2.98 0
v -8.099999 -3.3 0
v -8.42 -3.3 0
v -8.42 -2.98 0
v -8.099999 -2.98 0
v -8.7 -3.3 0
v -9.02 -3.3 0
v -9.02 -2.98 0
v -8.7 -2.98 0
v -6.9 -3.6 0
v -7.22 -3.6 0
v -7.22 -3.28 0
v -6.9 -3.28 0
v -6.9 -3.9 0
v -7.22 -3.9 0
v -7.22 -3.58 0
v -6.9 -3.58 0
v -6.9 -4.5 0
v -7.22 -4.5 0
v -7.22 -4.18 0
v -6.9 -4.18 0
v -4.2 -4.8 0
v -4.52 -4.8 0
v -4.52 -4.48 0
v -4.2 -4.48 0
v -6.9 -4.8 0
v -7.22 -4.8 0
v -7.22 -4.48 0
v -6.9 -4.48 0
v -8.4 -4.8 0
v -8.72 -4.8 0
v -8.72 -4.48 0
v -8.4 -4.48 0
v -6.9 -5.4 0
v -7.22 -5.4 0
v -7.22 -5.08 0
v -6.9 -5.08 0
v -6.9 -5.7 0
v -7.22 -5.7 0
v -7.22 -5.38 0
v -6.9 -5.38 0
v -7.5 -6.3 0
v -7.82 -6.3 0
v -7.82 -5.98 0
v -7.5 -5.98 0
v -8.099999 -6.3 0
v -8.42 -6.3 0
v -8.42 -5.98 0
v -8.099999 -5.98 0
v -9.3 -6.3 0
v -9.62 -6.3 0
v -9.62 -5.98 0
v -9.3 -5.98 0
v -7.5 -6.6 0
v -7.82 -6.6 0
v -7.82 -6.28 0
v -7.5 -6.28 0
v -8.7 -6.6 0
v -9.02 -6.6 0
v -9.02 -6.28 0
v -8.7 -6.28 0
v -2.4 -8.7 0
v -2.72 -8.7 0
v -2.72 -8.38 0
v -2.4 -8.38 0
v -3.6 -8.7 0
v -3.92 -8.7 0
v -3.92 -8.38 0
v -3.6 -8.38 0
v -9.599999 -8.7 0
v -9.92 -8.7 0
v -9.92 -8.38 0
v -9.599999 -8.38 0
v -3.6 -9 0
v -3.92 -9 0
v -3.92 -8.679999 0
v -3.6 -8.679999 0
v -4.5 -9 0
v -4.82 -9 0
v -4.82 -8.679999 0
v -4.5 -8.679999 0
v -6.3 -9 0
v -6.62 -9 0
v -6.62 -8.679999 0
v -6.3 -8.679999 0
v -6.6 -9 0
v -6.92 -9 0
v -6.92 -8.679999 0
v -6.6 -8.679999 0
v -6.9 -9 0
v -7.22 -9 0
v -7.22 -8.679999 0
v -6.9 -8.679999 0
v -8.4 -9 0
v -8.72 -9 0
v -8.72 -8.679999 0
v -8.4 -8.679999 0
v -8.7 -9 0
v -9.02 -9 0
v -9.02 -8.679999 0
v -8.7 -8.679999 0
v -9 -9 0
v -9.32 -9 0
v -9.32 -8.679999 0
v -9 -8.679999 0
v -9.3 -9 0
v -9.62 -9 0
v -9.62 -8.679999 0
v -9.3 -8.679999 0
v -3.6 -9.3 0
v -3.92 -9.3 0
v -3.92 -8.98 0
v -3.6 -8.98 0
v -3.6 -9.599999 0
v -3.92 -9.599999 0
v -3.92 -9.28 0
v -3.6 -9.28 0
v -3.9 -9.599999 0
v -4.22 -9.599999 0
v -4.22 -9.28 0
v -3.9 -9.28 0

# Texture cooridinates (Count = 108)
vt 0.1727642 0.5016394
vt 0.2052846 0.5016394
vt 0.2052846 0.5540984
vt 0.1727642 0.5540984
vt 0.3455285 0.5016394
vt 0.3780488 0.5016394
vt 0.3780488 0.5540984
vt 0.3455285 0.5540984
vt 0.449187 0.2786885
vt 0.4817073 0.2786885
vt 0.4817073 0.3311476
vt 0.449187 0.3311476
vt 0.4837398 0.4459016
vt 0.5162601 0.4459016
vt 0.5162601 0.4983606
vt 0.4837398 0.4983606
vt 0.4146341 0.5016394
vt 0.4471545 0.5016394
vt 0.4471545 0.5540984
vt 0.4146341 0.5540984
vt 0.2418699 0.8918033
vt 0.2743903 0.8918033
vt 0.2743903 0.9442623
vt 0.2418699 0.9442623
vt 0.1036585 0.947541
vt 0.1361789 0.947541
vt 0.1361789 1
vt 0.1036585 1
vt 0.2073171 0.947541
vt 0.2398374 0.947541
vt 0.2398374 1
vt 0.2073171 1
vt 0.1727642 0.947541
vt 0.2052846 0.947541
vt 0.2052846 1
vt 0.1727642 1
vt 0.1036585 0.8918033
vt 0.1361789 0.8918033
vt 0.1361789 0.9442623
vt 0.1036585 0.9442623
vt 0.2073171 0.8918033
vt 0.2398374 0.8918033
vt 0.2398374 0.9442623
vt 0.2073171 0.9442623
vt 0.1727642 0.8918033
vt 0.2052846 0.8918033
vt 0.2052846 0.9442623
vt 0.1727642 0.9442623
vt 0.5182927 0
vt 0.550813 0
vt 0.550813 0.052459
vt 0.5182927 0.052459
vt 0.4837398 0
vt 0.5162601 0
vt 0.5162601 0.052459
vt 0.4837398 0.052459
vt 0.1382114 0.947541
vt 0.1707317 0.947541
vt 0.1707317 1
vt 0.1382114 1
vt 0.1382114 0.8918033
vt 0.1707317 0.8918033
vt 0.1707317 0.9442623
vt 0.1382114 0.9442623
vt 0.03455285 0.947541
vt 0.06707317 0.947541
vt 0.06707317 1
vt 0.03455285 1
vt 0.06910569 0.8918033
vt 0.101626 0.8918033
vt 0.101626 0.9442623
vt 0.06910569 0.9442623
vt 0 0.947541
vt 0.03252032 0.947541
vt 0.03252032 1
vt 0 1
vt 0.449187 0.3344262
vt 0.4817073 0.3344262
vt 0.4817073 0.3868852
vt 0.449187 0.3868852
vt 0.1382114 0.7803279
vt 0.1707317 0.7803279
vt 0.1707317 0.8327869
vt 0.1382114 0.8327869
vt 0.3455285 0.557377
vt 0.3780488 0.557377
vt 0.3780488 0.6098361
vt 0.3455285 0.6098361
vt 0.4146341 0.1672131
vt 0.4471545 0.1672131
vt 0.4471545 0.2196721
vt 0.4146341 0.2196721
vt 0.449187 0.1672131
vt 0.4817073 0.1672131
vt 0.4817073 0.2196721
vt 0.449187 0.2196721
vt 0.3109756 0.5016394
vt 0.3434959 0.5016394
vt 0.3434959 0.5540984
vt 0.3109756 0.5540984
vt 0.1382114 0.7245902
vt 0.1707317 0.7245902
vt 0.1707317 0.7770492
vt 0.1382114 0.7770492
vt 0.1727642 0.7245902
vt 0.2052846 0.7245902
vt 0.2052846 0.7770492
vt 0.1727642 0.7770492

# Normal
vn 0 0 -1

# Mesh description
g b4_mesh_0004

# Faces
f 1/1/1 2/2/1 3/3/1 4/4/1
f 5/5/1 6/6/1 7/7/1 8/8/1
f 9/9/1 10/10/1 11/11/1 12/12/1
f 13/13/1 14/14/1 15/15/1 16/16/1
f 17/17/1 18/18/1 19/19/1 20/20/1
f 21/13/1 22/14/1 23/15/1 24/16/1
f 25/21/1 26/22/1 27/23/1 28/24/1
f 29/25/1 30/26/1 31/27/1 32/28/1
f 33/29/1 34/30/1 35/31/1 36/32/1
f 37/33/1 38/34/1 39/35/1 40/36/1
f 41/37/1 42/38/1 43/39/1 44/40/1
f 45/41/1 46/42/1 47/43/1 48/44/1
f 49/45/1 50/46/1 51/47/1 52/48/1
f 53/33/1 54/34/1 55/35/1 56/36/1
f 57/45/1 58/46/1 59/47/1 60/48/1
f 61/25/1 62/26/1 63/27/1 64/28/1
f 65/49/1 66/50/1 67/51/1 68/52/1
f 69/37/1 70/38/1 71/39/1 72/40/1
f 73/53/1 74/54/1 75/55/1 76/56/1
f 77/57/1 78/58/1 79/59/1 80/60/1
f 81/61/1 82/62/1 83/63/1 84/64/1
f 85/57/1 86/58/1 87/59/1 88/60/1
f 89/65/1 90/66/1 91/67/1 92/68/1
f 93/69/1 94/70/1 95/71/1 96/72/1
f 97/61/1 98/62/1 99/63/1 100/64/1
f 101/73/1 102/74/1 103/75/1 104/76/1
f 105/77/1 106/78/1 107/79/1 108/80/1
f 109/81/1 110/82/1 111/83/1 112/84/1
f 113/85/1 114/86/1 115/87/1 116/88/1
f 117/81/1 118/82/1 119/83/1 120/84/1
f 121/77/1 122/78/1 123/79/1 124/80/1
f 125/85/1 126/86/1 127/87/1 128/88/1
f 129/89/1 130/90/1 131/91/1 132/92/1
f 133/93/1 134/94/1 135/95/1 136/96/1
f 137/17/1 138/18/1 139/19/1 140/20/1
f 141/97/1 142/98/1 143/99/1 144/100/1
f 145/85/1 146/86/1 147/87/1 148/88/1
f 149/85/1 150/86/1 151/87/1 152/88/1
f 153/81/1 154/82/1 155/83/1 156/84/1
f 157/101/1 158/102/1 159/103/1 160/104/1
f 161/105/1 162/106/1 163/107/1 164/108/1

