# Tiled2Unity generated file. Do not modify by hand.
# Wavefront file for 'c8_mesh_0003.obj'

# Vertices (Count = 628)
v 0 -3.9 0
v -0.32 -3.9 0
v -0.32 -3.58 0
v 0 -3.58 0
v 0 -4.2 0
v -0.32 -4.2 0
v -0.32 -3.88 0
v 0 -3.88 0
v -0.3 -4.2 0
v -0.62 -4.2 0
v -0.62 -3.88 0
v -0.3 -3.88 0
v -0.6 -4.2 0
v -0.92 -4.2 0
v -0.92 -3.88 0
v -0.6 -3.88 0
v -0.9 -4.2 0
v -1.22 -4.2 0
v -1.22 -3.88 0
v -0.9 -3.88 0
v -1.2 -4.2 0
v -1.52 -4.2 0
v -1.52 -3.88 0
v -1.2 -3.88 0
v -1.5 -4.2 0
v -1.82 -4.2 0
v -1.82 -3.88 0
v -1.5 -3.88 0
v -1.8 -4.2 0
v -2.12 -4.2 0
v -2.12 -3.88 0
v -1.8 -3.88 0
v -2.1 -4.2 0
v -2.42 -4.2 0
v -2.42 -3.88 0
v -2.1 -3.88 0
v -2.4 -4.2 0
v -2.72 -4.2 0
v -2.72 -3.88 0
v -2.4 -3.88 0
v -2.7 -4.2 0
v -3.02 -4.2 0
v -3.02 -3.88 0
v -2.7 -3.88 0
v -3 -4.2 0
v -3.32 -4.2 0
v -3.32 -3.88 0
v -3 -3.88 0
v -3.3 -4.2 0
v -3.62 -4.2 0
v -3.62 -3.88 0
v -3.3 -3.88 0
v -3.6 -4.2 0
v -3.92 -4.2 0
v -3.92 -3.88 0
v -3.6 -3.88 0
v -3.9 -4.2 0
v -4.22 -4.2 0
v -4.22 -3.88 0
v -3.9 -3.88 0
v -4.2 -4.2 0
v -4.52 -4.2 0
v -4.52 -3.88 0
v -4.2 -3.88 0
v -4.5 -4.2 0
v -4.82 -4.2 0
v -4.82 -3.88 0
v -4.5 -3.88 0
v -4.8 -4.2 0
v -5.12 -4.2 0
v -5.12 -3.88 0
v -4.8 -3.88 0
v -5.1 -4.2 0
v -5.42 -4.2 0
v -5.42 -3.88 0
v -5.1 -3.88 0
v -5.4 -4.2 0
v -5.72 -4.2 0
v -5.72 -3.88 0
v -5.4 -3.88 0
v -5.7 -4.2 0
v -6.02 -4.2 0
v -6.02 -3.88 0
v -5.7 -3.88 0
v -6 -4.2 0
v -6.32 -4.2 0
v -6.32 -3.88 0
v -6 -3.88 0
v -6.3 -4.2 0
v -6.62 -4.2 0
v -6.62 -3.88 0
v -6.3 -3.88 0
v -6.6 -4.2 0
v -6.92 -4.2 0
v -6.92 -3.88 0
v -6.6 -3.88 0
v -6.9 -4.2 0
v -7.22 -4.2 0
v -7.22 -3.88 0
v -6.9 -3.88 0
v -7.2 -4.2 0
v -7.52 -4.2 0
v -7.52 -3.88 0
v -7.2 -3.88 0
v -7.5 -4.2 0
v -7.82 -4.2 0
v -7.82 -3.88 0
v -7.5 -3.88 0
v -7.8 -4.2 0
v -8.12 -4.2 0
v -8.12 -3.88 0
v -7.8 -3.88 0
v -8.099999 -4.2 0
v -8.42 -4.2 0
v -8.42 -3.88 0
v -8.099999 -3.88 0
v -8.4 -4.2 0
v -8.72 -4.2 0
v -8.72 -3.88 0
v -8.4 -3.88 0
v 0 -4.5 0
v -0.32 -4.5 0
v -0.32 -4.18 0
v 0 -4.18 0
v -0.3 -4.5 0
v -0.62 -4.5 0
v -0.62 -4.18 0
v -0.3 -4.18 0
v -0.6 -4.5 0
v -0.92 -4.5 0
v -0.92 -4.18 0
v -0.6 -4.18 0
v -0.9 -4.5 0
v -1.22 -4.5 0
v -1.22 -4.18 0
v -0.9 -4.18 0
v -1.2 -4.5 0
v -1.52 -4.5 0
v -1.52 -4.18 0
v -1.2 -4.18 0
v -1.5 -4.5 0
v -1.82 -4.5 0
v -1.82 -4.18 0
v -1.5 -4.18 0
v -1.8 -4.5 0
v -2.12 -4.5 0
v -2.12 -4.18 0
v -1.8 -4.18 0
v -2.1 -4.5 0
v -2.42 -4.5 0
v -2.42 -4.18 0
v -2.1 -4.18 0
v -2.4 -4.5 0
v -2.72 -4.5 0
v -2.72 -4.18 0
v -2.4 -4.18 0
v -2.7 -4.5 0
v -3.02 -4.5 0
v -3.02 -4.18 0
v -2.7 -4.18 0
v -3 -4.5 0
v -3.32 -4.5 0
v -3.32 -4.18 0
v -3 -4.18 0
v -3.3 -4.5 0
v -3.62 -4.5 0
v -3.62 -4.18 0
v -3.3 -4.18 0
v -3.6 -4.5 0
v -3.92 -4.5 0
v -3.92 -4.18 0
v -3.6 -4.18 0
v -3.9 -4.5 0
v -4.22 -4.5 0
v -4.22 -4.18 0
v -3.9 -4.18 0
v -4.2 -4.5 0
v -4.52 -4.5 0
v -4.52 -4.18 0
v -4.2 -4.18 0
v -4.5 -4.5 0
v -4.82 -4.5 0
v -4.82 -4.18 0
v -4.5 -4.18 0
v -4.8 -4.5 0
v -5.12 -4.5 0
v -5.12 -4.18 0
v -4.8 -4.18 0
v -5.1 -4.5 0
v -5.42 -4.5 0
v -5.42 -4.18 0
v -5.1 -4.18 0
v -5.4 -4.5 0
v -5.72 -4.5 0
v -5.72 -4.18 0
v -5.4 -4.18 0
v -5.7 -4.5 0
v -6.02 -4.5 0
v -6.02 -4.18 0
v -5.7 -4.18 0
v -6 -4.5 0
v -6.32 -4.5 0
v -6.32 -4.18 0
v -6 -4.18 0
v -6.3 -4.5 0
v -6.62 -4.5 0
v -6.62 -4.18 0
v -6.3 -4.18 0
v -6.6 -4.5 0
v -6.92 -4.5 0
v -6.92 -4.18 0
v -6.6 -4.18 0
v -6.9 -4.5 0
v -7.22 -4.5 0
v -7.22 -4.18 0
v -6.9 -4.18 0
v -7.2 -4.5 0
v -7.52 -4.5 0
v -7.52 -4.18 0
v -7.2 -4.18 0
v -7.5 -4.5 0
v -7.82 -4.5 0
v -7.82 -4.18 0
v -7.5 -4.18 0
v -7.8 -4.5 0
v -8.12 -4.5 0
v -8.12 -4.18 0
v -7.8 -4.18 0
v -8.099999 -4.5 0
v -8.42 -4.5 0
v -8.42 -4.18 0
v -8.099999 -4.18 0
v -8.4 -4.5 0
v -8.72 -4.5 0
v -8.72 -4.18 0
v -8.4 -4.18 0
v 0 -4.8 0
v -0.32 -4.8 0
v -0.32 -4.48 0
v 0 -4.48 0
v -6.3 -4.8 0
v -6.62 -4.8 0
v -6.62 -4.48 0
v -6.3 -4.48 0
v -6.6 -4.8 0
v -6.92 -4.8 0
v -6.92 -4.48 0
v -6.6 -4.48 0
v -6.9 -4.8 0
v -7.22 -4.8 0
v -7.22 -4.48 0
v -6.9 -4.48 0
v -7.2 -4.8 0
v -7.52 -4.8 0
v -7.52 -4.48 0
v -7.2 -4.48 0
v -7.5 -4.8 0
v -7.82 -4.8 0
v -7.82 -4.48 0
v -7.5 -4.48 0
v -7.8 -4.8 0
v -8.12 -4.8 0
v -8.12 -4.48 0
v -7.8 -4.48 0
v -8.099999 -4.8 0
v -8.42 -4.8 0
v -8.42 -4.48 0
v -8.099999 -4.48 0
v -8.4 -4.8 0
v -8.72 -4.8 0
v -8.72 -4.48 0
v -8.4 -4.48 0
v 0 -5.1 0
v -0.32 -5.1 0
v -0.32 -4.78 0
v 0 -4.78 0
v -8.4 -5.1 0
v -8.72 -5.1 0
v -8.72 -4.78 0
v -8.4 -4.78 0
v 0 -5.4 0
v -0.32 -5.4 0
v -0.32 -5.08 0
v 0 -5.08 0
v -8.4 -5.4 0
v -8.72 -5.4 0
v -8.72 -5.08 0
v -8.4 -5.08 0
v 0 -5.7 0
v -0.32 -5.7 0
v -0.32 -5.38 0
v 0 -5.38 0
v -8.4 -5.7 0
v -8.72 -5.7 0
v -8.72 -5.38 0
v -8.4 -5.38 0
v 0 -6 0
v -0.32 -6 0
v -0.32 -5.68 0
v 0 -5.68 0
v -8.4 -6 0
v -8.72 -6 0
v -8.72 -5.68 0
v -8.4 -5.68 0
v 0 -6.3 0
v -0.32 -6.3 0
v -0.32 -5.98 0
v 0 -5.98 0
v -8.4 -6.3 0
v -8.72 -6.3 0
v -8.72 -5.98 0
v -8.4 -5.98 0
v -8.4 -6.6 0
v -8.72 -6.6 0
v -8.72 -6.28 0
v -8.4 -6.28 0
v -8.4 -6.9 0
v -8.72 -6.9 0
v -8.72 -6.58 0
v -8.4 -6.58 0
v -0.3 -7.2 0
v -0.62 -7.2 0
v -0.62 -6.88 0
v -0.3 -6.88 0
v -0.6 -7.2 0
v -0.92 -7.2 0
v -0.92 -6.88 0
v -0.6 -6.88 0
v -0.9 -7.2 0
v -1.22 -7.2 0
v -1.22 -6.88 0
v -0.9 -6.88 0
v -1.2 -7.2 0
v -1.52 -7.2 0
v -1.52 -6.88 0
v -1.2 -6.88 0
v -1.5 -7.2 0
v -1.82 -7.2 0
v -1.82 -6.88 0
v -1.5 -6.88 0
v -1.8 -7.2 0
v -2.12 -7.2 0
v -2.12 -6.88 0
v -1.8 -6.88 0
v -8.4 -7.2 0
v -8.72 -7.2 0
v -8.72 -6.88 0
v -8.4 -6.88 0
v -8.7 -7.2 0
v -9.02 -7.2 0
v -9.02 -6.88 0
v -8.7 -6.88 0
v 0 -7.5 0
v -0.32 -7.5 0
v -0.32 -7.18 0
v 0 -7.18 0
v -0.3 -7.5 0
v -0.62 -7.5 0
v -0.62 -7.18 0
v -0.3 -7.18 0
v -0.6 -7.5 0
v -0.92 -7.5 0
v -0.92 -7.18 0
v -0.6 -7.18 0
v -0.9 -7.5 0
v -1.22 -7.5 0
v -1.22 -7.18 0
v -0.9 -7.18 0
v -1.2 -7.5 0
v -1.52 -7.5 0
v -1.52 -7.18 0
v -1.2 -7.18 0
v -1.5 -7.5 0
v -1.82 -7.5 0
v -1.82 -7.18 0
v -1.5 -7.18 0
v -1.8 -7.5 0
v -2.12 -7.5 0
v -2.12 -7.18 0
v -1.8 -7.18 0
v -8.4 -7.5 0
v -8.72 -7.5 0
v -8.72 -7.18 0
v -8.4 -7.18 0
v -8.7 -7.5 0
v -9.02 -7.5 0
v -9.02 -7.18 0
v -8.7 -7.18 0
v 0 -7.8 0
v -0.32 -7.8 0
v -0.32 -7.48 0
v 0 -7.48 0
v -0.3 -7.8 0
v -0.62 -7.8 0
v -0.62 -7.48 0
v -0.3 -7.48 0
v -0.6 -7.8 0
v -0.92 -7.8 0
v -0.92 -7.48 0
v -0.6 -7.48 0
v -0.9 -7.8 0
v -1.22 -7.8 0
v -1.22 -7.48 0
v -0.9 -7.48 0
v -1.2 -7.8 0
v -1.52 -7.8 0
v -1.52 -7.48 0
v -1.2 -7.48 0
v -1.5 -7.8 0
v -1.82 -7.8 0
v -1.82 -7.48 0
v -1.5 -7.48 0
v -1.8 -7.8 0
v -2.12 -7.8 0
v -2.12 -7.48 0
v -1.8 -7.48 0
v -8.7 -7.8 0
v -9.02 -7.8 0
v -9.02 -7.48 0
v -8.7 -7.48 0
v 0 -8.099999 0
v -0.32 -8.099999 0
v -0.32 -7.78 0
v 0 -7.78 0
v -0.3 -8.099999 0
v -0.62 -8.099999 0
v -0.62 -7.78 0
v -0.3 -7.78 0
v -0.6 -8.099999 0
v -0.92 -8.099999 0
v -0.92 -7.78 0
v -0.6 -7.78 0
v -0.9 -8.099999 0
v -1.22 -8.099999 0
v -1.22 -7.78 0
v -0.9 -7.78 0
v -1.2 -8.099999 0
v -1.52 -8.099999 0
v -1.52 -7.78 0
v -1.2 -7.78 0
v -1.5 -8.099999 0
v -1.82 -8.099999 0
v -1.82 -7.78 0
v -1.5 -7.78 0
v -1.8 -8.099999 0
v -2.12 -8.099999 0
v -2.12 -7.78 0
v -1.8 -7.78 0
v -4.5 -8.099999 0
v -4.82 -8.099999 0
v -4.82 -7.78 0
v -4.5 -7.78 0
v -4.8 -8.099999 0
v -5.12 -8.099999 0
v -5.12 -7.78 0
v -4.8 -7.78 0
v -5.1 -8.099999 0
v -5.42 -8.099999 0
v -5.42 -7.78 0
v -5.1 -7.78 0
v -5.4 -8.099999 0
v -5.72 -8.099999 0
v -5.72 -7.78 0
v -5.4 -7.78 0
v -5.7 -8.099999 0
v -6.02 -8.099999 0
v -6.02 -7.78 0
v -5.7 -7.78 0
v -6 -8.099999 0
v -6.32 -8.099999 0
v -6.32 -7.78 0
v -6 -7.78 0
v -6.3 -8.099999 0
v -6.62 -8.099999 0
v -6.62 -7.78 0
v -6.3 -7.78 0
v -6.6 -8.099999 0
v -6.92 -8.099999 0
v -6.92 -7.78 0
v -6.6 -7.78 0
v -6.9 -8.099999 0
v -7.22 -8.099999 0
v -7.22 -7.78 0
v -6.9 -7.78 0
v -7.2 -8.099999 0
v -7.52 -8.099999 0
v -7.52 -7.78 0
v -7.2 -7.78 0
v -7.5 -8.099999 0
v -7.82 -8.099999 0
v -7.82 -7.78 0
v -7.5 -7.78 0
v -7.8 -8.099999 0
v -8.12 -8.099999 0
v -8.12 -7.78 0
v -7.8 -7.78 0
v -8.099999 -8.099999 0
v -8.42 -8.099999 0
v -8.42 -7.78 0
v -8.099999 -7.78 0
v -8.4 -8.099999 0
v -8.72 -8.099999 0
v -8.72 -7.78 0
v -8.4 -7.78 0
v -8.7 -8.099999 0
v -9.02 -8.099999 0
v -9.02 -7.78 0
v -8.7 -7.78 0
v -4.5 -8.4 0
v -4.82 -8.4 0
v -4.82 -8.08 0
v -4.5 -8.08 0
v -4.8 -8.4 0
v -5.12 -8.4 0
v -5.12 -8.08 0
v -4.8 -8.08 0
v -5.1 -8.4 0
v -5.42 -8.4 0
v -5.42 -8.08 0
v -5.1 -8.08 0
v -5.4 -8.4 0
v -5.72 -8.4 0
v -5.72 -8.08 0
v -5.4 -8.08 0
v -5.7 -8.4 0
v -6.02 -8.4 0
v -6.02 -8.08 0
v -5.7 -8.08 0
v -6 -8.4 0
v -6.32 -8.4 0
v -6.32 -8.08 0
v -6 -8.08 0
v -6.3 -8.4 0
v -6.62 -8.4 0
v -6.62 -8.08 0
v -6.3 -8.08 0
v -6.6 -8.4 0
v -6.92 -8.4 0
v -6.92 -8.08 0
v -6.6 -8.08 0
v -6.9 -8.4 0
v -7.22 -8.4 0
v -7.22 -8.08 0
v -6.9 -8.08 0
v -7.2 -8.4 0
v -7.52 -8.4 0
v -7.52 -8.08 0
v -7.2 -8.08 0
v -7.5 -8.4 0
v -7.82 -8.4 0
v -7.82 -8.08 0
v -7.5 -8.08 0
v -7.8 -8.4 0
v -8.12 -8.4 0
v -8.12 -8.08 0
v -7.8 -8.08 0
v -8.099999 -8.4 0
v -8.42 -8.4 0
v -8.42 -8.08 0
v -8.099999 -8.08 0
v -8.4 -8.4 0
v -8.72 -8.4 0
v -8.72 -8.08 0
v -8.4 -8.08 0
v -8.7 -8.4 0
v -9.02 -8.4 0
v -9.02 -8.08 0
v -8.7 -8.08 0
v -4.5 -8.7 0
v -4.82 -8.7 0
v -4.82 -8.38 0
v -4.5 -8.38 0
v -4.8 -8.7 0
v -5.12 -8.7 0
v -5.12 -8.38 0
v -4.8 -8.38 0
v -5.1 -8.7 0
v -5.42 -8.7 0
v -5.42 -8.38 0
v -5.1 -8.38 0
v -5.4 -8.7 0
v -5.72 -8.7 0
v -5.72 -8.38 0
v -5.4 -8.38 0
v -5.7 -8.7 0
v -6.02 -8.7 0
v -6.02 -8.38 0
v -5.7 -8.38 0
v -6 -8.7 0
v -6.32 -8.7 0
v -6.32 -8.38 0
v -6 -8.38 0
v -6.3 -8.7 0
v -6.62 -8.7 0
v -6.62 -8.38 0
v -6.3 -8.38 0
v -6.6 -8.7 0
v -6.92 -8.7 0
v -6.92 -8.38 0
v -6.6 -8.38 0
v -6.9 -8.7 0
v -7.22 -8.7 0
v -7.22 -8.38 0
v -6.9 -8.38 0
v -7.2 -8.7 0
v -7.52 -8.7 0
v -7.52 -8.38 0
v -7.2 -8.38 0
v -7.5 -8.7 0
v -7.82 -8.7 0
v -7.82 -8.38 0
v -7.5 -8.38 0
v -7.8 -8.7 0
v -8.12 -8.7 0
v -8.12 -8.38 0
v -7.8 -8.38 0
v -8.099999 -8.7 0
v -8.42 -8.7 0
v -8.42 -8.38 0
v -8.099999 -8.38 0
v -8.4 -8.7 0
v -8.72 -8.7 0
v -8.72 -8.38 0
v -8.4 -8.38 0
v -8.7 -8.7 0
v -9.02 -8.7 0
v -9.02 -8.38 0
v -8.7 -8.38 0

# Texture cooridinates (Count = 56)
vt 0.2809917 0.5817491
vt 0.2975207 0.5817491
vt 0.2975207 0.6121673
vt 0.2809917 0.6121673
vt 0.2634298 0.5494297
vt 0.2799587 0.5494297
vt 0.2799587 0.5798479
vt 0.2634298 0.5798479
vt 0.3161157 0.4847909
vt 0.3326446 0.4847909
vt 0.3326446 0.5152091
vt 0.3161157 0.5152091
vt 0.2809917 0.5494297
vt 0.2975207 0.5494297
vt 0.2975207 0.5798479
vt 0.2809917 0.5798479
vt 0.2458678 0.5817491
vt 0.2623967 0.5817491
vt 0.2623967 0.6121673
vt 0.2458678 0.6121673
vt 0.2985537 0.5817491
vt 0.3150826 0.5817491
vt 0.3150826 0.6121673
vt 0.2985537 0.6121673
vt 0.2283058 0.4847909
vt 0.2448347 0.4847909
vt 0.2448347 0.5152091
vt 0.2283058 0.5152091
vt 0.2458678 0.4847909
vt 0.2623967 0.4847909
vt 0.2623967 0.5152091
vt 0.2458678 0.5152091
vt 0.2634298 0.5817491
vt 0.2799587 0.5817491
vt 0.2799587 0.6121673
vt 0.2634298 0.6121673
vt 0.2985537 0.4847909
vt 0.3150826 0.4847909
vt 0.3150826 0.5152091
vt 0.2985537 0.5152091
vt 0.3336777 0.4847909
vt 0.3502066 0.4847909
vt 0.3502066 0.5152091
vt 0.3336777 0.5152091
vt 0.2634298 0.4847909
vt 0.2799587 0.4847909
vt 0.2799587 0.5152091
vt 0.2634298 0.5152091
vt 0.2985537 0.5494297
vt 0.3150826 0.5494297
vt 0.3150826 0.5798479
vt 0.2985537 0.5798479
vt 0.2809917 0.4847909
vt 0.2975207 0.4847909
vt 0.2975207 0.5152091
vt 0.2809917 0.5152091

# Normal
vn 0 0 -1

# Mesh description
g c8_mesh_0003

# Faces
f 1/1/1 2/2/1 3/3/1 4/4/1
f 5/5/1 6/6/1 7/7/1 8/8/1
f 9/9/1 10/10/1 11/11/1 12/12/1
f 13/9/1 14/10/1 15/11/1 16/12/1
f 17/9/1 18/10/1 19/11/1 20/12/1
f 21/9/1 22/10/1 23/11/1 24/12/1
f 25/9/1 26/10/1 27/11/1 28/12/1
f 29/9/1 30/10/1 31/11/1 32/12/1
f 33/9/1 34/10/1 35/11/1 36/12/1
f 37/9/1 38/10/1 39/11/1 40/12/1
f 41/9/1 42/10/1 43/11/1 44/12/1
f 45/9/1 46/10/1 47/11/1 48/12/1
f 49/9/1 50/10/1 51/11/1 52/12/1
f 53/9/1 54/10/1 55/11/1 56/12/1
f 57/9/1 58/10/1 59/11/1 60/12/1
f 61/9/1 62/10/1 63/11/1 64/12/1
f 65/9/1 66/10/1 67/11/1 68/12/1
f 69/9/1 70/10/1 71/11/1 72/12/1
f 73/9/1 74/10/1 75/11/1 76/12/1
f 77/9/1 78/10/1 79/11/1 80/12/1
f 81/9/1 82/10/1 83/11/1 84/12/1
f 85/9/1 86/10/1 87/11/1 88/12/1
f 89/13/1 90/14/1 91/15/1 92/16/1
f 93/17/1 94/18/1 95/19/1 96/20/1
f 97/17/1 98/18/1 99/19/1 100/20/1
f 101/17/1 102/18/1 103/19/1 104/20/1
f 105/17/1 106/18/1 107/19/1 108/20/1
f 109/17/1 110/18/1 111/19/1 112/20/1
f 113/17/1 114/18/1 115/19/1 116/20/1
f 117/21/1 118/22/1 119/23/1 120/24/1
f 121/5/1 122/6/1 123/7/1 124/8/1
f 125/25/1 126/26/1 127/27/1 128/28/1
f 129/25/1 130/26/1 131/27/1 132/28/1
f 133/25/1 134/26/1 135/27/1 136/28/1
f 137/25/1 138/26/1 139/27/1 140/28/1
f 141/25/1 142/26/1 143/27/1 144/28/1
f 145/25/1 146/26/1 147/27/1 148/28/1
f 149/25/1 150/26/1 151/27/1 152/28/1
f 153/25/1 154/26/1 155/27/1 156/28/1
f 157/25/1 158/26/1 159/27/1 160/28/1
f 161/25/1 162/26/1 163/27/1 164/28/1
f 165/25/1 166/26/1 167/27/1 168/28/1
f 169/25/1 170/26/1 171/27/1 172/28/1
f 173/25/1 174/26/1 175/27/1 176/28/1
f 177/25/1 178/26/1 179/27/1 180/28/1
f 181/25/1 182/26/1 183/27/1 184/28/1
f 185/25/1 186/26/1 187/27/1 188/28/1
f 189/25/1 190/26/1 191/27/1 192/28/1
f 193/25/1 194/26/1 195/27/1 196/28/1
f 197/25/1 198/26/1 199/27/1 200/28/1
f 201/25/1 202/26/1 203/27/1 204/28/1
f 205/9/1 206/10/1 207/11/1 208/12/1
f 209/9/1 210/10/1 211/11/1 212/12/1
f 213/9/1 214/10/1 215/11/1 216/12/1
f 217/9/1 218/10/1 219/11/1 220/12/1
f 221/9/1 222/10/1 223/11/1 224/12/1
f 225/9/1 226/10/1 227/11/1 228/12/1
f 229/9/1 230/10/1 231/11/1 232/12/1
f 233/5/1 234/6/1 235/7/1 236/8/1
f 237/5/1 238/6/1 239/7/1 240/8/1
f 241/29/1 242/30/1 243/31/1 244/32/1
f 245/25/1 246/26/1 247/27/1 248/28/1
f 249/25/1 250/26/1 251/27/1 252/28/1
f 253/25/1 254/26/1 255/27/1 256/28/1
f 257/25/1 258/26/1 259/27/1 260/28/1
f 261/25/1 262/26/1 263/27/1 264/28/1
f 265/25/1 266/26/1 267/27/1 268/28/1
f 269/5/1 270/6/1 271/7/1 272/8/1
f 273/5/1 274/6/1 275/7/1 276/8/1
f 277/5/1 278/6/1 279/7/1 280/8/1
f 281/5/1 282/6/1 283/7/1 284/8/1
f 285/5/1 286/6/1 287/7/1 288/8/1
f 289/5/1 290/6/1 291/7/1 292/8/1
f 293/5/1 294/6/1 295/7/1 296/8/1
f 297/5/1 298/6/1 299/7/1 300/8/1
f 301/5/1 302/6/1 303/7/1 304/8/1
f 305/5/1 306/6/1 307/7/1 308/8/1
f 309/5/1 310/6/1 311/7/1 312/8/1
f 313/5/1 314/6/1 315/7/1 316/8/1
f 317/5/1 318/6/1 319/7/1 320/8/1
f 321/17/1 322/18/1 323/19/1 324/20/1
f 325/17/1 326/18/1 327/19/1 328/20/1
f 329/17/1 330/18/1 331/19/1 332/20/1
f 333/17/1 334/18/1 335/19/1 336/20/1
f 337/17/1 338/18/1 339/19/1 340/20/1
f 341/33/1 342/34/1 343/35/1 344/36/1
f 345/13/1 346/14/1 347/15/1 348/16/1
f 349/21/1 350/22/1 351/23/1 352/24/1
f 353/37/1 354/38/1 355/39/1 356/40/1
f 357/9/1 358/10/1 359/11/1 360/12/1
f 361/9/1 362/10/1 363/11/1 364/12/1
f 365/9/1 366/10/1 367/11/1 368/12/1
f 369/9/1 370/10/1 371/11/1 372/12/1
f 373/9/1 374/10/1 375/11/1 376/12/1
f 377/41/1 378/42/1 379/43/1 380/44/1
f 381/45/1 382/46/1 383/47/1 384/48/1
f 385/5/1 386/6/1 387/7/1 388/8/1
f 389/37/1 390/38/1 391/39/1 392/40/1
f 393/9/1 394/10/1 395/11/1 396/12/1
f 397/9/1 398/10/1 399/11/1 400/12/1
f 401/9/1 402/10/1 403/11/1 404/12/1
f 405/9/1 406/10/1 407/11/1 408/12/1
f 409/9/1 410/10/1 411/11/1 412/12/1
f 413/41/1 414/42/1 415/43/1 416/44/1
f 417/49/1 418/50/1 419/51/1 420/52/1
f 421/29/1 422/30/1 423/31/1 424/32/1
f 425/25/1 426/26/1 427/27/1 428/28/1
f 429/25/1 430/26/1 431/27/1 432/28/1
f 433/25/1 434/26/1 435/27/1 436/28/1
f 437/25/1 438/26/1 439/27/1 440/28/1
f 441/25/1 442/26/1 443/27/1 444/28/1
f 445/53/1 446/54/1 447/55/1 448/56/1
f 449/37/1 450/38/1 451/39/1 452/40/1
f 453/9/1 454/10/1 455/11/1 456/12/1
f 457/9/1 458/10/1 459/11/1 460/12/1
f 461/9/1 462/10/1 463/11/1 464/12/1
f 465/9/1 466/10/1 467/11/1 468/12/1
f 469/9/1 470/10/1 471/11/1 472/12/1
f 473/9/1 474/10/1 475/11/1 476/12/1
f 477/9/1 478/10/1 479/11/1 480/12/1
f 481/9/1 482/10/1 483/11/1 484/12/1
f 485/9/1 486/10/1 487/11/1 488/12/1
f 489/9/1 490/10/1 491/11/1 492/12/1
f 493/9/1 494/10/1 495/11/1 496/12/1
f 497/9/1 498/10/1 499/11/1 500/12/1
f 501/9/1 502/10/1 503/11/1 504/12/1
f 505/41/1 506/42/1 507/43/1 508/44/1
f 509/37/1 510/38/1 511/39/1 512/40/1
f 513/9/1 514/10/1 515/11/1 516/12/1
f 517/9/1 518/10/1 519/11/1 520/12/1
f 521/9/1 522/10/1 523/11/1 524/12/1
f 525/9/1 526/10/1 527/11/1 528/12/1
f 529/9/1 530/10/1 531/11/1 532/12/1
f 533/9/1 534/10/1 535/11/1 536/12/1
f 537/9/1 538/10/1 539/11/1 540/12/1
f 541/9/1 542/10/1 543/11/1 544/12/1
f 545/9/1 546/10/1 547/11/1 548/12/1
f 549/9/1 550/10/1 551/11/1 552/12/1
f 553/9/1 554/10/1 555/11/1 556/12/1
f 557/9/1 558/10/1 559/11/1 560/12/1
f 561/9/1 562/10/1 563/11/1 564/12/1
f 565/41/1 566/42/1 567/43/1 568/44/1
f 569/29/1 570/30/1 571/31/1 572/32/1
f 573/25/1 574/26/1 575/27/1 576/28/1
f 577/25/1 578/26/1 579/27/1 580/28/1
f 581/25/1 582/26/1 583/27/1 584/28/1
f 585/25/1 586/26/1 587/27/1 588/28/1
f 589/25/1 590/26/1 591/27/1 592/28/1
f 593/25/1 594/26/1 595/27/1 596/28/1
f 597/25/1 598/26/1 599/27/1 600/28/1
f 601/25/1 602/26/1 603/27/1 604/28/1
f 605/25/1 606/26/1 607/27/1 608/28/1
f 609/25/1 610/26/1 611/27/1 612/28/1
f 613/25/1 614/26/1 615/27/1 616/28/1
f 617/25/1 618/26/1 619/27/1 620/28/1
f 621/25/1 622/26/1 623/27/1 624/28/1
f 625/53/1 626/54/1 627/55/1 628/56/1

