# Tiled2Unity generated file. Do not modify by hand.
# Wavefront file for 'c8_mesh_0004.obj'

# Vertices (Count = 384)
v -2.1 -5.7 0
v -2.42 -5.7 0
v -2.42 -5.38 0
v -2.1 -5.38 0
v -2.4 -5.7 0
v -2.72 -5.7 0
v -2.72 -5.38 0
v -2.4 -5.38 0
v -2.7 -5.7 0
v -3.02 -5.7 0
v -3.02 -5.38 0
v -2.7 -5.38 0
v -3 -5.7 0
v -3.32 -5.7 0
v -3.32 -5.38 0
v -3 -5.38 0
v -3.3 -5.7 0
v -3.62 -5.7 0
v -3.62 -5.38 0
v -3.3 -5.38 0
v -3.6 -5.7 0
v -3.92 -5.7 0
v -3.92 -5.38 0
v -3.6 -5.38 0
v -1.8 -6 0
v -2.12 -6 0
v -2.12 -5.68 0
v -1.8 -5.68 0
v -2.1 -6 0
v -2.42 -6 0
v -2.42 -5.68 0
v -2.1 -5.68 0
v -2.4 -6 0
v -2.72 -6 0
v -2.72 -5.68 0
v -2.4 -5.68 0
v -2.7 -6 0
v -3.02 -6 0
v -3.02 -5.68 0
v -2.7 -5.68 0
v -3 -6 0
v -3.32 -6 0
v -3.32 -5.68 0
v -3 -5.68 0
v -3.3 -6 0
v -3.62 -6 0
v -3.62 -5.68 0
v -3.3 -5.68 0
v -3.6 -6 0
v -3.92 -6 0
v -3.92 -5.68 0
v -3.6 -5.68 0
v -3.9 -6 0
v -4.22 -6 0
v -4.22 -5.68 0
v -3.9 -5.68 0
v -1.8 -6.3 0
v -2.12 -6.3 0
v -2.12 -5.98 0
v -1.8 -5.98 0
v -2.1 -6.3 0
v -2.42 -6.3 0
v -2.42 -5.98 0
v -2.1 -5.98 0
v -2.4 -6.3 0
v -2.72 -6.3 0
v -2.72 -5.98 0
v -2.4 -5.98 0
v -2.7 -6.3 0
v -3.02 -6.3 0
v -3.02 -5.98 0
v -2.7 -5.98 0
v -3 -6.3 0
v -3.32 -6.3 0
v -3.32 -5.98 0
v -3 -5.98 0
v -3.3 -6.3 0
v -3.62 -6.3 0
v -3.62 -5.98 0
v -3.3 -5.98 0
v -3.6 -6.3 0
v -3.92 -6.3 0
v -3.92 -5.98 0
v -3.6 -5.98 0
v -3.9 -6.3 0
v -4.22 -6.3 0
v -4.22 -5.98 0
v -3.9 -5.98 0
v -1.8 -6.6 0
v -2.12 -6.6 0
v -2.12 -6.28 0
v -1.8 -6.28 0
v -2.1 -6.6 0
v -2.42 -6.6 0
v -2.42 -6.28 0
v -2.1 -6.28 0
v -2.4 -6.6 0
v -2.72 -6.6 0
v -2.72 -6.28 0
v -2.4 -6.28 0
v -2.7 -6.6 0
v -3.02 -6.6 0
v -3.02 -6.28 0
v -2.7 -6.28 0
v -3 -6.6 0
v -3.32 -6.6 0
v -3.32 -6.28 0
v -3 -6.28 0
v -3.3 -6.6 0
v -3.62 -6.6 0
v -3.62 -6.28 0
v -3.3 -6.28 0
v -3.6 -6.6 0
v -3.92 -6.6 0
v -3.92 -6.28 0
v -3.6 -6.28 0
v -3.9 -6.6 0
v -4.22 -6.6 0
v -4.22 -6.28 0
v -3.9 -6.28 0
v -4.2 -6.6 0
v -4.52 -6.6 0
v -4.52 -6.28 0
v -4.2 -6.28 0
v -2.1 -6.9 0
v -2.42 -6.9 0
v -2.42 -6.58 0
v -2.1 -6.58 0
v -2.4 -6.9 0
v -2.72 -6.9 0
v -2.72 -6.58 0
v -2.4 -6.58 0
v -2.7 -6.9 0
v -3.02 -6.9 0
v -3.02 -6.58 0
v -2.7 -6.58 0
v -3 -6.9 0
v -3.32 -6.9 0
v -3.32 -6.58 0
v -3 -6.58 0
v -3.3 -6.9 0
v -3.62 -6.9 0
v -3.62 -6.58 0
v -3.3 -6.58 0
v -3.6 -6.9 0
v -3.92 -6.9 0
v -3.92 -6.58 0
v -3.6 -6.58 0
v -3.9 -6.9 0
v -4.22 -6.9 0
v -4.22 -6.58 0
v -3.9 -6.58 0
v -4.2 -6.9 0
v -4.52 -6.9 0
v -4.52 -6.58 0
v -4.2 -6.58 0
v -2.1 -7.2 0
v -2.42 -7.2 0
v -2.42 -6.88 0
v -2.1 -6.88 0
v -2.4 -7.2 0
v -2.72 -7.2 0
v -2.72 -6.88 0
v -2.4 -6.88 0
v -2.7 -7.2 0
v -3.02 -7.2 0
v -3.02 -6.88 0
v -2.7 -6.88 0
v -3 -7.2 0
v -3.32 -7.2 0
v -3.32 -6.88 0
v -3 -6.88 0
v -3.3 -7.2 0
v -3.62 -7.2 0
v -3.62 -6.88 0
v -3.3 -6.88 0
v -3.6 -7.2 0
v -3.92 -7.2 0
v -3.92 -6.88 0
v -3.6 -6.88 0
v -3.9 -7.2 0
v -4.22 -7.2 0
v -4.22 -6.88 0
v -3.9 -6.88 0
v -4.2 -7.2 0
v -4.52 -7.2 0
v -4.52 -6.88 0
v -4.2 -6.88 0
v -2.1 -7.5 0
v -2.42 -7.5 0
v -2.42 -7.18 0
v -2.1 -7.18 0
v -2.4 -7.5 0
v -2.72 -7.5 0
v -2.72 -7.18 0
v -2.4 -7.18 0
v -2.7 -7.5 0
v -3.02 -7.5 0
v -3.02 -7.18 0
v -2.7 -7.18 0
v -3 -7.5 0
v -3.32 -7.5 0
v -3.32 -7.18 0
v -3 -7.18 0
v -3.3 -7.5 0
v -3.62 -7.5 0
v -3.62 -7.18 0
v -3.3 -7.18 0
v -3.6 -7.5 0
v -3.92 -7.5 0
v -3.92 -7.18 0
v -3.6 -7.18 0
v -3.9 -7.5 0
v -4.22 -7.5 0
v -4.22 -7.18 0
v -3.9 -7.18 0
v -4.2 -7.5 0
v -4.52 -7.5 0
v -4.52 -7.18 0
v -4.2 -7.18 0
v -2.4 -7.8 0
v -2.72 -7.8 0
v -2.72 -7.48 0
v -2.4 -7.48 0
v -2.7 -7.8 0
v -3.02 -7.8 0
v -3.02 -7.48 0
v -2.7 -7.48 0
v -3 -7.8 0
v -3.32 -7.8 0
v -3.32 -7.48 0
v -3 -7.48 0
v -3.3 -7.8 0
v -3.62 -7.8 0
v -3.62 -7.48 0
v -3.3 -7.48 0
v -3.6 -7.8 0
v -3.92 -7.8 0
v -3.92 -7.48 0
v -3.6 -7.48 0
v -3.9 -7.8 0
v -4.22 -7.8 0
v -4.22 -7.48 0
v -3.9 -7.48 0
v -4.2 -7.8 0
v -4.52 -7.8 0
v -4.52 -7.48 0
v -4.2 -7.48 0
v -2.4 -8.099999 0
v -2.72 -8.099999 0
v -2.72 -7.78 0
v -2.4 -7.78 0
v -2.7 -8.099999 0
v -3.02 -8.099999 0
v -3.02 -7.78 0
v -2.7 -7.78 0
v -3 -8.099999 0
v -3.32 -8.099999 0
v -3.32 -7.78 0
v -3 -7.78 0
v -3.3 -8.099999 0
v -3.62 -8.099999 0
v -3.62 -7.78 0
v -3.3 -7.78 0
v -3.6 -8.099999 0
v -3.92 -8.099999 0
v -3.92 -7.78 0
v -3.6 -7.78 0
v -3.9 -8.099999 0
v -4.22 -8.099999 0
v -4.22 -7.78 0
v -3.9 -7.78 0
v -4.2 -8.099999 0
v -4.52 -8.099999 0
v -4.52 -7.78 0
v -4.2 -7.78 0
v -2.4 -8.4 0
v -2.72 -8.4 0
v -2.72 -8.08 0
v -2.4 -8.08 0
v -2.7 -8.4 0
v -3.02 -8.4 0
v -3.02 -8.08 0
v -2.7 -8.08 0
v -3 -8.4 0
v -3.32 -8.4 0
v -3.32 -8.08 0
v -3 -8.08 0
v -3.3 -8.4 0
v -3.62 -8.4 0
v -3.62 -8.08 0
v -3.3 -8.08 0
v -3.6 -8.4 0
v -3.92 -8.4 0
v -3.92 -8.08 0
v -3.6 -8.08 0
v -3.9 -8.4 0
v -4.22 -8.4 0
v -4.22 -8.08 0
v -3.9 -8.08 0
v -4.2 -8.4 0
v -4.52 -8.4 0
v -4.52 -8.08 0
v -4.2 -8.08 0
v -2.7 -8.7 0
v -3.02 -8.7 0
v -3.02 -8.38 0
v -2.7 -8.38 0
v -3 -8.7 0
v -3.32 -8.7 0
v -3.32 -8.38 0
v -3 -8.38 0
v -3.3 -8.7 0
v -3.62 -8.7 0
v -3.62 -8.38 0
v -3.3 -8.38 0
v -3.6 -8.7 0
v -3.92 -8.7 0
v -3.92 -8.38 0
v -3.6 -8.38 0
v -3.9 -8.7 0
v -4.22 -8.7 0
v -4.22 -8.38 0
v -3.9 -8.38 0
v -2.7 -9 0
v -3.02 -9 0
v -3.02 -8.679999 0
v -2.7 -8.679999 0
v -3 -9 0
v -3.32 -9 0
v -3.32 -8.679999 0
v -3 -8.679999 0
v -3.3 -9 0
v -3.62 -9 0
v -3.62 -8.679999 0
v -3.3 -8.679999 0
v -3.6 -9 0
v -3.92 -9 0
v -3.92 -8.679999 0
v -3.6 -8.679999 0
v -3.9 -9 0
v -4.22 -9 0
v -4.22 -8.679999 0
v -3.9 -8.679999 0
v -2.7 -9.3 0
v -3.02 -9.3 0
v -3.02 -8.98 0
v -2.7 -8.98 0
v -3 -9.3 0
v -3.32 -9.3 0
v -3.32 -8.98 0
v -3 -8.98 0
v -3.3 -9.3 0
v -3.62 -9.3 0
v -3.62 -8.98 0
v -3.3 -8.98 0
v -3.6 -9.3 0
v -3.92 -9.3 0
v -3.92 -8.98 0
v -3.6 -8.98 0
v -3.9 -9.3 0
v -4.22 -9.3 0
v -4.22 -8.98 0
v -3.9 -8.98 0
v -2.7 -9.599999 0
v -3.02 -9.599999 0
v -3.02 -9.28 0
v -2.7 -9.28 0
v -3 -9.599999 0
v -3.32 -9.599999 0
v -3.32 -9.28 0
v -3 -9.28 0
v -3.3 -9.599999 0
v -3.62 -9.599999 0
v -3.62 -9.28 0
v -3.3 -9.28 0
v -3.6 -9.599999 0
v -3.92 -9.599999 0
v -3.92 -9.28 0
v -3.6 -9.28 0
v -3.9 -9.599999 0
v -4.22 -9.599999 0
v -4.22 -9.28 0
v -3.9 -9.28 0

# Texture cooridinates (Count = 68)
vt 0 0.390164
vt 0.03252032 0.390164
vt 0.03252032 0.442623
vt 0 0.442623
vt 0.03455285 0.390164
vt 0.06707317 0.390164
vt 0.06707317 0.442623
vt 0.03455285 0.442623
vt 0.06910569 0.390164
vt 0.101626 0.390164
vt 0.101626 0.442623
vt 0.06910569 0.442623
vt 0.1382114 0.2229508
vt 0.1707317 0.2229508
vt 0.1707317 0.2754098
vt 0.1382114 0.2754098
vt 0.03455285 0.3344262
vt 0.06707317 0.3344262
vt 0.06707317 0.3868852
vt 0.03455285 0.3868852
vt 0.1036585 0.2229508
vt 0.1361789 0.2229508
vt 0.1361789 0.2754098
vt 0.1036585 0.2754098
vt 0 0.3344262
vt 0.03252032 0.3344262
vt 0.03252032 0.3868852
vt 0 0.3868852
vt 0.06910569 0.3344262
vt 0.101626 0.3344262
vt 0.101626 0.3868852
vt 0.06910569 0.3868852
vt 0 0.2786885
vt 0.03252032 0.2786885
vt 0.03252032 0.3311476
vt 0 0.3311476
vt 0.1382114 0.2786885
vt 0.1707317 0.2786885
vt 0.1707317 0.3311476
vt 0.1382114 0.3311476
vt 0.1036585 0.2786885
vt 0.1361789 0.2786885
vt 0.1361789 0.3311476
vt 0.1036585 0.3311476
vt 0.06910569 0.2786885
vt 0.101626 0.2786885
vt 0.101626 0.3311476
vt 0.06910569 0.3311476
vt 0 0.1672131
vt 0.03252032 0.1672131
vt 0.03252032 0.2196721
vt 0 0.2196721
vt 0.1036585 0
vt 0.1361789 0
vt 0.1361789 0.052459
vt 0.1036585 0.052459
vt 0.1382114 0.1672131
vt 0.1707317 0.1672131
vt 0.1707317 0.2196721
vt 0.1382114 0.2196721
vt 0.1382114 0.1114754
vt 0.1707317 0.1114754
vt 0.1707317 0.1639344
vt 0.1382114 0.1639344
vt 0.1382114 0.05573773
vt 0.1707317 0.05573773
vt 0.1707317 0.1081967
vt 0.1382114 0.1081967

# Normal
vn 0 0 -1

# Mesh description
g c8_mesh_0004

# Faces
f 1/1/1 2/2/1 3/3/1 4/4/1
f 5/5/1 6/6/1 7/7/1 8/8/1
f 9/5/1 10/6/1 11/7/1 12/8/1
f 13/5/1 14/6/1 15/7/1 16/8/1
f 17/5/1 18/6/1 19/7/1 20/8/1
f 21/9/1 22/10/1 23/11/1 24/12/1
f 25/1/1 26/2/1 27/3/1 28/4/1
f 29/13/1 30/14/1 31/15/1 32/16/1
f 33/17/1 34/18/1 35/19/1 36/20/1
f 37/17/1 38/18/1 39/19/1 40/20/1
f 41/17/1 42/18/1 43/19/1 44/20/1
f 45/17/1 46/18/1 47/19/1 48/20/1
f 49/21/1 50/22/1 51/23/1 52/24/1
f 53/9/1 54/10/1 55/11/1 56/12/1
f 57/25/1 58/26/1 59/27/1 60/28/1
f 61/17/1 62/18/1 63/19/1 64/20/1
f 65/17/1 66/18/1 67/19/1 68/20/1
f 69/17/1 70/18/1 71/19/1 72/20/1
f 73/17/1 74/18/1 75/19/1 76/20/1
f 77/17/1 78/18/1 79/19/1 80/20/1
f 81/17/1 82/18/1 83/19/1 84/20/1
f 85/29/1 86/30/1 87/31/1 88/32/1
f 89/33/1 90/34/1 91/35/1 92/36/1
f 93/37/1 94/38/1 95/39/1 96/40/1
f 97/17/1 98/18/1 99/19/1 100/20/1
f 101/17/1 102/18/1 103/19/1 104/20/1
f 105/17/1 106/18/1 107/19/1 108/20/1
f 109/17/1 110/18/1 111/19/1 112/20/1
f 113/17/1 114/18/1 115/19/1 116/20/1
f 117/21/1 118/22/1 119/23/1 120/24/1
f 121/9/1 122/10/1 123/11/1 124/12/1
f 125/25/1 126/26/1 127/27/1 128/28/1
f 129/17/1 130/18/1 131/19/1 132/20/1
f 133/17/1 134/18/1 135/19/1 136/20/1
f 137/17/1 138/18/1 139/19/1 140/20/1
f 141/17/1 142/18/1 143/19/1 144/20/1
f 145/17/1 146/18/1 147/19/1 148/20/1
f 149/17/1 150/18/1 151/19/1 152/20/1
f 153/29/1 154/30/1 155/31/1 156/32/1
f 157/25/1 158/26/1 159/27/1 160/28/1
f 161/17/1 162/18/1 163/19/1 164/20/1
f 165/17/1 166/18/1 167/19/1 168/20/1
f 169/17/1 170/18/1 171/19/1 172/20/1
f 173/17/1 174/18/1 175/19/1 176/20/1
f 177/17/1 178/18/1 179/19/1 180/20/1
f 181/17/1 182/18/1 183/19/1 184/20/1
f 185/29/1 186/30/1 187/31/1 188/32/1
f 189/33/1 190/34/1 191/35/1 192/36/1
f 193/37/1 194/38/1 195/39/1 196/40/1
f 197/17/1 198/18/1 199/19/1 200/20/1
f 201/17/1 202/18/1 203/19/1 204/20/1
f 205/17/1 206/18/1 207/19/1 208/20/1
f 209/17/1 210/18/1 211/19/1 212/20/1
f 213/17/1 214/18/1 215/19/1 216/20/1
f 217/29/1 218/30/1 219/31/1 220/32/1
f 221/25/1 222/26/1 223/27/1 224/28/1
f 225/17/1 226/18/1 227/19/1 228/20/1
f 229/17/1 230/18/1 231/19/1 232/20/1
f 233/17/1 234/18/1 235/19/1 236/20/1
f 237/17/1 238/18/1 239/19/1 240/20/1
f 241/17/1 242/18/1 243/19/1 244/20/1
f 245/29/1 246/30/1 247/31/1 248/32/1
f 249/25/1 250/26/1 251/27/1 252/28/1
f 253/17/1 254/18/1 255/19/1 256/20/1
f 257/17/1 258/18/1 259/19/1 260/20/1
f 261/17/1 262/18/1 263/19/1 264/20/1
f 265/17/1 266/18/1 267/19/1 268/20/1
f 269/17/1 270/18/1 271/19/1 272/20/1
f 273/29/1 274/30/1 275/31/1 276/32/1
f 277/33/1 278/34/1 279/35/1 280/36/1
f 281/37/1 282/38/1 283/39/1 284/40/1
f 285/17/1 286/18/1 287/19/1 288/20/1
f 289/17/1 290/18/1 291/19/1 292/20/1
f 293/17/1 294/18/1 295/19/1 296/20/1
f 297/41/1 298/42/1 299/43/1 300/44/1
f 301/45/1 302/46/1 303/47/1 304/48/1
f 305/49/1 306/50/1 307/51/1 308/52/1
f 309/53/1 310/54/1 311/55/1 312/56/1
f 313/53/1 314/54/1 315/55/1 316/56/1
f 317/53/1 318/54/1 319/55/1 320/56/1
f 321/57/1 322/58/1 323/59/1 324/60/1
f 325/61/1 326/62/1 327/63/1 328/64/1
f 329/61/1 330/62/1 331/63/1 332/64/1
f 333/61/1 334/62/1 335/63/1 336/64/1
f 337/61/1 338/62/1 339/63/1 340/64/1
f 341/61/1 342/62/1 343/63/1 344/64/1
f 345/61/1 346/62/1 347/63/1 348/64/1
f 349/61/1 350/62/1 351/63/1 352/64/1
f 353/61/1 354/62/1 355/63/1 356/64/1
f 357/61/1 358/62/1 359/63/1 360/64/1
f 361/61/1 362/62/1 363/63/1 364/64/1
f 365/65/1 366/66/1 367/67/1 368/68/1
f 369/65/1 370/66/1 371/67/1 372/68/1
f 373/65/1 374/66/1 375/67/1 376/68/1
f 377/65/1 378/66/1 379/67/1 380/68/1
f 381/65/1 382/66/1 383/67/1 384/68/1

