# Tiled2Unity generated file. Do not modify by hand.
# Wavefront file for 'c8_mesh_0001.obj'

# Vertices (Count = 204)
v -0.3 -3.9 0
v -0.62 -3.9 0
v -0.62 -3.58 0
v -0.3 -3.58 0
v -0.6 -3.9 0
v -0.92 -3.9 0
v -0.92 -3.58 0
v -0.6 -3.58 0
v -0.9 -3.9 0
v -1.22 -3.9 0
v -1.22 -3.58 0
v -0.9 -3.58 0
v -1.2 -3.9 0
v -1.52 -3.9 0
v -1.52 -3.58 0
v -1.2 -3.58 0
v -1.5 -3.9 0
v -1.82 -3.9 0
v -1.82 -3.58 0
v -1.5 -3.58 0
v -1.8 -3.9 0
v -2.12 -3.9 0
v -2.12 -3.58 0
v -1.8 -3.58 0
v -2.1 -3.9 0
v -2.42 -3.9 0
v -2.42 -3.58 0
v -2.1 -3.58 0
v -2.4 -3.9 0
v -2.72 -3.9 0
v -2.72 -3.58 0
v -2.4 -3.58 0
v -2.7 -3.9 0
v -3.02 -3.9 0
v -3.02 -3.58 0
v -2.7 -3.58 0
v -3 -3.9 0
v -3.32 -3.9 0
v -3.32 -3.58 0
v -3 -3.58 0
v -3.3 -3.9 0
v -3.62 -3.9 0
v -3.62 -3.58 0
v -3.3 -3.58 0
v -3.6 -3.9 0
v -3.92 -3.9 0
v -3.92 -3.58 0
v -3.6 -3.58 0
v -3.9 -3.9 0
v -4.22 -3.9 0
v -4.22 -3.58 0
v -3.9 -3.58 0
v -4.2 -3.9 0
v -4.52 -3.9 0
v -4.52 -3.58 0
v -4.2 -3.58 0
v -4.5 -3.9 0
v -4.82 -3.9 0
v -4.82 -3.58 0
v -4.5 -3.58 0
v -4.8 -3.9 0
v -5.12 -3.9 0
v -5.12 -3.58 0
v -4.8 -3.58 0
v -5.1 -3.9 0
v -5.42 -3.9 0
v -5.42 -3.58 0
v -5.1 -3.58 0
v -5.4 -3.9 0
v -5.72 -3.9 0
v -5.72 -3.58 0
v -5.4 -3.58 0
v -5.7 -3.9 0
v -6.02 -3.9 0
v -6.02 -3.58 0
v -5.7 -3.58 0
v -6 -3.9 0
v -6.32 -3.9 0
v -6.32 -3.58 0
v -6 -3.58 0
v -6.3 -3.9 0
v -6.62 -3.9 0
v -6.62 -3.58 0
v -6.3 -3.58 0
v -8.4 -4.2 0
v -8.72 -4.2 0
v -8.72 -3.88 0
v -8.4 -3.88 0
v -8.4 -4.5 0
v -8.72 -4.5 0
v -8.72 -4.18 0
v -8.4 -4.18 0
v -8.4 -4.8 0
v -8.72 -4.8 0
v -8.72 -4.48 0
v -8.4 -4.48 0
v -8.4 -5.1 0
v -8.72 -5.1 0
v -8.72 -4.78 0
v -8.4 -4.78 0
v -8.4 -5.4 0
v -8.72 -5.4 0
v -8.72 -5.08 0
v -8.4 -5.08 0
v -8.4 -5.7 0
v -8.72 -5.7 0
v -8.72 -5.38 0
v -8.4 -5.38 0
v -8.4 -6 0
v -8.72 -6 0
v -8.72 -5.68 0
v -8.4 -5.68 0
v -8.4 -6.3 0
v -8.72 -6.3 0
v -8.72 -5.98 0
v -8.4 -5.98 0
v 0 -6.6 0
v -0.32 -6.6 0
v -0.32 -6.28 0
v 0 -6.28 0
v -8.4 -6.6 0
v -8.72 -6.6 0
v -8.72 -6.28 0
v -8.4 -6.28 0
v 0 -6.9 0
v -0.32 -6.9 0
v -0.32 -6.58 0
v 0 -6.58 0
v -8.4 -6.9 0
v -8.72 -6.9 0
v -8.72 -6.58 0
v -8.4 -6.58 0
v 0 -7.2 0
v -0.32 -7.2 0
v -0.32 -6.88 0
v 0 -6.88 0
v -8.7 -7.2 0
v -9.02 -7.2 0
v -9.02 -6.88 0
v -8.7 -6.88 0
v -8.7 -7.5 0
v -9.02 -7.5 0
v -9.02 -7.18 0
v -8.7 -7.18 0
v -4.5 -7.8 0
v -4.82 -7.8 0
v -4.82 -7.48 0
v -4.5 -7.48 0
v -4.8 -7.8 0
v -5.12 -7.8 0
v -5.12 -7.48 0
v -4.8 -7.48 0
v -5.1 -7.8 0
v -5.42 -7.8 0
v -5.42 -7.48 0
v -5.1 -7.48 0
v -5.4 -7.8 0
v -5.72 -7.8 0
v -5.72 -7.48 0
v -5.4 -7.48 0
v -5.7 -7.8 0
v -6.02 -7.8 0
v -6.02 -7.48 0
v -5.7 -7.48 0
v -6 -7.8 0
v -6.32 -7.8 0
v -6.32 -7.48 0
v -6 -7.48 0
v -6.3 -7.8 0
v -6.62 -7.8 0
v -6.62 -7.48 0
v -6.3 -7.48 0
v -6.6 -7.8 0
v -6.92 -7.8 0
v -6.92 -7.48 0
v -6.6 -7.48 0
v -6.9 -7.8 0
v -7.22 -7.8 0
v -7.22 -7.48 0
v -6.9 -7.48 0
v -7.2 -7.8 0
v -7.52 -7.8 0
v -7.52 -7.48 0
v -7.2 -7.48 0
v -7.5 -7.8 0
v -7.82 -7.8 0
v -7.82 -7.48 0
v -7.5 -7.48 0
v -7.8 -7.8 0
v -8.12 -7.8 0
v -8.12 -7.48 0
v -7.8 -7.48 0
v -8.099999 -7.8 0
v -8.42 -7.8 0
v -8.42 -7.48 0
v -8.099999 -7.48 0
v -8.4 -7.8 0
v -8.72 -7.8 0
v -8.72 -7.48 0
v -8.4 -7.48 0
v -8.7 -7.8 0
v -9.02 -7.8 0
v -9.02 -7.48 0
v -8.7 -7.48 0

# Texture cooridinates (Count = 20)
vt 0.2458678 0.5817491
vt 0.2623967 0.5817491
vt 0.2623967 0.6121673
vt 0.2458678 0.6121673
vt 0.2985537 0.5817491
vt 0.3150826 0.5817491
vt 0.3150826 0.6121673
vt 0.2985537 0.6121673
vt 0.2634298 0.5494297
vt 0.2799587 0.5494297
vt 0.2799587 0.5798479
vt 0.2634298 0.5798479
vt 0.2809917 0.5494297
vt 0.2975207 0.5494297
vt 0.2975207 0.5798479
vt 0.2809917 0.5798479
vt 0.2283058 0.5817491
vt 0.2448347 0.5817491
vt 0.2448347 0.6121673
vt 0.2283058 0.6121673

# Normal
vn 0 0 -1

# Mesh description
g c8_mesh_0001

# Faces
f 1/1/1 2/2/1 3/3/1 4/4/1
f 5/1/1 6/2/1 7/3/1 8/4/1
f 9/1/1 10/2/1 11/3/1 12/4/1
f 13/1/1 14/2/1 15/3/1 16/4/1
f 17/1/1 18/2/1 19/3/1 20/4/1
f 21/1/1 22/2/1 23/3/1 24/4/1
f 25/1/1 26/2/1 27/3/1 28/4/1
f 29/1/1 30/2/1 31/3/1 32/4/1
f 33/1/1 34/2/1 35/3/1 36/4/1
f 37/1/1 38/2/1 39/3/1 40/4/1
f 41/1/1 42/2/1 43/3/1 44/4/1
f 45/1/1 46/2/1 47/3/1 48/4/1
f 49/1/1 50/2/1 51/3/1 52/4/1
f 53/1/1 54/2/1 55/3/1 56/4/1
f 57/1/1 58/2/1 59/3/1 60/4/1
f 61/1/1 62/2/1 63/3/1 64/4/1
f 65/1/1 66/2/1 67/3/1 68/4/1
f 69/1/1 70/2/1 71/3/1 72/4/1
f 73/1/1 74/2/1 75/3/1 76/4/1
f 77/1/1 78/2/1 79/3/1 80/4/1
f 81/5/1 82/6/1 83/7/1 84/8/1
f 85/1/1 86/2/1 87/3/1 88/4/1
f 89/1/1 90/2/1 91/3/1 92/4/1
f 93/1/1 94/2/1 95/3/1 96/4/1
f 97/1/1 98/2/1 99/3/1 100/4/1
f 101/1/1 102/2/1 103/3/1 104/4/1
f 105/1/1 106/2/1 107/3/1 108/4/1
f 109/1/1 110/2/1 111/3/1 112/4/1
f 113/1/1 114/2/1 115/3/1 116/4/1
f 117/9/1 118/10/1 119/11/1 120/12/1
f 121/1/1 122/2/1 123/3/1 124/4/1
f 125/9/1 126/10/1 127/11/1 128/12/1
f 129/1/1 130/2/1 131/3/1 132/4/1
f 133/13/1 134/14/1 135/15/1 136/16/1
f 137/1/1 138/2/1 139/3/1 140/4/1
f 141/1/1 142/2/1 143/3/1 144/4/1
f 145/17/1 146/18/1 147/19/1 148/20/1
f 149/1/1 150/2/1 151/3/1 152/4/1
f 153/1/1 154/2/1 155/3/1 156/4/1
f 157/1/1 158/2/1 159/3/1 160/4/1
f 161/1/1 162/2/1 163/3/1 164/4/1
f 165/1/1 166/2/1 167/3/1 168/4/1
f 169/1/1 170/2/1 171/3/1 172/4/1
f 173/1/1 174/2/1 175/3/1 176/4/1
f 177/1/1 178/2/1 179/3/1 180/4/1
f 181/1/1 182/2/1 183/3/1 184/4/1
f 185/1/1 186/2/1 187/3/1 188/4/1
f 189/1/1 190/2/1 191/3/1 192/4/1
f 193/1/1 194/2/1 195/3/1 196/4/1
f 197/1/1 198/2/1 199/3/1 200/4/1
f 201/1/1 202/2/1 203/3/1 204/4/1

