# Tiled2Unity generated file. Do not modify by hand.
# Wavefront file for 'c4_mesh_0001.obj'

# Vertices (Count = 76)
v -1.2 -2.7 0
v -1.52 -2.7 0
v -1.52 -2.38 0
v -1.2 -2.38 0
v -1.2 -3 0
v -1.52 -3 0
v -1.52 -2.68 0
v -1.2 -2.68 0
v -1.2 -3.3 0
v -1.52 -3.3 0
v -1.52 -2.98 0
v -1.2 -2.98 0
v -1.2 -3.6 0
v -1.52 -3.6 0
v -1.52 -3.28 0
v -1.2 -3.28 0
v -1.2 -3.9 0
v -1.52 -3.9 0
v -1.52 -3.58 0
v -1.2 -3.58 0
v -1.2 -4.2 0
v -1.52 -4.2 0
v -1.52 -3.88 0
v -1.2 -3.88 0
v -1.2 -4.5 0
v -1.52 -4.5 0
v -1.52 -4.18 0
v -1.2 -4.18 0
v -1.2 -4.8 0
v -1.52 -4.8 0
v -1.52 -4.48 0
v -1.2 -4.48 0
v -1.2 -5.1 0
v -1.52 -5.1 0
v -1.52 -4.78 0
v -1.2 -4.78 0
v -1.5 -5.1 0
v -1.82 -5.1 0
v -1.82 -4.78 0
v -1.5 -4.78 0
v -1.8 -5.1 0
v -2.12 -5.1 0
v -2.12 -4.78 0
v -1.8 -4.78 0
v -2.1 -5.1 0
v -2.42 -5.1 0
v -2.42 -4.78 0
v -2.1 -4.78 0
v -2.4 -5.1 0
v -2.72 -5.1 0
v -2.72 -4.78 0
v -2.4 -4.78 0
v -1.2 -5.4 0
v -1.52 -5.4 0
v -1.52 -5.08 0
v -1.2 -5.08 0
v -2.4 -5.4 0
v -2.72 -5.4 0
v -2.72 -5.08 0
v -2.4 -5.08 0
v -2.7 -5.4 0
v -3.02 -5.4 0
v -3.02 -5.08 0
v -2.7 -5.08 0
v -3 -5.4 0
v -3.32 -5.4 0
v -3.32 -5.08 0
v -3 -5.08 0
v -1.2 -5.7 0
v -1.52 -5.7 0
v -1.52 -5.38 0
v -1.2 -5.38 0
v -1.2 -6 0
v -1.52 -6 0
v -1.52 -5.68 0
v -1.2 -5.68 0

# Texture cooridinates (Count = 4)
vt 0 0.8079848
vt 0.01652892 0.8079848
vt 0.01652892 0.838403
vt 0 0.838403

# Normal
vn 0 0 -1

# Mesh description
g c4_mesh_0001

# Faces
f 1/1/1 2/2/1 3/3/1 4/4/1
f 5/1/1 6/2/1 7/3/1 8/4/1
f 9/1/1 10/2/1 11/3/1 12/4/1
f 13/1/1 14/2/1 15/3/1 16/4/1
f 17/1/1 18/2/1 19/3/1 20/4/1
f 21/1/1 22/2/1 23/3/1 24/4/1
f 25/1/1 26/2/1 27/3/1 28/4/1
f 29/1/1 30/2/1 31/3/1 32/4/1
f 33/1/1 34/2/1 35/3/1 36/4/1
f 37/1/1 38/2/1 39/3/1 40/4/1
f 41/1/1 42/2/1 43/3/1 44/4/1
f 45/1/1 46/2/1 47/3/1 48/4/1
f 49/1/1 50/2/1 51/3/1 52/4/1
f 53/1/1 54/2/1 55/3/1 56/4/1
f 57/1/1 58/2/1 59/3/1 60/4/1
f 61/1/1 62/2/1 63/3/1 64/4/1
f 65/1/1 66/2/1 67/3/1 68/4/1
f 69/1/1 70/2/1 71/3/1 72/4/1
f 73/1/1 74/2/1 75/3/1 76/4/1

