# Tiled2Unity generated file. Do not modify by hand.
# Wavefront file for 'b1_mesh_0001.obj'

# Vertices (Count = 104)
v -2.1 -1.8 0
v -2.42 -1.8 0
v -2.42 -1.48 0
v -2.1 -1.48 0
v -2.4 -2.4 0
v -2.72 -2.4 0
v -2.72 -2.08 0
v -2.4 -2.08 0
v -2.7 -2.4 0
v -3.02 -2.4 0
v -3.02 -2.08 0
v -2.7 -2.08 0
v -3 -2.4 0
v -3.32 -2.4 0
v -3.32 -2.08 0
v -3 -2.08 0
v -3.3 -2.4 0
v -3.62 -2.4 0
v -3.62 -2.08 0
v -3.3 -2.08 0
v -3.6 -2.4 0
v -3.92 -2.4 0
v -3.92 -2.08 0
v -3.6 -2.08 0
v -3.9 -2.4 0
v -4.22 -2.4 0
v -4.22 -2.08 0
v -3.9 -2.08 0
v -4.2 -2.4 0
v -4.52 -2.4 0
v -4.52 -2.08 0
v -4.2 -2.08 0
v -4.5 -2.4 0
v -4.82 -2.4 0
v -4.82 -2.08 0
v -4.5 -2.08 0
v -4.8 -2.4 0
v -5.12 -2.4 0
v -5.12 -2.08 0
v -4.8 -2.08 0
v -5.1 -2.4 0
v -5.42 -2.4 0
v -5.42 -2.08 0
v -5.1 -2.08 0
v -5.4 -2.4 0
v -5.72 -2.4 0
v -5.72 -2.08 0
v -5.4 -2.08 0
v -5.7 -2.4 0
v -6.02 -2.4 0
v -6.02 -2.08 0
v -5.7 -2.08 0
v -6 -2.4 0
v -6.32 -2.4 0
v -6.32 -2.08 0
v -6 -2.08 0
v -6.3 -2.4 0
v -6.62 -2.4 0
v -6.62 -2.08 0
v -6.3 -2.08 0
v -6.6 -2.4 0
v -6.92 -2.4 0
v -6.92 -2.08 0
v -6.6 -2.08 0
v -6.9 -2.4 0
v -7.22 -2.4 0
v -7.22 -2.08 0
v -6.9 -2.08 0
v -7.2 -2.4 0
v -7.52 -2.4 0
v -7.52 -2.08 0
v -7.2 -2.08 0
v -7.5 -2.4 0
v -7.82 -2.4 0
v -7.82 -2.08 0
v -7.5 -2.08 0
v -7.8 -2.4 0
v -8.12 -2.4 0
v -8.12 -2.08 0
v -7.8 -2.08 0
v -8.099999 -2.4 0
v -8.42 -2.4 0
v -8.42 -2.08 0
v -8.099999 -2.08 0
v -8.4 -2.4 0
v -8.72 -2.4 0
v -8.72 -2.08 0
v -8.4 -2.08 0
v -8.7 -2.4 0
v -9.02 -2.4 0
v -9.02 -2.08 0
v -8.7 -2.08 0
v -9 -2.4 0
v -9.32 -2.4 0
v -9.32 -2.08 0
v -9 -2.08 0
v -9.3 -2.4 0
v -9.62 -2.4 0
v -9.62 -2.08 0
v -9.3 -2.08 0
v -9.599999 -2.4 0
v -9.92 -2.4 0
v -9.92 -2.08 0
v -9.599999 -2.08 0

# Texture cooridinates (Count = 8)
vt 0.2283058 0.5817491
vt 0.2448347 0.5817491
vt 0.2448347 0.6121673
vt 0.2283058 0.6121673
vt 0.08780992 0.8403042
vt 0.1043388 0.8403042
vt 0.1043388 0.8707224
vt 0.08780992 0.8707224

# Normal
vn 0 0 -1

# Mesh description
g b1_mesh_0001

# Faces
f 1/1/1 2/2/1 3/3/1 4/4/1
f 5/5/1 6/6/1 7/7/1 8/8/1
f 9/5/1 10/6/1 11/7/1 12/8/1
f 13/5/1 14/6/1 15/7/1 16/8/1
f 17/5/1 18/6/1 19/7/1 20/8/1
f 21/5/1 22/6/1 23/7/1 24/8/1
f 25/5/1 26/6/1 27/7/1 28/8/1
f 29/5/1 30/6/1 31/7/1 32/8/1
f 33/5/1 34/6/1 35/7/1 36/8/1
f 37/5/1 38/6/1 39/7/1 40/8/1
f 41/5/1 42/6/1 43/7/1 44/8/1
f 45/5/1 46/6/1 47/7/1 48/8/1
f 49/5/1 50/6/1 51/7/1 52/8/1
f 53/5/1 54/6/1 55/7/1 56/8/1
f 57/5/1 58/6/1 59/7/1 60/8/1
f 61/5/1 62/6/1 63/7/1 64/8/1
f 65/5/1 66/6/1 67/7/1 68/8/1
f 69/5/1 70/6/1 71/7/1 72/8/1
f 73/5/1 74/6/1 75/7/1 76/8/1
f 77/5/1 78/6/1 79/7/1 80/8/1
f 81/5/1 82/6/1 83/7/1 84/8/1
f 85/5/1 86/6/1 87/7/1 88/8/1
f 89/5/1 90/6/1 91/7/1 92/8/1
f 93/5/1 94/6/1 95/7/1 96/8/1
f 97/5/1 98/6/1 99/7/1 100/8/1
f 101/5/1 102/6/1 103/7/1 104/8/1

