# Tiled2Unity generated file. Do not modify by hand.
# Wavefront file for 'b1_mesh_0003.obj'

# Vertices (Count = 908)
v -2.1 -1.8 0
v -2.42 -1.8 0
v -2.42 -1.48 0
v -2.1 -1.48 0
v -2.4 -1.8 0
v -2.72 -1.8 0
v -2.72 -1.48 0
v -2.4 -1.48 0
v -2.7 -1.8 0
v -3.02 -1.8 0
v -3.02 -1.48 0
v -2.7 -1.48 0
v -3 -1.8 0
v -3.32 -1.8 0
v -3.32 -1.48 0
v -3 -1.48 0
v -3.3 -1.8 0
v -3.62 -1.8 0
v -3.62 -1.48 0
v -3.3 -1.48 0
v -3.6 -1.8 0
v -3.92 -1.8 0
v -3.92 -1.48 0
v -3.6 -1.48 0
v -3.9 -1.8 0
v -4.22 -1.8 0
v -4.22 -1.48 0
v -3.9 -1.48 0
v -4.2 -1.8 0
v -4.52 -1.8 0
v -4.52 -1.48 0
v -4.2 -1.48 0
v -4.5 -1.8 0
v -4.82 -1.8 0
v -4.82 -1.48 0
v -4.5 -1.48 0
v -4.8 -1.8 0
v -5.12 -1.8 0
v -5.12 -1.48 0
v -4.8 -1.48 0
v -5.1 -1.8 0
v -5.42 -1.8 0
v -5.42 -1.48 0
v -5.1 -1.48 0
v -5.4 -1.8 0
v -5.72 -1.8 0
v -5.72 -1.48 0
v -5.4 -1.48 0
v -5.7 -1.8 0
v -6.02 -1.8 0
v -6.02 -1.48 0
v -5.7 -1.48 0
v -6 -1.8 0
v -6.32 -1.8 0
v -6.32 -1.48 0
v -6 -1.48 0
v -6.3 -1.8 0
v -6.62 -1.8 0
v -6.62 -1.48 0
v -6.3 -1.48 0
v -6.6 -1.8 0
v -6.92 -1.8 0
v -6.92 -1.48 0
v -6.6 -1.48 0
v -6.9 -1.8 0
v -7.22 -1.8 0
v -7.22 -1.48 0
v -6.9 -1.48 0
v -7.2 -1.8 0
v -7.52 -1.8 0
v -7.52 -1.48 0
v -7.2 -1.48 0
v -7.5 -1.8 0
v -7.82 -1.8 0
v -7.82 -1.48 0
v -7.5 -1.48 0
v -7.8 -1.8 0
v -8.12 -1.8 0
v -8.12 -1.48 0
v -7.8 -1.48 0
v -8.099999 -1.8 0
v -8.42 -1.8 0
v -8.42 -1.48 0
v -8.099999 -1.48 0
v -8.4 -1.8 0
v -8.72 -1.8 0
v -8.72 -1.48 0
v -8.4 -1.48 0
v -8.7 -1.8 0
v -9.02 -1.8 0
v -9.02 -1.48 0
v -8.7 -1.48 0
v -9 -1.8 0
v -9.32 -1.8 0
v -9.32 -1.48 0
v -9 -1.48 0
v -9.3 -1.8 0
v -9.62 -1.8 0
v -9.62 -1.48 0
v -9.3 -1.48 0
v -9.599999 -1.8 0
v -9.92 -1.8 0
v -9.92 -1.48 0
v -9.599999 -1.48 0
v -9.9 -1.8 0
v -10.22 -1.8 0
v -10.22 -1.48 0
v -9.9 -1.48 0
v -2.1 -2.1 0
v -2.42 -2.1 0
v -2.42 -1.78 0
v -2.1 -1.78 0
v -2.4 -2.1 0
v -2.72 -2.1 0
v -2.72 -1.78 0
v -2.4 -1.78 0
v -2.7 -2.1 0
v -3.02 -2.1 0
v -3.02 -1.78 0
v -2.7 -1.78 0
v -3 -2.1 0
v -3.32 -2.1 0
v -3.32 -1.78 0
v -3 -1.78 0
v -3.3 -2.1 0
v -3.62 -2.1 0
v -3.62 -1.78 0
v -3.3 -1.78 0
v -3.6 -2.1 0
v -3.92 -2.1 0
v -3.92 -1.78 0
v -3.6 -1.78 0
v -3.9 -2.1 0
v -4.22 -2.1 0
v -4.22 -1.78 0
v -3.9 -1.78 0
v -4.2 -2.1 0
v -4.52 -2.1 0
v -4.52 -1.78 0
v -4.2 -1.78 0
v -4.5 -2.1 0
v -4.82 -2.1 0
v -4.82 -1.78 0
v -4.5 -1.78 0
v -4.8 -2.1 0
v -5.12 -2.1 0
v -5.12 -1.78 0
v -4.8 -1.78 0
v -5.1 -2.1 0
v -5.42 -2.1 0
v -5.42 -1.78 0
v -5.1 -1.78 0
v -5.4 -2.1 0
v -5.72 -2.1 0
v -5.72 -1.78 0
v -5.4 -1.78 0
v -5.7 -2.1 0
v -6.02 -2.1 0
v -6.02 -1.78 0
v -5.7 -1.78 0
v -6 -2.1 0
v -6.32 -2.1 0
v -6.32 -1.78 0
v -6 -1.78 0
v -6.3 -2.1 0
v -6.62 -2.1 0
v -6.62 -1.78 0
v -6.3 -1.78 0
v -6.6 -2.1 0
v -6.92 -2.1 0
v -6.92 -1.78 0
v -6.6 -1.78 0
v -6.9 -2.1 0
v -7.22 -2.1 0
v -7.22 -1.78 0
v -6.9 -1.78 0
v -7.2 -2.1 0
v -7.52 -2.1 0
v -7.52 -1.78 0
v -7.2 -1.78 0
v -7.5 -2.1 0
v -7.82 -2.1 0
v -7.82 -1.78 0
v -7.5 -1.78 0
v -7.8 -2.1 0
v -8.12 -2.1 0
v -8.12 -1.78 0
v -7.8 -1.78 0
v -8.099999 -2.1 0
v -8.42 -2.1 0
v -8.42 -1.78 0
v -8.099999 -1.78 0
v -8.4 -2.1 0
v -8.72 -2.1 0
v -8.72 -1.78 0
v -8.4 -1.78 0
v -8.7 -2.1 0
v -9.02 -2.1 0
v -9.02 -1.78 0
v -8.7 -1.78 0
v -9 -2.1 0
v -9.32 -2.1 0
v -9.32 -1.78 0
v -9 -1.78 0
v -9.3 -2.1 0
v -9.62 -2.1 0
v -9.62 -1.78 0
v -9.3 -1.78 0
v -9.599999 -2.1 0
v -9.92 -2.1 0
v -9.92 -1.78 0
v -9.599999 -1.78 0
v -9.9 -2.1 0
v -10.22 -2.1 0
v -10.22 -1.78 0
v -9.9 -1.78 0
v -2.1 -2.4 0
v -2.42 -2.4 0
v -2.42 -2.08 0
v -2.1 -2.08 0
v -2.4 -2.4 0
v -2.72 -2.4 0
v -2.72 -2.08 0
v -2.4 -2.08 0
v -2.7 -2.4 0
v -3.02 -2.4 0
v -3.02 -2.08 0
v -2.7 -2.08 0
v -3 -2.4 0
v -3.32 -2.4 0
v -3.32 -2.08 0
v -3 -2.08 0
v -3.3 -2.4 0
v -3.62 -2.4 0
v -3.62 -2.08 0
v -3.3 -2.08 0
v -3.6 -2.4 0
v -3.92 -2.4 0
v -3.92 -2.08 0
v -3.6 -2.08 0
v -3.9 -2.4 0
v -4.22 -2.4 0
v -4.22 -2.08 0
v -3.9 -2.08 0
v -4.2 -2.4 0
v -4.52 -2.4 0
v -4.52 -2.08 0
v -4.2 -2.08 0
v -4.5 -2.4 0
v -4.82 -2.4 0
v -4.82 -2.08 0
v -4.5 -2.08 0
v -4.8 -2.4 0
v -5.12 -2.4 0
v -5.12 -2.08 0
v -4.8 -2.08 0
v -5.1 -2.4 0
v -5.42 -2.4 0
v -5.42 -2.08 0
v -5.1 -2.08 0
v -5.4 -2.4 0
v -5.72 -2.4 0
v -5.72 -2.08 0
v -5.4 -2.08 0
v -5.7 -2.4 0
v -6.02 -2.4 0
v -6.02 -2.08 0
v -5.7 -2.08 0
v -6 -2.4 0
v -6.32 -2.4 0
v -6.32 -2.08 0
v -6 -2.08 0
v -6.3 -2.4 0
v -6.62 -2.4 0
v -6.62 -2.08 0
v -6.3 -2.08 0
v -6.6 -2.4 0
v -6.92 -2.4 0
v -6.92 -2.08 0
v -6.6 -2.08 0
v -6.9 -2.4 0
v -7.22 -2.4 0
v -7.22 -2.08 0
v -6.9 -2.08 0
v -7.2 -2.4 0
v -7.52 -2.4 0
v -7.52 -2.08 0
v -7.2 -2.08 0
v -7.5 -2.4 0
v -7.82 -2.4 0
v -7.82 -2.08 0
v -7.5 -2.08 0
v -7.8 -2.4 0
v -8.12 -2.4 0
v -8.12 -2.08 0
v -7.8 -2.08 0
v -8.099999 -2.4 0
v -8.42 -2.4 0
v -8.42 -2.08 0
v -8.099999 -2.08 0
v -8.4 -2.4 0
v -8.72 -2.4 0
v -8.72 -2.08 0
v -8.4 -2.08 0
v -8.7 -2.4 0
v -9.02 -2.4 0
v -9.02 -2.08 0
v -8.7 -2.08 0
v -9 -2.4 0
v -9.32 -2.4 0
v -9.32 -2.08 0
v -9 -2.08 0
v -9.3 -2.4 0
v -9.62 -2.4 0
v -9.62 -2.08 0
v -9.3 -2.08 0
v -9.599999 -2.4 0
v -9.92 -2.4 0
v -9.92 -2.08 0
v -9.599999 -2.08 0
v -9.9 -2.4 0
v -10.22 -2.4 0
v -10.22 -2.08 0
v -9.9 -2.08 0
v -2.1 -2.7 0
v -2.42 -2.7 0
v -2.42 -2.38 0
v -2.1 -2.38 0
v -9.9 -2.7 0
v -10.22 -2.7 0
v -10.22 -2.38 0
v -9.9 -2.38 0
v -2.1 -3 0
v -2.42 -3 0
v -2.42 -2.68 0
v -2.1 -2.68 0
v -9.9 -3 0
v -10.22 -3 0
v -10.22 -2.68 0
v -9.9 -2.68 0
v -2.1 -3.3 0
v -2.42 -3.3 0
v -2.42 -2.98 0
v -2.1 -2.98 0
v -9.9 -3.3 0
v -10.22 -3.3 0
v -10.22 -2.98 0
v -9.9 -2.98 0
v -2.1 -3.6 0
v -2.42 -3.6 0
v -2.42 -3.28 0
v -2.1 -3.28 0
v -9.9 -3.6 0
v -10.22 -3.6 0
v -10.22 -3.28 0
v -9.9 -3.28 0
v -2.1 -3.9 0
v -2.42 -3.9 0
v -2.42 -3.58 0
v -2.1 -3.58 0
v -9.9 -3.9 0
v -10.22 -3.9 0
v -10.22 -3.58 0
v -9.9 -3.58 0
v -2.1 -4.2 0
v -2.42 -4.2 0
v -2.42 -3.88 0
v -2.1 -3.88 0
v -9.9 -4.2 0
v -10.22 -4.2 0
v -10.22 -3.88 0
v -9.9 -3.88 0
v -2.1 -4.5 0
v -2.42 -4.5 0
v -2.42 -4.18 0
v -2.1 -4.18 0
v -9.9 -4.5 0
v -10.22 -4.5 0
v -10.22 -4.18 0
v -9.9 -4.18 0
v -2.1 -4.8 0
v -2.42 -4.8 0
v -2.42 -4.48 0
v -2.1 -4.48 0
v -9.9 -4.8 0
v -10.22 -4.8 0
v -10.22 -4.48 0
v -9.9 -4.48 0
v -2.1 -5.1 0
v -2.42 -5.1 0
v -2.42 -4.78 0
v -2.1 -4.78 0
v -9.9 -5.1 0
v -10.22 -5.1 0
v -10.22 -4.78 0
v -9.9 -4.78 0
v -2.1 -5.4 0
v -2.42 -5.4 0
v -2.42 -5.08 0
v -2.1 -5.08 0
v -9.9 -5.4 0
v -10.22 -5.4 0
v -10.22 -5.08 0
v -9.9 -5.08 0
v -2.1 -5.7 0
v -2.42 -5.7 0
v -2.42 -5.38 0
v -2.1 -5.38 0
v -9.9 -5.7 0
v -10.22 -5.7 0
v -10.22 -5.38 0
v -9.9 -5.38 0
v -2.1 -6 0
v -2.42 -6 0
v -2.42 -5.68 0
v -2.1 -5.68 0
v -9.9 -6 0
v -10.22 -6 0
v -10.22 -5.68 0
v -9.9 -5.68 0
v -2.1 -6.3 0
v -2.42 -6.3 0
v -2.42 -5.98 0
v -2.1 -5.98 0
v -9.9 -6.3 0
v -10.22 -6.3 0
v -10.22 -5.98 0
v -9.9 -5.98 0
v -2.1 -6.6 0
v -2.42 -6.6 0
v -2.42 -6.28 0
v -2.1 -6.28 0
v -9.9 -6.6 0
v -10.22 -6.6 0
v -10.22 -6.28 0
v -9.9 -6.28 0
v -2.1 -6.9 0
v -2.42 -6.9 0
v -2.42 -6.58 0
v -2.1 -6.58 0
v -9.9 -6.9 0
v -10.22 -6.9 0
v -10.22 -6.58 0
v -9.9 -6.58 0
v -2.1 -7.2 0
v -2.42 -7.2 0
v -2.42 -6.88 0
v -2.1 -6.88 0
v -9.9 -7.2 0
v -10.22 -7.2 0
v -10.22 -6.88 0
v -9.9 -6.88 0
v -2.1 -7.5 0
v -2.42 -7.5 0
v -2.42 -7.18 0
v -2.1 -7.18 0
v -9.9 -7.5 0
v -10.22 -7.5 0
v -10.22 -7.18 0
v -9.9 -7.18 0
v -2.1 -7.8 0
v -2.42 -7.8 0
v -2.42 -7.48 0
v -2.1 -7.48 0
v -9.9 -7.8 0
v -10.22 -7.8 0
v -10.22 -7.48 0
v -9.9 -7.48 0
v -2.1 -8.099999 0
v -2.42 -8.099999 0
v -2.42 -7.78 0
v -2.1 -7.78 0
v -9.9 -8.099999 0
v -10.22 -8.099999 0
v -10.22 -7.78 0
v -9.9 -7.78 0
v -2.1 -8.4 0
v -2.42 -8.4 0
v -2.42 -8.08 0
v -2.1 -8.08 0
v -2.4 -8.4 0
v -2.72 -8.4 0
v -2.72 -8.08 0
v -2.4 -8.08 0
v -2.7 -8.4 0
v -3.02 -8.4 0
v -3.02 -8.08 0
v -2.7 -8.08 0
v -3 -8.4 0
v -3.32 -8.4 0
v -3.32 -8.08 0
v -3 -8.08 0
v -3.3 -8.4 0
v -3.62 -8.4 0
v -3.62 -8.08 0
v -3.3 -8.08 0
v -3.6 -8.4 0
v -3.92 -8.4 0
v -3.92 -8.08 0
v -3.6 -8.08 0
v -3.9 -8.4 0
v -4.22 -8.4 0
v -4.22 -8.08 0
v -3.9 -8.08 0
v -4.2 -8.4 0
v -4.52 -8.4 0
v -4.52 -8.08 0
v -4.2 -8.08 0
v -4.5 -8.4 0
v -4.82 -8.4 0
v -4.82 -8.08 0
v -4.5 -8.08 0
v -4.8 -8.4 0
v -5.12 -8.4 0
v -5.12 -8.08 0
v -4.8 -8.08 0
v -5.1 -8.4 0
v -5.42 -8.4 0
v -5.42 -8.08 0
v -5.1 -8.08 0
v -5.4 -8.4 0
v -5.72 -8.4 0
v -5.72 -8.08 0
v -5.4 -8.08 0
v -5.7 -8.4 0
v -6.02 -8.4 0
v -6.02 -8.08 0
v -5.7 -8.08 0
v -6 -8.4 0
v -6.32 -8.4 0
v -6.32 -8.08 0
v -6 -8.08 0
v -6.3 -8.4 0
v -6.62 -8.4 0
v -6.62 -8.08 0
v -6.3 -8.08 0
v -6.6 -8.4 0
v -6.92 -8.4 0
v -6.92 -8.08 0
v -6.6 -8.08 0
v -6.9 -8.4 0
v -7.22 -8.4 0
v -7.22 -8.08 0
v -6.9 -8.08 0
v -7.2 -8.4 0
v -7.52 -8.4 0
v -7.52 -8.08 0
v -7.2 -8.08 0
v -7.5 -8.4 0
v -7.82 -8.4 0
v -7.82 -8.08 0
v -7.5 -8.08 0
v -7.8 -8.4 0
v -8.12 -8.4 0
v -8.12 -8.08 0
v -7.8 -8.08 0
v -8.099999 -8.4 0
v -8.42 -8.4 0
v -8.42 -8.08 0
v -8.099999 -8.08 0
v -8.4 -8.4 0
v -8.72 -8.4 0
v -8.72 -8.08 0
v -8.4 -8.08 0
v -8.7 -8.4 0
v -9.02 -8.4 0
v -9.02 -8.08 0
v -8.7 -8.08 0
v -9 -8.4 0
v -9.32 -8.4 0
v -9.32 -8.08 0
v -9 -8.08 0
v -9.3 -8.4 0
v -9.62 -8.4 0
v -9.62 -8.08 0
v -9.3 -8.08 0
v -9.599999 -8.4 0
v -9.92 -8.4 0
v -9.92 -8.08 0
v -9.599999 -8.08 0
v -9.9 -8.4 0
v -10.22 -8.4 0
v -10.22 -8.08 0
v -9.9 -8.08 0
v -2.1 -8.7 0
v -2.42 -8.7 0
v -2.42 -8.38 0
v -2.1 -8.38 0
v -2.4 -8.7 0
v -2.72 -8.7 0
v -2.72 -8.38 0
v -2.4 -8.38 0
v -2.7 -8.7 0
v -3.02 -8.7 0
v -3.02 -8.38 0
v -2.7 -8.38 0
v -3 -8.7 0
v -3.32 -8.7 0
v -3.32 -8.38 0
v -3 -8.38 0
v -3.3 -8.7 0
v -3.62 -8.7 0
v -3.62 -8.38 0
v -3.3 -8.38 0
v -3.6 -8.7 0
v -3.92 -8.7 0
v -3.92 -8.38 0
v -3.6 -8.38 0
v -3.9 -8.7 0
v -4.22 -8.7 0
v -4.22 -8.38 0
v -3.9 -8.38 0
v -4.2 -8.7 0
v -4.52 -8.7 0
v -4.52 -8.38 0
v -4.2 -8.38 0
v -4.5 -8.7 0
v -4.82 -8.7 0
v -4.82 -8.38 0
v -4.5 -8.38 0
v -4.8 -8.7 0
v -5.12 -8.7 0
v -5.12 -8.38 0
v -4.8 -8.38 0
v -5.1 -8.7 0
v -5.42 -8.7 0
v -5.42 -8.38 0
v -5.1 -8.38 0
v -5.4 -8.7 0
v -5.72 -8.7 0
v -5.72 -8.38 0
v -5.4 -8.38 0
v -5.7 -8.7 0
v -6.02 -8.7 0
v -6.02 -8.38 0
v -5.7 -8.38 0
v -6 -8.7 0
v -6.32 -8.7 0
v -6.32 -8.38 0
v -6 -8.38 0
v -6.3 -8.7 0
v -6.62 -8.7 0
v -6.62 -8.38 0
v -6.3 -8.38 0
v -6.6 -8.7 0
v -6.92 -8.7 0
v -6.92 -8.38 0
v -6.6 -8.38 0
v -6.9 -8.7 0
v -7.22 -8.7 0
v -7.22 -8.38 0
v -6.9 -8.38 0
v -7.2 -8.7 0
v -7.52 -8.7 0
v -7.52 -8.38 0
v -7.2 -8.38 0
v -7.5 -8.7 0
v -7.82 -8.7 0
v -7.82 -8.38 0
v -7.5 -8.38 0
v -7.8 -8.7 0
v -8.12 -8.7 0
v -8.12 -8.38 0
v -7.8 -8.38 0
v -8.099999 -8.7 0
v -8.42 -8.7 0
v -8.42 -8.38 0
v -8.099999 -8.38 0
v -8.4 -8.7 0
v -8.72 -8.7 0
v -8.72 -8.38 0
v -8.4 -8.38 0
v -8.7 -8.7 0
v -9.02 -8.7 0
v -9.02 -8.38 0
v -8.7 -8.38 0
v -9 -8.7 0
v -9.32 -8.7 0
v -9.32 -8.38 0
v -9 -8.38 0
v -9.3 -8.7 0
v -9.62 -8.7 0
v -9.62 -8.38 0
v -9.3 -8.38 0
v -9.599999 -8.7 0
v -9.92 -8.7 0
v -9.92 -8.38 0
v -9.599999 -8.38 0
v -9.9 -8.7 0
v -10.22 -8.7 0
v -10.22 -8.38 0
v -9.9 -8.38 0
v -2.1 -9 0
v -2.42 -9 0
v -2.42 -8.679999 0
v -2.1 -8.679999 0
v -2.4 -9 0
v -2.72 -9 0
v -2.72 -8.679999 0
v -2.4 -8.679999 0
v -2.7 -9 0
v -3.02 -9 0
v -3.02 -8.679999 0
v -2.7 -8.679999 0
v -3 -9 0
v -3.32 -9 0
v -3.32 -8.679999 0
v -3 -8.679999 0
v -3.3 -9 0
v -3.62 -9 0
v -3.62 -8.679999 0
v -3.3 -8.679999 0
v -3.6 -9 0
v -3.92 -9 0
v -3.92 -8.679999 0
v -3.6 -8.679999 0
v -3.9 -9 0
v -4.22 -9 0
v -4.22 -8.679999 0
v -3.9 -8.679999 0
v -4.2 -9 0
v -4.52 -9 0
v -4.52 -8.679999 0
v -4.2 -8.679999 0
v -4.5 -9 0
v -4.82 -9 0
v -4.82 -8.679999 0
v -4.5 -8.679999 0
v -4.8 -9 0
v -5.12 -9 0
v -5.12 -8.679999 0
v -4.8 -8.679999 0
v -5.1 -9 0
v -5.42 -9 0
v -5.42 -8.679999 0
v -5.1 -8.679999 0
v -5.4 -9 0
v -5.72 -9 0
v -5.72 -8.679999 0
v -5.4 -8.679999 0
v -5.7 -9 0
v -6.02 -9 0
v -6.02 -8.679999 0
v -5.7 -8.679999 0
v -6 -9 0
v -6.32 -9 0
v -6.32 -8.679999 0
v -6 -8.679999 0
v -6.3 -9 0
v -6.62 -9 0
v -6.62 -8.679999 0
v -6.3 -8.679999 0
v -6.6 -9 0
v -6.92 -9 0
v -6.92 -8.679999 0
v -6.6 -8.679999 0
v -6.9 -9 0
v -7.22 -9 0
v -7.22 -8.679999 0
v -6.9 -8.679999 0
v -7.2 -9 0
v -7.52 -9 0
v -7.52 -8.679999 0
v -7.2 -8.679999 0
v -7.5 -9 0
v -7.82 -9 0
v -7.82 -8.679999 0
v -7.5 -8.679999 0
v -7.8 -9 0
v -8.12 -9 0
v -8.12 -8.679999 0
v -7.8 -8.679999 0
v -8.099999 -9 0
v -8.42 -9 0
v -8.42 -8.679999 0
v -8.099999 -8.679999 0
v -8.4 -9 0
v -8.72 -9 0
v -8.72 -8.679999 0
v -8.4 -8.679999 0
v -8.7 -9 0
v -9.02 -9 0
v -9.02 -8.679999 0
v -8.7 -8.679999 0
v -9 -9 0
v -9.32 -9 0
v -9.32 -8.679999 0
v -9 -8.679999 0
v -9.3 -9 0
v -9.62 -9 0
v -9.62 -8.679999 0
v -9.3 -8.679999 0
v -9.599999 -9 0
v -9.92 -9 0
v -9.92 -8.679999 0
v -9.599999 -8.679999 0
v -9.9 -9 0
v -10.22 -9 0
v -10.22 -8.679999 0
v -9.9 -8.679999 0
v -2.1 -9.3 0
v -2.42 -9.3 0
v -2.42 -8.98 0
v -2.1 -8.98 0
v -2.4 -9.3 0
v -2.72 -9.3 0
v -2.72 -8.98 0
v -2.4 -8.98 0
v -2.7 -9.3 0
v -3.02 -9.3 0
v -3.02 -8.98 0
v -2.7 -8.98 0
v -3 -9.3 0
v -3.32 -9.3 0
v -3.32 -8.98 0
v -3 -8.98 0
v -3.3 -9.3 0
v -3.62 -9.3 0
v -3.62 -8.98 0
v -3.3 -8.98 0
v -3.6 -9.3 0
v -3.92 -9.3 0
v -3.92 -8.98 0
v -3.6 -8.98 0
v -3.9 -9.3 0
v -4.22 -9.3 0
v -4.22 -8.98 0
v -3.9 -8.98 0
v -4.2 -9.3 0
v -4.52 -9.3 0
v -4.52 -8.98 0
v -4.2 -8.98 0
v -4.5 -9.3 0
v -4.82 -9.3 0
v -4.82 -8.98 0
v -4.5 -8.98 0
v -4.8 -9.3 0
v -5.12 -9.3 0
v -5.12 -8.98 0
v -4.8 -8.98 0
v -5.1 -9.3 0
v -5.42 -9.3 0
v -5.42 -8.98 0
v -5.1 -8.98 0
v -5.4 -9.3 0
v -5.72 -9.3 0
v -5.72 -8.98 0
v -5.4 -8.98 0
v -5.7 -9.3 0
v -6.02 -9.3 0
v -6.02 -8.98 0
v -5.7 -8.98 0
v -6 -9.3 0
v -6.32 -9.3 0
v -6.32 -8.98 0
v -6 -8.98 0
v -6.3 -9.3 0
v -6.62 -9.3 0
v -6.62 -8.98 0
v -6.3 -8.98 0
v -6.6 -9.3 0
v -6.92 -9.3 0
v -6.92 -8.98 0
v -6.6 -8.98 0
v -6.9 -9.3 0
v -7.22 -9.3 0
v -7.22 -8.98 0
v -6.9 -8.98 0
v -7.2 -9.3 0
v -7.52 -9.3 0
v -7.52 -8.98 0
v -7.2 -8.98 0
v -7.5 -9.3 0
v -7.82 -9.3 0
v -7.82 -8.98 0
v -7.5 -8.98 0
v -7.8 -9.3 0
v -8.12 -9.3 0
v -8.12 -8.98 0
v -7.8 -8.98 0
v -8.099999 -9.3 0
v -8.42 -9.3 0
v -8.42 -8.98 0
v -8.099999 -8.98 0
v -8.4 -9.3 0
v -8.72 -9.3 0
v -8.72 -8.98 0
v -8.4 -8.98 0
v -8.7 -9.3 0
v -9.02 -9.3 0
v -9.02 -8.98 0
v -8.7 -8.98 0
v -9 -9.3 0
v -9.32 -9.3 0
v -9.32 -8.98 0
v -9 -8.98 0
v -9.3 -9.3 0
v -9.62 -9.3 0
v -9.62 -8.98 0
v -9.3 -8.98 0
v -9.599999 -9.3 0
v -9.92 -9.3 0
v -9.92 -8.98 0
v -9.599999 -8.98 0
v -9.9 -9.3 0
v -10.22 -9.3 0
v -10.22 -8.98 0
v -9.9 -8.98 0

# Texture cooridinates (Count = 56)
vt 0.2809917 0.5817491
vt 0.2975207 0.5817491
vt 0.2975207 0.6121673
vt 0.2809917 0.6121673
vt 0.2458678 0.5817491
vt 0.2623967 0.5817491
vt 0.2623967 0.6121673
vt 0.2458678 0.6121673
vt 0.2985537 0.5817491
vt 0.3150826 0.5817491
vt 0.3150826 0.6121673
vt 0.2985537 0.6121673
vt 0.2634298 0.5494297
vt 0.2799587 0.5494297
vt 0.2799587 0.5798479
vt 0.2634298 0.5798479
vt 0.3161157 0.4847909
vt 0.3326446 0.4847909
vt 0.3326446 0.5152091
vt 0.3161157 0.5152091
vt 0.3336777 0.3555133
vt 0.3502066 0.3555133
vt 0.3502066 0.3859316
vt 0.3336777 0.3859316
vt 0.2283058 0.4847909
vt 0.2448347 0.4847909
vt 0.2448347 0.5152091
vt 0.2283058 0.5152091
vt 0.2809917 0.5494297
vt 0.2975207 0.5494297
vt 0.2975207 0.5798479
vt 0.2809917 0.5798479
vt 0.2985537 0.5494297
vt 0.3150826 0.5494297
vt 0.3150826 0.5798479
vt 0.2985537 0.5798479
vt 0.2985537 0.4847909
vt 0.3150826 0.4847909
vt 0.3150826 0.5152091
vt 0.2985537 0.5152091
vt 0.3336777 0.4847909
vt 0.3502066 0.4847909
vt 0.3502066 0.5152091
vt 0.3336777 0.5152091
vt 0.2458678 0.4847909
vt 0.2623967 0.4847909
vt 0.2623967 0.5152091
vt 0.2458678 0.5152091
vt 0.2985537 0.3231939
vt 0.3150826 0.3231939
vt 0.3150826 0.3536122
vt 0.2985537 0.3536122
vt 0.3161157 0.3231939
vt 0.3326446 0.3231939
vt 0.3326446 0.3536122
vt 0.3161157 0.3536122

# Normal
vn 0 0 -1

# Mesh description
g b1_mesh_0003

# Faces
f 1/1/1 2/2/1 3/3/1 4/4/1
f 5/5/1 6/6/1 7/7/1 8/8/1
f 9/5/1 10/6/1 11/7/1 12/8/1
f 13/5/1 14/6/1 15/7/1 16/8/1
f 17/5/1 18/6/1 19/7/1 20/8/1
f 21/5/1 22/6/1 23/7/1 24/8/1
f 25/5/1 26/6/1 27/7/1 28/8/1
f 29/5/1 30/6/1 31/7/1 32/8/1
f 33/5/1 34/6/1 35/7/1 36/8/1
f 37/5/1 38/6/1 39/7/1 40/8/1
f 41/5/1 42/6/1 43/7/1 44/8/1
f 45/5/1 46/6/1 47/7/1 48/8/1
f 49/5/1 50/6/1 51/7/1 52/8/1
f 53/5/1 54/6/1 55/7/1 56/8/1
f 57/5/1 58/6/1 59/7/1 60/8/1
f 61/5/1 62/6/1 63/7/1 64/8/1
f 65/5/1 66/6/1 67/7/1 68/8/1
f 69/5/1 70/6/1 71/7/1 72/8/1
f 73/5/1 74/6/1 75/7/1 76/8/1
f 77/5/1 78/6/1 79/7/1 80/8/1
f 81/5/1 82/6/1 83/7/1 84/8/1
f 85/5/1 86/6/1 87/7/1 88/8/1
f 89/5/1 90/6/1 91/7/1 92/8/1
f 93/5/1 94/6/1 95/7/1 96/8/1
f 97/5/1 98/6/1 99/7/1 100/8/1
f 101/5/1 102/6/1 103/7/1 104/8/1
f 105/9/1 106/10/1 107/11/1 108/12/1
f 109/13/1 110/14/1 111/15/1 112/16/1
f 113/17/1 114/18/1 115/19/1 116/20/1
f 117/17/1 118/18/1 119/19/1 120/20/1
f 121/17/1 122/18/1 123/19/1 124/20/1
f 125/17/1 126/18/1 127/19/1 128/20/1
f 129/17/1 130/18/1 131/19/1 132/20/1
f 133/17/1 134/18/1 135/19/1 136/20/1
f 137/17/1 138/18/1 139/19/1 140/20/1
f 141/21/1 142/22/1 143/23/1 144/24/1
f 145/17/1 146/18/1 147/19/1 148/20/1
f 149/17/1 150/18/1 151/19/1 152/20/1
f 153/17/1 154/18/1 155/19/1 156/20/1
f 157/17/1 158/18/1 159/19/1 160/20/1
f 161/17/1 162/18/1 163/19/1 164/20/1
f 165/17/1 166/18/1 167/19/1 168/20/1
f 169/17/1 170/18/1 171/19/1 172/20/1
f 173/17/1 174/18/1 175/19/1 176/20/1
f 177/17/1 178/18/1 179/19/1 180/20/1
f 181/17/1 182/18/1 183/19/1 184/20/1
f 185/17/1 186/18/1 187/19/1 188/20/1
f 189/17/1 190/18/1 191/19/1 192/20/1
f 193/17/1 194/18/1 195/19/1 196/20/1
f 197/17/1 198/18/1 199/19/1 200/20/1
f 201/17/1 202/18/1 203/19/1 204/20/1
f 205/17/1 206/18/1 207/19/1 208/20/1
f 209/17/1 210/18/1 211/19/1 212/20/1
f 213/13/1 214/14/1 215/15/1 216/16/1
f 217/13/1 218/14/1 219/15/1 220/16/1
f 221/25/1 222/26/1 223/27/1 224/28/1
f 225/25/1 226/26/1 227/27/1 228/28/1
f 229/25/1 230/26/1 231/27/1 232/28/1
f 233/25/1 234/26/1 235/27/1 236/28/1
f 237/25/1 238/26/1 239/27/1 240/28/1
f 241/25/1 242/26/1 243/27/1 244/28/1
f 245/25/1 246/26/1 247/27/1 248/28/1
f 249/25/1 250/26/1 251/27/1 252/28/1
f 253/25/1 254/26/1 255/27/1 256/28/1
f 257/25/1 258/26/1 259/27/1 260/28/1
f 261/25/1 262/26/1 263/27/1 264/28/1
f 265/25/1 266/26/1 267/27/1 268/28/1
f 269/25/1 270/26/1 271/27/1 272/28/1
f 273/25/1 274/26/1 275/27/1 276/28/1
f 277/25/1 278/26/1 279/27/1 280/28/1
f 281/25/1 282/26/1 283/27/1 284/28/1
f 285/25/1 286/26/1 287/27/1 288/28/1
f 289/25/1 290/26/1 291/27/1 292/28/1
f 293/25/1 294/26/1 295/27/1 296/28/1
f 297/25/1 298/26/1 299/27/1 300/28/1
f 301/25/1 302/26/1 303/27/1 304/28/1
f 305/25/1 306/26/1 307/27/1 308/28/1
f 309/25/1 310/26/1 311/27/1 312/28/1
f 313/25/1 314/26/1 315/27/1 316/28/1
f 317/25/1 318/26/1 319/27/1 320/28/1
f 321/13/1 322/14/1 323/15/1 324/16/1
f 325/13/1 326/14/1 327/15/1 328/16/1
f 329/13/1 330/14/1 331/15/1 332/16/1
f 333/13/1 334/14/1 335/15/1 336/16/1
f 337/13/1 338/14/1 339/15/1 340/16/1
f 341/13/1 342/14/1 343/15/1 344/16/1
f 345/13/1 346/14/1 347/15/1 348/16/1
f 349/13/1 350/14/1 351/15/1 352/16/1
f 353/13/1 354/14/1 355/15/1 356/16/1
f 357/13/1 358/14/1 359/15/1 360/16/1
f 361/13/1 362/14/1 363/15/1 364/16/1
f 365/13/1 366/14/1 367/15/1 368/16/1
f 369/13/1 370/14/1 371/15/1 372/16/1
f 373/13/1 374/14/1 375/15/1 376/16/1
f 377/13/1 378/14/1 379/15/1 380/16/1
f 381/13/1 382/14/1 383/15/1 384/16/1
f 385/13/1 386/14/1 387/15/1 388/16/1
f 389/13/1 390/14/1 391/15/1 392/16/1
f 393/13/1 394/14/1 395/15/1 396/16/1
f 397/13/1 398/14/1 399/15/1 400/16/1
f 401/13/1 402/14/1 403/15/1 404/16/1
f 405/13/1 406/14/1 407/15/1 408/16/1
f 409/13/1 410/14/1 411/15/1 412/16/1
f 413/13/1 414/14/1 415/15/1 416/16/1
f 417/13/1 418/14/1 419/15/1 420/16/1
f 421/13/1 422/14/1 423/15/1 424/16/1
f 425/13/1 426/14/1 427/15/1 428/16/1
f 429/13/1 430/14/1 431/15/1 432/16/1
f 433/13/1 434/14/1 435/15/1 436/16/1
f 437/13/1 438/14/1 439/15/1 440/16/1
f 441/13/1 442/14/1 443/15/1 444/16/1
f 445/13/1 446/14/1 447/15/1 448/16/1
f 449/13/1 450/14/1 451/15/1 452/16/1
f 453/13/1 454/14/1 455/15/1 456/16/1
f 457/13/1 458/14/1 459/15/1 460/16/1
f 461/13/1 462/14/1 463/15/1 464/16/1
f 465/13/1 466/14/1 467/15/1 468/16/1
f 469/13/1 470/14/1 471/15/1 472/16/1
f 473/13/1 474/14/1 475/15/1 476/16/1
f 477/29/1 478/30/1 479/31/1 480/32/1
f 481/5/1 482/6/1 483/7/1 484/8/1
f 485/5/1 486/6/1 487/7/1 488/8/1
f 489/5/1 490/6/1 491/7/1 492/8/1
f 493/5/1 494/6/1 495/7/1 496/8/1
f 497/5/1 498/6/1 499/7/1 500/8/1
f 501/5/1 502/6/1 503/7/1 504/8/1
f 505/5/1 506/6/1 507/7/1 508/8/1
f 509/5/1 510/6/1 511/7/1 512/8/1
f 513/5/1 514/6/1 515/7/1 516/8/1
f 517/5/1 518/6/1 519/7/1 520/8/1
f 521/5/1 522/6/1 523/7/1 524/8/1
f 525/5/1 526/6/1 527/7/1 528/8/1
f 529/5/1 530/6/1 531/7/1 532/8/1
f 533/5/1 534/6/1 535/7/1 536/8/1
f 537/5/1 538/6/1 539/7/1 540/8/1
f 541/5/1 542/6/1 543/7/1 544/8/1
f 545/5/1 546/6/1 547/7/1 548/8/1
f 549/5/1 550/6/1 551/7/1 552/8/1
f 553/5/1 554/6/1 555/7/1 556/8/1
f 557/5/1 558/6/1 559/7/1 560/8/1
f 561/5/1 562/6/1 563/7/1 564/8/1
f 565/5/1 566/6/1 567/7/1 568/8/1
f 569/5/1 570/6/1 571/7/1 572/8/1
f 573/5/1 574/6/1 575/7/1 576/8/1
f 577/5/1 578/6/1 579/7/1 580/8/1
f 581/33/1 582/34/1 583/35/1 584/36/1
f 585/37/1 586/38/1 587/39/1 588/40/1
f 589/17/1 590/18/1 591/19/1 592/20/1
f 593/17/1 594/18/1 595/19/1 596/20/1
f 597/17/1 598/18/1 599/19/1 600/20/1
f 601/17/1 602/18/1 603/19/1 604/20/1
f 605/17/1 606/18/1 607/19/1 608/20/1
f 609/17/1 610/18/1 611/19/1 612/20/1
f 613/17/1 614/18/1 615/19/1 616/20/1
f 617/17/1 618/18/1 619/19/1 620/20/1
f 621/17/1 622/18/1 623/19/1 624/20/1
f 625/17/1 626/18/1 627/19/1 628/20/1
f 629/17/1 630/18/1 631/19/1 632/20/1
f 633/17/1 634/18/1 635/19/1 636/20/1
f 637/17/1 638/18/1 639/19/1 640/20/1
f 641/17/1 642/18/1 643/19/1 644/20/1
f 645/17/1 646/18/1 647/19/1 648/20/1
f 649/17/1 650/18/1 651/19/1 652/20/1
f 653/17/1 654/18/1 655/19/1 656/20/1
f 657/17/1 658/18/1 659/19/1 660/20/1
f 661/17/1 662/18/1 663/19/1 664/20/1
f 665/17/1 666/18/1 667/19/1 668/20/1
f 669/17/1 670/18/1 671/19/1 672/20/1
f 673/17/1 674/18/1 675/19/1 676/20/1
f 677/17/1 678/18/1 679/19/1 680/20/1
f 681/17/1 682/18/1 683/19/1 684/20/1
f 685/17/1 686/18/1 687/19/1 688/20/1
f 689/41/1 690/42/1 691/43/1 692/44/1
f 693/37/1 694/38/1 695/39/1 696/40/1
f 697/17/1 698/18/1 699/19/1 700/20/1
f 701/17/1 702/18/1 703/19/1 704/20/1
f 705/17/1 706/18/1 707/19/1 708/20/1
f 709/17/1 710/18/1 711/19/1 712/20/1
f 713/17/1 714/18/1 715/19/1 716/20/1
f 717/17/1 718/18/1 719/19/1 720/20/1
f 721/17/1 722/18/1 723/19/1 724/20/1
f 725/17/1 726/18/1 727/19/1 728/20/1
f 729/17/1 730/18/1 731/19/1 732/20/1
f 733/17/1 734/18/1 735/19/1 736/20/1
f 737/17/1 738/18/1 739/19/1 740/20/1
f 741/17/1 742/18/1 743/19/1 744/20/1
f 745/17/1 746/18/1 747/19/1 748/20/1
f 749/17/1 750/18/1 751/19/1 752/20/1
f 753/17/1 754/18/1 755/19/1 756/20/1
f 757/17/1 758/18/1 759/19/1 760/20/1
f 761/17/1 762/18/1 763/19/1 764/20/1
f 765/17/1 766/18/1 767/19/1 768/20/1
f 769/17/1 770/18/1 771/19/1 772/20/1
f 773/17/1 774/18/1 775/19/1 776/20/1
f 777/21/1 778/22/1 779/23/1 780/24/1
f 781/17/1 782/18/1 783/19/1 784/20/1
f 785/17/1 786/18/1 787/19/1 788/20/1
f 789/17/1 790/18/1 791/19/1 792/20/1
f 793/17/1 794/18/1 795/19/1 796/20/1
f 797/41/1 798/42/1 799/43/1 800/44/1
f 801/45/1 802/46/1 803/47/1 804/48/1
f 805/25/1 806/26/1 807/27/1 808/28/1
f 809/25/1 810/26/1 811/27/1 812/28/1
f 813/25/1 814/26/1 815/27/1 816/28/1
f 817/25/1 818/26/1 819/27/1 820/28/1
f 821/25/1 822/26/1 823/27/1 824/28/1
f 825/25/1 826/26/1 827/27/1 828/28/1
f 829/25/1 830/26/1 831/27/1 832/28/1
f 833/25/1 834/26/1 835/27/1 836/28/1
f 837/25/1 838/26/1 839/27/1 840/28/1
f 841/25/1 842/26/1 843/27/1 844/28/1
f 845/25/1 846/26/1 847/27/1 848/28/1
f 849/25/1 850/26/1 851/27/1 852/28/1
f 853/49/1 854/50/1 855/51/1 856/52/1
f 857/25/1 858/26/1 859/27/1 860/28/1
f 861/25/1 862/26/1 863/27/1 864/28/1
f 865/25/1 866/26/1 867/27/1 868/28/1
f 869/25/1 870/26/1 871/27/1 872/28/1
f 873/25/1 874/26/1 875/27/1 876/28/1
f 877/25/1 878/26/1 879/27/1 880/28/1
f 881/25/1 882/26/1 883/27/1 884/28/1
f 885/25/1 886/26/1 887/27/1 888/28/1
f 889/25/1 890/26/1 891/27/1 892/28/1
f 893/25/1 894/26/1 895/27/1 896/28/1
f 897/25/1 898/26/1 899/27/1 900/28/1
f 901/25/1 902/26/1 903/27/1 904/28/1
f 905/53/1 906/54/1 907/55/1 908/56/1

